<?xml version="1.0" encoding="UTF-8"?>
<svg xmlns="http://www.w3.org/2000/svg" version="1.1" xmlns:xlink="http://www.w3.org/1999/xlink" viewBox="0 0 3333.482 2000">
  <defs>
    <clipPath id="clippath">
      <rect x=".001" width="3333.48" height="2000" style="fill: none;"/>
    </clipPath>
  </defs>
  <!-- Generator: Adobe Illustrator 28.7.7, SVG Export Plug-In . SVG Version: 1.2.0 Build 194)  -->
  <g>
    <g id="Layer_1">
      <g style="clip-path: url(#clippath);">
        <rect x=".001" width="3333.48" height="2000" style="fill: #fff;"/>
        <g>
          <g>
            <path d="M1131.688,186.5C1360.216,58.89,1631.275,10.084,1890.448,46.15c66.121,9.241,131.643,23.357,195.393,43.214-10.865,12.74-19.359,28.112-20.41,45.128-35.987-16.119-76.026-27.843-115.735-21.592-13.807,2.034-26.833,7.118-39.439,12.89-5.493,2.811-11.646.179-17.258-.329-41.12-8.105-85.331,5.533-115.465,34.332-43.04,40.493-65.911,104.851-48.623,162.51,3.001,12.531,10.355,23.536,13.536,35.977.21,16.777-4.112,33.285-8.674,49.315-12.366,37.562-42.86,64.866-61.259,99.169-19.329,34.9-31.785,75.094-27.403,115.258,4.532,43.065,29.714,82.541,64.741,107.602-31.635,37.652-54.686,81.285-80.258,123.034-18.459,30.654-35.957,61.876-53.726,92.918-3.482,6.31-8.134,12.202-9.785,19.349,6.063,7.716,15.968,11.275,22.361,18.841l-2.071,3.858c-15.938,29.637-27.553,61.367-39.109,92.889-54.326-47.82-109.612-94.713-163.548-143.041-6.183-5.891-13.506-11.514-16.058-20.007-7.774-25.719-8.134-53.801-20.92-77.876,64.26-19.618,128.641-38.848,192.872-58.586,6.033-1.406,13.266-6.28,8.614-13.248-9.214-2.243-18.279,1.884-27.163,3.708-64.741,15.431-129.242,31.88-193.712,48.448-5.643-6.31-12.636-11.125-19.719-15.701l3.572.837c-1.651-17.525-6.123-34.572-10.295-51.618-8.734-38.011-17.949-75.902-26.323-114.002-2.281-5.652-1.261-16.269-9.154-16.927-53.185-7.447-106.551-14.056-159.556-22.549,4.082-1.914,8.074-3.948,12.126-6.011l1.411-.748c-2.821-18.781-9.695-36.635-13.476-55.207-30.735-5.772-61.799-9.54-92.654-14.534-6.183-26.497-13.086-52.814-20.32-79.042-4.832-20.845-32.025-32.957-50.424-21.503-7.474,7.746-20.38,15.342-16.958,27.903,3.752,18.123,9.334,35.827,13.566,53.861.3,1.974.901,5.951,1.171,7.955-10.265-1.645-20.53-3.559-30.915-3.918-9.575,5.832-18.579,12.531-27.343,19.499,3.872,14.176,7.203,28.501,11.075,42.676-50.034-7.148-100.128-14.116-150.281-20.396,4.262-.748,10.355,1.286,12.516-3.798,56.277-93.008,129.752-175.13,212.861-245.17,14.197-11.843,28.003-24.433,44.061-33.824,3.542,5.084,9.755,13.727,16.478,7.536,5.463-7.387,3.632-17.854,4.652-26.646,32.295-21.353,64.231-43.424,98.267-62.085ZM1521.843,192.122c-14.257,4.366-18.879,25.091-6.483,34.093,13.476,13.219,40.489,5.174,42.29-14.265,1.321-18.033-21.46-26.646-35.807-19.828ZM1307.121,238.477c-12.186,11.663-19.479,27.843-20.65,44.62-11.405-4.636-24.221-7.058-36.197-3.17-12.546,3.678-25.152,13.847-26.232,27.603-.36,7.686,9.304,5.772,14.287,6.43,67.052-.209,134.134-.508,201.186,0,5.403-.359,11.495.718,16.268-2.512,4.172-11.873-4.772-24.493-16.298-27.723-10.445-4.516-21.76-1.495-32.385.329.57-18.303-4.802-38.37-20.26-49.674-23.021-17.884-58.468-15.432-79.718,4.097ZM1347.43,416.179c-5.733,9.69-5.372,21.293-4.352,32.119-13.777.688-28.243-.09-40.759,6.669-13.236,6.789-26.653,18.781-27.043,34.661-1.471,12.889,9.484,27.573,23.171,26.527,71.074-.03,142.148-.09,213.251.06,20.2.748,42.32-5.772,56.157-21.024,9.935-11.155,6.783-32.478-8.194-37.472-11.015-4.127-20.74,4.007-29.954,8.733-9.395-8.015-20.71-13.398-33.346-12.142.03-16.987-8.944-33.465-23.771-41.988-15.817-7.985-35.627-7.716-50.424,2.422-6.213-6.968-12.816-14.026-21.55-17.824-19.029-9.39-44.121.508-53.185,19.26ZM1137.63,422.25c-12.456,1.256-18.909,19.11-8.404,26.826,8.404,8.015,24.972,2.064,24.912-9.839,2.041-9.48-7.714-17.585-16.508-16.987Z" style="fill: #f7ccbd;"/>
            <path d="M1364.898,1069.299c41.9,57.689,77.647,120.641,128.881,170.943,17.889,15.88,37.818,32.987,62.61,35.529,23.831,2.273,43.611-14.265,59.428-29.906,22.001-23.147,41.09-48.926,58.978-75.304,9.605-14.295,18.729-28.919,28.814-42.855,2.821,41.51,4.202,83.169,3.902,124.828-1.531,49.704-13.026,98.451-26.233,146.211-16.328,66.003-38.178,130.48-54.356,196.543-12.366,52.455-21.97,105.718-26.743,159.46-64.831-1.286-129.722.06-194.523-.03,1.291-1.196,3.872-3.589,5.163-4.785,9.574-6.28,7.413-17.914,4.052-27.035-22.001-66.122-42.68-132.693-65.911-198.367l-1.561-4.486c18.729.269,37.458.718,56.187,1.286,6.033.09,12.426.449,18.009-2.363,21.58-9.989,43.1-20.097,64.08-31.252,2.341-1.316,4.682-2.632,7.053-3.948-4.322-15.132-8.044-30.444-10.745-45.936-11.075-.807-22.181-.897-33.286-1.136-10.805-39.028-18.579-78.803-28.123-118.159-17.948-75.692-34.786-151.624-52.735-227.316-1.711-7.207-2.281-14.594-2.941-21.921Z" style="fill: #f7ccbd;"/>
          </g>
          <g>
            <path d="M2085.841,89.365c14.977-17.256,36.527-28.321,59.098-31.701,58.588-7.955,116.215,41.809,120.687,99.707,1.321,22.519-6.363,46.145-23.381,61.547-16.478,14.564-38.628,20.755-60.209,22.459,8.224,16.837,24.612,27.035,35.327,41.988,9.334,12.471,16.718,26.437,21.49,41.27,5.192,15.402,8.044,31.91,16.988,45.786,15.667,25.36,35.297,49.734,62.4,63.491,35.597,17.346,76.717,18.751,112.344,36.396-2.401,2.422-4.742,4.875-7.083,7.327-29.504-13.099-61.799-17.375-92.324-27.244-30.134-9.959-53.185-32.867-72.604-56.971,9.094,32.03,34.006,57.808,63.3,72.851,43.04,22.31,88.902,40.164,127.861,69.562,22.451,17.405,43.551,37.532,57.447,62.593,18.249,32.388,27.253,69.831,26.803,106.914-.66,35.708-13.416,71.864-39.079,97.344-11.495,8.882-7.984,24.882-13.176,37.054-12.276,44.889-52.045,81.793-98.987,86.937-31.695-61.786-65.371-122.884-106.491-179.018-20.62-26.766-41.75-54.668-71.374-72.134-46.582-23.925-100.218-29.248-151.872-30.235-8.134-2.841-16.268-5.682-24.612-7.895,1.321-34.242.18-68.575.69-102.847-.3-5.293,3.512-9.331,6.033-13.548,8.014-11.753,13.056-25.091,19.089-37.861,10.025,1.675,21.07,2.991,30.284-2.452,22.841-12.65,35.717-39.775,34.396-65.315-.36-13.129-7.564-26.317-19.629-32.119-9.995-4.994-22.391-3.08-31.365,3.11-9.334,6.131-13.656,16.927-19.239,26.078-14.347-14.056-11.135-36.635-13.927-54.938-14.347-5.981-28.514-12.531-41.27-21.443-10.775-7.207-19.749-17.674-32.685-21.144-13.176-4.845-27.283-3.26-40.94-2.452-7.744,1.555-13.656-10.048-6.723-14.624,8.974-6.071,20.56-4.336,30.825-5.293-25.032-29.697-44.541-64.328-54.686-101.92-21.46,23.775-54.176,32.508-76.386,55.267-13.116,12.56-21.64,28.859-29.144,45.128,13.777-5.323,30.284-9.899,44.181-2.542,7.534,3.619,3.782,16.359-4.292,15.701-13.056-1.047-27.043-3.888-39.109,3.021-8.194,2.692-9.485,11.813-11.135,19.02-3.932,19.588-6.213,39.476-8.524,59.304-.54,4.605-1.231,9.181-1.921,13.757-2.761,7.028-4.982,14.205-6.423,21.622-6.183,0-12.336-.03-18.459-.06-1.441-4.426-2.851-8.852-4.262-13.248,4.562-16.03,8.884-32.538,8.674-49.315-3.181-12.441-10.535-23.446-13.536-35.977-17.288-57.659,5.583-122.017,48.623-162.51,30.134-28.8,74.345-42.437,115.465-34.332,5.613.508,11.766,3.14,17.258.329,12.606-5.772,25.632-10.856,39.439-12.89,39.709-6.25,79.748,5.473,115.735,21.592,1.051-17.016,9.544-32.388,20.41-45.128ZM2080.889,140.474c2.161,2.961,5.012,5.323,8.224,7.147,19.749,11.335,37.998,25.42,53.726,41.869,5.613,5.712,9.665,13.039,16.598,17.405,4.172-20.217-8.734-39.536-24.552-50.96-15.487-10.826-34.606-20.217-53.996-15.461Z" style="fill: #411c17;"/>
            <path d="M1719.757,457.778c12.396.449,24.912,2.303,37.218-.389.45,5.592.931,11.185,1.441,16.777,1.171-.538,3.452-1.645,4.622-2.183,3.812,23.088,11.315,46.025,25.452,64.986,20.59,28.381,55.106,45.068,89.923,46.624-1.381,16.179-1.681,32.418-3.151,48.597-.24,4.366-.51,8.733-.78,13.099-12.756.179-25.032,4.336-35.327,11.783-19.689,4.964-39.889,8.673-58.468,17.136-18.009,7.865-34.066,19.529-48.653,32.538-41.69-33.315-59.368-90.496-51.444-142.234,5.042-38.1,24.132-71.984,39.169-106.735Z" style="fill: #411c17;"/>
          </g>
          <path d="M2561.057,129.947c13.236-10.886,35.117-18.153,49.404-5.204,9.574,10.378-4.532,25.151,3.151,36.276,6.603,9.211,17.198,15.611,21.19,26.646,5.132,13.847,1.591,31.701-10.865,40.553-10.565,1.705-22.12-1.615-31.695,4.576-12.666,9.48-25.272-7.925-39.079-2.751-12.066,1.765-19.119,11.962-27.043,19.917-14.407.12-28.874,4.217-43.161,2.183-9.004-1.645-6.213-12.142-9.244-18.243-6.993-4.755-16.808-6.669-20.53-15.043-3.272-5.682-4.022-13.697,1.411-18.362,11.856-8.463,29.504-5.862,39.589-17.316,6.933-12.411-1.411-27.065,2.671-40.254,10.145,3.23,17.828,13.428,29.474,11.484,15.367-1.077,23.081-16.508,34.727-24.463Z" style="fill: #e2352b;"/>
          <path d="M2080.889,140.474c19.389-4.755,38.508,4.635,53.996,15.461,15.818,11.424,28.724,30.743,24.552,50.96-6.933-4.366-10.985-11.693-16.598-17.405-15.727-16.448-33.976-30.534-53.726-41.869-3.211-1.824-6.063-4.187-8.224-7.147Z" style="fill: #e4362e;"/>
          <path d="M838.748,154.351c16.028-10.108,36.767-6.161,52.495,2.512,13.476,8.314,24.341,20.007,36.047,30.444,13.536,9.45,31.815,10.647,46.672,3.469,8.104-2.841,14.947-11.574,24.222-8.613-6.273,7.686-16.328,18.721-7.504,28.381,11.195,7.267,26.713,6.998,36.347,17.166,3.842,6.22,6.213,13.547,6.393,20.874-1.02,8.792.81,19.26-4.652,26.646-6.723,6.191-12.936-2.452-16.478-7.536-8.914-13.159-21.97-23.835-38.088-26.257-20.74-5.622-42.38,5.204-62.94-2.034-12.336-3.529-19.629-14.863-30.074-21.353-16.238-6.968-34.967,1.406-46.432,13.398-12.216,11.006-16.838,27.125-24.402,41.121-5.433,10.168-21.31,16.837-30.494,7.746-14.887-13.966-17.168-37.592-8.764-55.506,8.374-12.411,25.182-14.205,35.117-25.002,14.257-12.71,16.928-34.123,32.535-45.457Z" style="fill: #f6c346;"/>
          <g>
            <path d="M2265.627,157.371c145.959,72.283,275.111,179.018,371.036,310.515-14.317.09-30.524,2.901-39.889,14.803-11.676,13.876-11.856,33.405-9.335,50.422,1.051,7.746,9.274,12.531,16.718,11.364,15.217-2.692,29.564-9.361,45.141-10.377,12.306-1.346,24.221,2.572,36.047,5.264,59.698,103.714,97.156,220.139,107.391,339.315,4.232,37.772,2.491,75.872,2.311,113.793-1.201,25.988-4.652,51.827-7.293,77.726-.96.419-2.851,1.256-3.812,1.645-28.543,8.523-34.576,52.067-8.494,67.169-20.77,84.604-51.895,167.085-96.736,242.03-3.962,6.25-6.453,13.787-12.606,18.362,2.881-12.441,4.472-25.121,6.723-37.682,8.704-18.901,8.374-40.104,13.987-59.842,6.873-8.942,13.296-19.588,12.096-31.312-1.081-10.377-4.082-20.426-6.333-30.594-14.017,11.364-31.845,25.241-28.844,45.607,2.851,11.185.36,22.31-2.011,33.315-.69,3.23-1.291,6.49-1.801,9.779-.84.149-2.521.508-3.332.658-.78,11.693-2.401,23.327-3.182,35.02-1.05-.479-3.151-1.376-4.202-1.854-8.074,34.601-16.718,69.083-24.252,103.804-5.072.18-10.115.389-15.097.628,4.082-58.945,7.984-117.98,7.383-177.074-.69-11.215,2.221-23.446-3.211-33.824,1.711-12.022,13.386-23.207,7.083-35.498-2.491-6.49-5.313-12.83-7.864-19.26-4.742,12.501-18.609,25.091-11.405,39.117,2.191,16.299.96,32.807.63,49.166-.9.778-2.641,2.303-3.542,3.05.18-22.998-1.711-45.906-2.461-68.874,2.071-10.228,6.033-20.276,5.493-30.893-.54-15.342-8.104-29.099-13.987-42.915-19.149,18.631-33.586,51.08-15.547,75.094-1.051,8.164-1.801,16.389-1.951,24.643-.6,20.874-5.913,41.569-3.692,62.504-1.201,51.827-.93,103.685-.36,155.512-7.594-.209-15.157-.359-22.691.03-8.374-50.84-17.558-101.561-28.604-151.893-3.902-19.618-9.214-38.908-12.786-58.556,3.301-8.164,3.812-17.017,3.422-25.689-3.092-10.228-10.115-18.482-16.268-26.975-4.202,11.873-10.835,23.745-9.305,36.755,1.921,6.161,4.832,11.933,8.494,17.286.93,20.246,2.191,40.523,3.932,60.739,5.192,35.02,12.096,69.711,18.189,104.582-10.925-32.538-17.228-66.451-27.343-99.258-10.055-29.129-21.28-57.928-29.204-87.745,7.594-3.918,4.772-13.817,4.832-20.725-1.921-26.018-25.272-42.317-33.916-65.614-16.628,27.693-17.829,65.255,2.731,91.303,7.864,30.594,12.966,61.906,22.601,92.081,10.865,44.56,21.4,89.21,32.896,133.591-6.513-.18-13.026-.12-19.479-.06,1.801,63.64,6.033,127.221,8.344,190.861-13.356,7.237-24.162,18.123-36.858,26.347-3.722-.06-7.414-.09-11.105-.419-39.289-4.905-78.968-5.921-118.496-8.075,2.731-46.713.24-93.845-10.655-139.482-13.146-59.573-37.368-116.096-64.561-170.525,7.233-1.346,14.467-2.931,21.58-4.994-.24-4.576-.51-9.151-.75-13.667,31.125-15.76,59.788-36.067,84.04-61.158,20.62-3.11,38.658-15.761,52.555-30.773,15.397-17.047,16.808-41.211,17.288-62.982.87-22.041-3.121-43.813-5.463-65.644-4.682-41.749-15.097-82.571-25.932-123.064l-1.201-4.994c11.466-7.148,23.081-14.026,34.006-21.981-6.663-17.375-15.547-33.764-23.981-50.302,46.942-5.144,86.711-42.048,98.987-86.937,5.192-12.172,1.681-28.172,13.176-37.054,25.662-25.48,38.418-61.636,39.079-97.344.45-37.084-8.554-74.526-26.803-106.914-13.897-25.061-34.997-45.188-57.447-62.593-38.959-29.398-84.82-47.252-127.861-69.562-29.294-15.043-54.206-40.822-63.3-72.851,19.419,24.104,42.47,47.012,72.604,56.971,30.525,9.869,62.82,14.146,92.324,27.244,48.143,20.605,87.882,59.483,110.092,106.675,16.988,36.037,21.1,77.666,12.546,116.484-.36,5.383-4.832,14.803,4.082,14.594,7.293-9.57,6.933-22.549,8.884-33.943,5.253-41.659-5.373-84.246-26.593-120.193-24.101-39.327-59.608-71.984-101.928-90.945-35.627-17.645-76.747-19.05-112.344-36.396-27.103-13.757-46.732-38.13-62.4-63.491-8.944-13.876-11.796-30.385-16.988-45.786-4.772-14.833-12.156-28.8-21.49-41.27-10.715-14.953-27.103-25.151-35.327-41.988,21.58-1.705,43.731-7.895,60.209-22.459,17.018-15.402,24.702-39.028,23.381-61.547ZM2686.367,706.836c-23.201,6.011-34.877,29.039-43.101,49.405-5.793,15.551-18.039,31.671-36.017,32.508-10.445,1.406-23.831-1.017-30.674,9.002-4.502,5.263-3.212,12.74,1.05,17.734,7.113,10.228,16.208,20.187,17.408,33.166,2.281,12.441-5.282,24.373-3.091,36.755,4.772,4.217,8.044-3.469,9.965-6.699,7.444-17.405,5.523-37.293,13.386-54.609,9.725-22.071,24.071-44.171,46.042-55.625,14.347-7.387,32.025-5.054,45.532-14.385,11.946-8.314,17.438-27.274,7.413-39.087-6.513-8.224-18.069-10.676-27.913-8.164ZM2593.413,892.404c-18.249,4.845-26.713,31.222-10.625,43.304,14.647,15.402,45.532,6.968,46.852-15.282,3.542-19.409-18.759-34.422-36.227-28.022Z" style="fill: #f7cdbd;"/>
            <path d="M846.462,1378.02c2.341-8.374,2.971-17.944,9.995-24.074,2.551,6.37,4.622,12.919,6.093,19.618,6.003,27.932,13.296,55.566,19.749,83.408,3.482,16.777,7.894,33.345,11.556,50.093,14.497.837,29.024,1.047,43.581,1.106.3,1.765.931,5.323,1.231,7.088,11.556,68.037,22.211,136.252,32.806,204.468-46.762-38.13-91.003-79.431-131.282-124.35-7.834-7.776-12.966-18.691-23.171-23.745.21-19.469,1.561-38.878,2.011-58.317.09-7.177.57-14.415-.51-21.502-1.561-6.579-9.725-5.413-14.767-6.31,11.766-29.936,22.991-60.171,36.167-89.539,2.941-5.682,5.313-11.663,6.543-17.944Z" style="fill: #f7cdbd;"/>
            <path d="M1014.392,1510.623c85.601,2.093,171.201,4.695,256.772,6.789,5.643-.449,5.523,6.49,7.504,10.228,20.08,60.979,40.88,121.688,61.559,182.457,5.042,14.504,8.104,30.235,18.249,42.347l1.681,2.273c-109.012-.987-218.024.12-327.006-.598,3.302-2.871,6.423-5.951,9.575-8.972,9.004-6.579,6.003-18.213,4.862-27.603-11.375-67.259-21.13-134.787-32.385-202.076l-.81-4.845Z" style="fill: #f7cdbd;"/>
          </g>
          <path d="M1521.843,192.122c14.347-6.819,37.128,1.794,35.807,19.828-1.801,19.439-28.814,27.484-42.29,14.265-12.396-9.002-7.774-29.727,6.483-34.093Z" style="fill: #f9faf5;"/>
          <g>
            <path d="M1812.861,245.893c22.211-22.759,54.926-31.491,76.386-55.267,10.145,37.592,29.654,72.223,54.686,101.92-10.265.957-21.85-.778-30.825,5.293-6.933,4.576-1.02,16.179,6.723,14.624,13.656-.807,27.763-2.392,40.94,2.452,12.936,3.469,21.91,13.936,32.685,21.144,12.756,8.912,26.923,15.461,41.27,21.443,2.791,18.303-.42,40.882,13.927,54.938,5.583-9.151,9.905-19.947,19.239-26.078,8.974-6.191,21.37-8.105,31.365-3.11,12.066,5.802,19.269,18.99,19.629,32.119,1.321,25.54-11.556,52.665-34.396,65.315-9.214,5.443-20.26,4.127-30.284,2.452-6.033,12.77-11.075,26.108-19.089,37.861-2.521,4.217-6.333,8.254-6.033,13.548-.51,34.272.63,68.605-.69,102.847-6.753,18.721-10.145,38.34-14.047,57.749-14.077,12.142-27.673,25.45-45.472,32.119-28.484,12.202-66.512,15.162-90.673-7.447-15.968-14.176-17.979-37.084-16.538-57.061,4.562-5.563,11.045-10.108,12.816-17.465.27-4.366.54-8.733.78-13.099,14.467-7.148,31.365-7.477,45.712-15.192,21.94-11.305,43.551-25.899,56.877-47.162-12.786,2.123-24.552,7.835-37.188,10.467-20.38,4.815-41.51,4.007-62.249,3.29-34.817-1.555-69.333-18.243-89.923-46.624-14.137-18.961-21.64-41.898-25.452-64.986-2.341-16.658-1.951-33.495-1.351-50.242,13.837,5.383,29.744,2.542,41.6-6.071,7.293-6.131,2.941-16.807-3.151-21.921-9.905-7.865-23.351-7.357-35.297-8.224,2.311-19.828,4.592-39.715,8.524-59.304,1.651-7.207,2.941-16.329,11.135-19.02,12.066-6.908,26.052-4.067,39.109-3.021,8.074.658,11.826-12.082,4.292-15.701-13.897-7.357-30.404-2.781-44.181,2.542,7.504-16.269,16.028-32.568,29.144-45.128ZM1791.671,335.731c-11.045,3.798-17.648,14.953-19.899,25.869-1.861,4.725,1.291,10.617,6.993,9.151,6.543-7.477,7.083-21.263,17.978-24.104,16.418-2.034,10.325,29.816,26.923,23.357,4.652-17.046-12.696-40.702-31.995-34.272ZM1924.034,342.281c-11.615,5.024-20.11,15.94-22.871,28.172-1.801,6.191,9.094,11.633,10.895,4.187,4.922-11.454,14.917-24.583,28.994-22.28,11.916,2.034,16.208,14.325,21.58,23.446,6.513,3.798,13.566-6.191,8.554-11.574-6.543-18.332-28.694-30.145-47.153-21.951ZM1850.679,349.398c-1.291,8.104-.33,16.508-2.161,24.523-4.262,11.903-18.639,13.428-27.193,21.054-5.042,5.951-.36,13.847,3.812,18.841,5.252,5.862,10.295,14.205,19.449,12.979-1.741-10.258-11.135-16.329-17.078-24.104,7.023-7.028,17.468-9.092,24.462-16.119,6.573-8.733,6.753-20.456,5.973-30.923-.33-4.247-2.761-6.34-7.263-6.25ZM1932.858,392.673c-10.085,1.824-22.751,5.084-25.992,16.239-3.151,8.553,4.352,16.149,11.015,20.336,20.11,10.766,46.522,8.882,64.351-5.563,8.224-7.506,1.351-20.426-6.603-25.151-12.966-6.938-28.424-8.015-42.77-5.862ZM2071.885,414.803c-5.342,8.792,11.315,11.962,8.404,21.293,1.321,8.972-20.26,11.962-9.725,19.858,11.195-.897,21.07-11.574,19.659-22.998.09-6.908-6.723-11.035-8.884-17.196,7.143-4.067,14.857-2.811,21.37,1.824-.39-4.576-.39-10.228-5.583-12.082-9.334-3.858-19.149,2.632-25.242,9.301ZM1804.517,454.04c-5.793,2.632-10.205,8.224-10.115,14.744.21,19.947,12.126,38.699,28.604,49.614,18.189,11.125,41.6,13.069,61.469,5.353,16.118-5.473,28.334-18.392,36.557-32.867,4.742-9.48,7.353-20.097,6.453-30.714-5.042-3.17-10.655-5.264-16.628-5.353-35.237-2.811-71.434-9.45-106.341-.778Z" style="fill: #f78e76;"/>
            <path d="M1251.385,795.867c7.323-4.187,14.527-9.301,23.051-10.676,12.816,2.721,22.331,12.411,33.196,19.02,7.083,4.576,14.077,9.39,19.719,15.701-7.654,2.064-15.337,4.127-23.051,5.862-14.617-3.918-29.564-16.837-44.961-10.108,9.995,6.161,21.55,9.42,31.035,16.508,9.244,6.759,19.179,12.501,29.054,18.302,6.453-8.344,18.219-7.417,27.313-10.886,12.786,24.074,13.146,52.156,20.92,77.876,2.551,8.493,9.875,14.116,16.058,20.007,53.936,48.328,109.222,95.221,163.548,143.041,11.556-31.521,23.171-63.252,39.109-92.889,17.678,16.03,34.426,33.076,48.863,52.126,27.523,31.97,42.41,74.915,38.598,117.023-.51,4.605.15,9.211.961,13.787-17.889,26.377-36.978,52.156-58.978,75.304-15.817,15.641-35.597,32.179-59.428,29.906-24.792-2.542-44.721-19.648-62.61-35.529-51.234-50.302-86.981-113.254-128.881-170.943-17.708-30.594-39.139-58.915-56.877-89.509-6.123-12.411-21.61-13.787-31.035-22.729-18.279-14.265-26.833-36.186-39.289-54.878-1.501,9.899-4.082,21.443-14.287,25.929-7.474,2.363-13.867-4.755-13.416-11.873-3.392,4.127-8.614,4.695-13.476,3.409,9.034-10.497,19.449-24.822,10.595-38.728l-.3-.837c7.324-.748,14.437-2.841,21.46-5.084,2.821,4.456,3.752,11.305,9.514,13.099,3.872-5.383,5.553-11.843,7.113-18.183,8.284-2.751,16.718-4.935,25.302-6.609-6.873-6.041-13.627-12.202-19.659-19.05-4.532-7.686-1.681-16.329.75-24.164-18.339,7.267-33.076,21.204-51.234,28.83-7.053,1.854-14.317,2.662-21.13,5.323-.3-3.05-.6-6.4,2.221-8.434,20.86-19.888,45.382-35.469,70.233-49.943ZM1285.991,883.223c-2.611,18.362-.36,38.609,11.525,53.562,2.161,3.738,6.603,4.067,10.475,4.606-5.703-11.783-15.397-22.041-15.667-35.917-2.161-7.177,2.251-18.632-6.333-22.25ZM1546.875,1081.291c3.572,10.946,13.176,18.362,17.859,28.77,3.812,5.772,4.502,16.239,13.747,14.863-1.141-11.215-8.554-20.157-14.407-29.278-4.652-5.832-8.674-14.235-17.198-14.355Z" style="fill: #f78e76;"/>
          </g>
          <path d="M1307.121,238.477c21.25-19.529,56.697-21.981,79.718-4.097,15.457,11.305,20.83,31.372,20.26,49.674,10.625-1.824,21.94-4.845,32.385-.329,11.525,3.23,20.47,15.85,16.298,27.723-4.772,3.23-10.865,2.153-16.268,2.512-67.052-.508-134.134-.209-201.186,0-4.982-.658-14.647,1.256-14.287-6.43,1.081-13.757,13.686-23.925,26.232-27.603,11.976-3.888,24.792-1.465,36.197,3.17,1.171-16.777,8.464-32.957,20.65-44.62Z" style="fill: #f8f8f3;"/>
          <path d="M1791.671,335.731c19.299-6.43,36.647,17.226,31.995,34.272-16.598,6.46-10.505-25.39-26.923-23.357-10.895,2.841-11.435,16.628-17.978,24.104-5.703,1.465-8.854-4.426-6.993-9.151,2.251-10.916,8.854-22.071,19.899-25.869Z" style="fill: #381711;"/>
          <path d="M1924.034,342.281c18.459-8.194,40.609,3.619,47.153,21.951,5.012,5.383-2.041,15.372-8.554,11.574-5.373-9.121-9.665-21.413-21.58-23.446-14.077-2.303-24.071,10.826-28.994,22.28-1.801,7.447-12.696,2.004-10.895-4.187,2.761-12.232,11.255-23.147,22.871-28.172Z" style="fill: #321713;"/>
          <path d="M1850.679,349.398c4.502-.09,6.933,2.004,7.263,6.25.78,10.467.6,22.19-5.973,30.923-6.993,7.028-17.438,9.092-24.462,16.119,5.943,7.776,15.337,13.846,17.078,24.104-9.154,1.226-14.197-7.118-19.449-12.979-4.172-4.994-8.854-12.89-3.812-18.841,8.554-7.626,22.931-9.151,27.193-21.054,1.831-8.015.871-16.418,2.161-24.523Z" style="fill: #cd493a;"/>
          <path d="M1764.839,385.525c11.946.867,25.392.359,35.297,8.224,6.093,5.114,10.445,15.79,3.151,21.921-11.856,8.613-27.763,11.454-41.6,6.071.33-7.476.72-14.983,1.231-22.459.69-4.576,1.381-9.151,1.921-13.757Z" style="fill: #f07b67;"/>
          <path d="M1932.858,392.673c14.347-2.153,29.804-1.077,42.77,5.862,7.954,4.725,14.827,17.645,6.603,25.151-17.828,14.445-44.241,16.329-64.351,5.563-6.663-4.187-14.167-11.783-11.015-20.336,3.242-11.155,15.908-14.415,25.992-16.239Z" style="fill: #ee7663;"/>
          <path d="M1347.43,416.179c9.064-18.751,34.156-28.65,53.185-19.26,8.734,3.798,15.337,10.856,21.55,17.824,14.797-10.138,34.606-10.407,50.424-2.422,14.827,8.523,23.801,25.002,23.771,41.988,12.636-1.256,23.951,4.127,33.346,12.142,9.214-4.725,18.939-12.86,29.954-8.733,14.977,4.994,18.129,26.317,8.194,37.472-13.837,15.252-35.957,21.772-56.157,21.024-71.104-.15-142.178-.09-213.251-.06-13.686,1.047-24.642-13.637-23.171-26.527.39-15.88,13.807-27.873,27.043-34.661,12.516-6.759,26.983-5.981,40.759-6.669-1.02-10.826-1.381-22.43,4.352-32.119Z" style="fill: #f7f7f2;"/>
          <path d="M1756.495,420.904c1.441-7.417,3.662-14.594,6.423-21.622-.51,7.476-.9,14.983-1.231,22.459-.6,16.747-.99,33.585,1.351,50.242-1.171.538-3.452,1.645-4.622,2.183-.51-5.592-.99-11.185-1.441-16.777-12.306,2.692-24.822.837-37.218.389.36-1.047,1.081-3.08,1.411-4.127-30.524,37.592-58.348,80.089-65.251,128.955-5.583,36.007,3.122,74.047,24.672,103.625,9.485,13.817,22.361,24.732,34.396,36.216l-1.891,3.2c-.81.987-2.431,2.991-3.242,3.978-35.027-25.061-60.209-64.537-64.741-107.602-4.382-40.164,8.074-80.358,27.403-115.258,18.399-34.302,48.893-61.607,61.259-99.169,1.411,4.396,2.821,8.822,4.262,13.248,6.123.03,12.276.06,18.459.06Z" style="fill: #3b1b15;"/>
          <path d="M2071.885,414.803c6.093-6.669,15.908-13.159,25.242-9.301,5.192,1.854,5.192,7.506,5.583,12.082-6.513-4.635-14.227-5.891-21.37-1.824,2.161,6.161,8.974,10.288,8.884,17.196,1.411,11.424-8.464,22.101-19.659,22.998-10.535-7.895,11.045-10.886,9.725-19.858,2.911-9.331-13.746-12.501-8.404-21.293Z" style="fill: #ca4033;"/>
          <path d="M942.538,422.908c18.399-11.454,45.592.658,50.424,21.503,7.234,26.228,14.137,52.545,20.32,79.042,30.855,4.994,61.919,8.763,92.654,14.534,3.782,18.572,10.655,36.426,13.476,55.207l-1.411.748c-9.275-4.366-19.719-4.366-29.684-5.891-41.06-5.503-81.699-13.787-122.908-18.213-13.686-2.392-28.514-2.273-40.969-8.972-5.613-17.226-7.354-35.618-15.037-52.156,10.385.359,20.65,2.273,30.915,3.918-.27-2.004-.87-5.981-1.171-7.955.87,2.991,1.801,5.951,2.761,8.942,7.564,1.316,15.187,2.363,22.841,3.11-8.164-31.043-20.29-61.487-22.211-93.816Z" style="fill: #c47644;"/>
          <path d="M1137.63,422.25c8.794-.598,18.549,7.506,16.508,16.987.06,11.903-16.508,17.854-24.912,9.839-10.505-7.716-4.052-25.57,8.404-26.826Z" style="fill: #f8fbf7;"/>
          <path d="M925.58,450.81c-3.422-12.561,9.484-20.157,16.958-27.903,1.921,32.329,14.047,62.773,22.211,93.816-7.654-.748-15.277-1.794-22.841-3.11-.96-2.991-1.891-5.951-2.761-8.942-4.232-18.033-9.815-35.738-13.566-53.861Z" style="fill: #8d4621;"/>
          <path d="M1804.517,454.04c34.907-8.673,71.104-2.034,106.341.778,5.973.09,11.586,2.183,16.628,5.353-16.568,10.527-36.677,12.381-55.797,13.607-16.898.449-34.396.837-50.604-4.606-7.654-2.213-12.456-8.822-16.568-15.132Z" style="fill: #fffefe;"/>
          <path d="M1655.917,582.606c6.903-48.867,34.726-91.363,65.251-128.955-.33,1.047-1.05,3.08-1.411,4.127-15.037,34.751-34.126,68.635-39.169,106.735-7.924,51.738,9.755,108.918,51.444,142.234-6.423,6.191-12.696,12.531-18.939,18.901l1.891-3.2c-12.036-11.484-24.912-22.4-34.396-36.216-21.55-29.577-30.254-67.618-24.672-103.625Z" style="fill: #f8cbba;"/>
          <path d="M1794.403,468.784c-.09-6.52,4.322-12.112,10.115-14.744,4.112,6.31,8.914,12.919,16.568,15.132,16.208,5.443,33.706,5.054,50.604,4.606,19.119-1.226,39.229-3.08,55.797-13.607.9,10.617-1.711,21.233-6.453,30.714-21.34-5.204-44.571-4.636-64.741,4.486-12.546,5.323-23.261,13.966-33.286,23.028-16.478-10.916-28.394-29.667-28.604-49.614Z" style="fill: #450707;"/>
          <path d="M2596.774,482.69c9.364-11.903,25.572-14.714,39.889-14.803,7.624,1.405,15.307,3.14,22.511,6.19,9.605,4.456,12.246,15.761,19.449,22.699,11.766,4.276,27.073-5.622,37.128,4.516,7.564,6.161,4.382,17.555-.15,24.613-6.603,9.57-18.939,13.996-30.254,13.458-11.826-2.692-23.741-6.609-36.047-5.264-15.577,1.017-29.924,7.686-45.141,10.377-7.444,1.166-15.667-3.619-16.718-11.364-2.521-17.017-2.341-36.545,9.335-50.422Z" style="fill: #44b796;"/>
          <path d="M2423.502,477.636c2.341-2.452,4.682-4.905,7.083-7.327,42.32,18.96,77.827,51.618,101.928,90.945,21.22,35.947,31.845,78.534,26.593,120.193-1.951,11.394-1.591,24.373-8.884,33.943-8.914.209-4.442-9.211-4.082-14.594,8.554-38.818,4.442-80.448-12.546-116.484-22.21-47.192-61.949-86.07-110.092-106.675Z" style="fill: #341612;"/>
          <path d="M1856.292,495.37c20.17-9.121,43.401-9.69,64.741-4.486-8.224,14.475-20.44,27.394-36.557,32.867-19.869,7.716-43.28,5.772-61.469-5.353,10.025-9.062,20.74-17.704,33.286-23.028Z" style="fill: #e2342c;"/>
          <path d="M882.059,528.207c8.764-6.968,17.768-13.667,27.343-19.499,7.684,16.538,9.425,34.93,15.037,52.156,12.456,6.699,27.283,6.579,40.969,8.972,41.21,4.426,81.849,12.71,122.908,18.213,9.965,1.525,20.41,1.525,29.684,5.891-4.052,2.064-8.044,4.097-12.126,6.011-3.632.299-7.233.359-10.835.179-67.232-10.078-134.614-19.409-201.906-29.248-3.872-14.175-7.203-28.501-11.075-42.676Z" style="fill: #924923;"/>
          <path d="M704.284,564.902c10.715-5.682,21.07-12.052,31.815-17.704l.36,2.004c4.592,26.497,12.876,52.156,18.819,78.354,67.562,263.353,134.254,526.946,202.296,790.15-1.021,1.166-3.062,3.439-4.082,4.606-8.254,5.772-16.538,11.514-25.182,16.688-1.171.329-3.512.987-4.682,1.316-23.021-92.051-46.072-184.102-69.513-276.034-9.785-42.676-21.04-85.023-31.695-127.49-26.262-106.496-52.975-212.932-79.718-319.338-8.824-32.119-15.037-64.896-24.402-96.896-3.872-18.751-9.605-37.024-14.017-55.655Z" style="fill: #c5c4c2;"/>
          <path d="M736.46,549.201c1.621.329,4.802.957,6.393,1.286,50.154,6.28,100.248,13.248,150.281,20.396,67.292,9.839,134.674,19.17,201.906,29.248,3.602.179,7.203.12,10.835-.179,53.005,8.493,106.371,15.103,159.556,22.549,7.894.658,6.873,11.275,9.154,16.927,8.374,38.1,17.588,75.992,26.323,114.002,4.172,17.046,8.644,34.093,10.295,51.618l-3.572-.837c-10.865-6.609-20.38-16.299-33.196-19.02-8.524,1.376-15.727,6.49-23.051,10.676-24.852,14.475-49.373,30.056-70.233,49.943-2.821,2.034-2.521,5.383-2.221,8.434,4.982,4.127,11.315,5.144,17.528,3.529l-1.441.299c-3.872.718-7.744,1.495-11.556,2.363-21.971,7.088-43.1,16.598-65.071,23.745-6.573-2.811-13.776-6.131-20.98-3.319-16.868,5.443-27.463,21.144-36.137,35.588,10.685-3.708,21.97-4.665,33.226-3.619,10.865,1.166,23.531-2.632,28.063-13.458.48-.748,1.441-2.243,1.921-2.991,24.342-2.213,47.573-10.437,71.734-13.607-1.501,11.604-2.701,23.267-2.551,34.96l2.851,1.914c4.862,1.286,10.085.718,13.476-3.409-.45,7.118,5.943,14.235,13.416,11.873,10.205-4.486,12.786-16.03,14.287-25.929,12.456,18.691,21.01,40.613,39.289,54.878,9.425,8.942,24.912,10.318,31.035,22.729,17.738,30.594,39.169,58.915,56.877,89.509.66,7.327,1.231,14.714,2.941,21.921,17.949,75.692,34.787,151.624,52.735,227.316,9.544,39.356,17.318,79.132,28.123,118.159-153.133-5.234-306.266-10.078-459.428-14.744-11.045-.209-22.061-.897-33.106-.449l-2.671.808c1.02-1.166,3.061-3.439,4.082-4.606-68.042-263.204-134.734-526.796-202.296-790.15-5.943-26.198-14.227-51.857-18.819-78.354ZM954.303,909.241c-5.493,12.591,2.311,25.57,1.141,38.519-1.771,30.714,20.29,54.668,34.937,79.461,9.905,15.94,9.334,35.05,10.865,53.023l-.66,1.645c1.201,11.215,6.003,21.532,12.786,30.474l.69-.149c20.32,22.699,51.174,31.371,73.715,51.409,19.239,18.572,23.921,45.816,28.003,70.997,2.341,15.252,10.055,32.269,26.142,36.964,7.804,2.871,16.568-2.213,18.519-10.138,4.952-16.149-1.111-33.315-9.755-47.072-14.017-21.951-29.234-43.693-49.434-60.5-6.603-5.682-12.936-11.663-19.479-17.376,15.788,5.652,33.406-2.542,48.683,5.353,13.596,5.383,22.991,16.867,33.346,26.617,2.581,3.529,11.766,3.828,10.265-2.422-3.542-10.168-11.585-17.854-16.058-27.514-2.491-4.307-1.501-10.288,2.551-13.218,8.314-.18,13.716,7.207,20.2,11.275,3.662,3.559,11.375,2.213,11.886-3.469,2.581-15.85-2.491-31.79-10.295-45.457-7.654-12.86-17.138-25.899-31.125-32.328-14.797-6.31-30.134,2.422-45.322,1.794l2.191-.718c1.201-12.112.63-24.284-1.621-36.246-2.851-10.198-7.264-20.216-14.767-27.902-13.446-15.342-33.556-22.19-48.293-36.007-12.786-11.514-6.153-32.149-18.819-43.872-11.676-10.826-24.191-24.403-41.36-24.613-13.296-.808-24.612,9.63-28.934,21.473Z" style="fill: #f6f6f1;"/>
          <path d="M1940.662,580.304c12.636-2.632,24.402-8.344,37.188-10.467-13.326,21.263-34.937,35.858-56.877,47.162-14.347,7.716-31.245,8.045-45.712,15.192,1.471-16.179,1.771-32.418,3.151-48.597,20.74.718,41.87,1.525,62.249-3.29Z" style="fill: #d5503f;"/>
          <path d="M718.301,620.557c9.364,32,15.577,64.777,24.402,96.896-11.946,2.931-25.122,7.297-31.245,18.901-4.052,5.921-2.761,13.278-1.201,19.828,25.032,100.933,49.944,201.926,74.615,302.979,1.651,6.849,2.971,13.757,4.292,20.725-34.276,83.707-66.272,168.342-100.638,252.019-15.367-32.179-26.383-66.182-34.396-100.873l-.54-3.14c-23.771-98.242-32.986-200.222-23.051-300.916,10.625-106.226,39.889-210.868,87.762-306.418Z" style="fill: #f7ccbc;"/>
          <path d="M534.374,626.359c14.977-6.908,35.027.748,39.919,16.867,6.753,15.671-3.422,35.499-20.26,38.818-18.519,5.204-40.819-11.005-38.388-30.773.66-11.065,8.974-20.366,18.729-24.912Z" style="fill: #f7faf5;"/>
          <path d="M2028.394,637.394c8.344,2.213,16.478,5.054,24.612,7.895-10.625,73.3-13.326,148.305-.36,221.515,14.317,77.517,40.759,152.551,75.396,223.279-50.814,1.166-101.538,6.789-150.942,19.02-44.721,10.736-89.443,25.899-126.93,53.173-12.696,9.929-25.842,23.985-24.161,41.3.45,11.843,11.135,18.661,21.94,19.977,26.022,3.619,52.105-4.067,78.187-1.047,3.182,5.204,6.363,10.407,9.575,15.641-18.789,17.316-44.121,23.626-67.682,31.611-18.849,6.34-43.551,20.516-39.889,43.753,4.892,21.353,24.822,34.302,42.68,44.5,60.719,32.089,131.313,40.164,199.115,36.426,45.141-3.02,90.313-10.976,132.843-26.646,10.415,102.428,20.62,204.887,33.316,307.076-54.326-1.645-108.712-1.406-163.038-2.572-9.214-.06-18.729-1.286-27.673,1.256-1.471,3.08-2.791,6.25-3.902,9.48-.931.987-2.761,2.961-3.662,3.948,1.171,1.974,2.401,3.948,3.662,5.951-1.021,1.525-2.011,3.08-2.941,4.665.75.688,2.281,2.093,3.031,2.811-1.651,2.363-3.302,4.755-4.892,7.177-30.975.449-61.98.06-92.954.299-5.312-.299-12.486,1.974-11.675,8.583-.75,7.806,9.424,7.058,14.587,8.164,65.911,5.024,131.613,12.411,197.524,17.495,17.588,2.123,35.297,3.559,53.035,3.14,14.857,1.645,29.804,1.465,44.751,1.346.21,2.153.6,6.4.81,8.553-101.598-1.077-203.287,1.047-304.915-.09-112.553-.359-225.107-.329-337.66-.329,4.772-53.741,14.377-107.004,26.743-159.46,16.178-66.063,38.028-130.54,54.356-196.543,13.206-47.76,24.702-96.507,26.233-146.211.3-41.659-1.081-83.318-3.902-124.828-.57-25.899-4.892-51.558-10.685-76.769-6.003-31.312-16.898-62.175-15.367-94.443,1.471-38.758,17.738-75.034,35.777-108.739,3.482-4.875,7.083-9.69,10.175-14.834,35.777-60.35,70.564-121.748,115.645-175.848,10.295-7.447,22.571-11.604,35.327-11.783-1.771,7.357-8.254,11.903-12.816,17.465-40.909,55.895-70.413,119.355-93.495,184.371,73.565.179,147.13-1.645,220.695-2.303,3.151-.598,10.745,1.226,9.515-4.576.63-48.747,7.053-97.225,15.968-145.105,3.902-19.409,7.293-39.027,14.047-57.749ZM1698.627,1394.917c.18,3.619-.51,9.869,5.102,8.703,33.976.867,68.012.628,101.988.628,5.012,2.004,7.954-6.669,2.491-6.908-36.497-1.136-73.025-2.123-109.582-2.422ZM1800.556,1459.574c-2.041,23.237-4.952,47.013-15.427,68.216-13.596,29.368-42.65,50.601-74.765,55.117-6.393-.538-8.824,9.032-.84,7.626,21.79-.897,42.38-11.514,58.708-25.45,28.904-26.617,39.469-67.319,40.009-105.329-1.921-.06-5.763-.15-7.684-.18ZM2035.417,1504.971c-38.988,52.725-90.283,94.922-143.828,132.245-4.112,2.183-6.003,5.951-5.493,10.647,15.637-5.293,27.793-17.106,41.36-26.048,41.99-31.282,81.309-66.87,112.493-109.068,3.122-4.934,8.104-9.869,6.723-16.239-4.952,1.047-8.494,4.486-11.255,8.463Z" style="fill: #486db0;"/>
          <path d="M2053.006,645.29c51.655.987,105.29,6.31,151.872,30.235,29.624,17.465,50.754,45.368,71.374,72.134,41.119,56.134,74.796,117.232,106.491,179.018,8.434,16.538,17.318,32.927,23.981,50.302-10.925,7.955-22.541,14.833-34.006,21.981-48.623,24.224-99.467,44.65-152.142,58.287-9.094,1.615-18.219,3.021-27.223,4.875-24.792-53.951-47.302-109.666-58.828-168.072-1.831,0-5.523.03-7.383.03,11.315,58.526,34.396,114.002,57.507,168.73,2.311.209,6.993.658,9.305.867.78,10.048.06,20.127-.57,30.175-21.7-2.333-43.551-3.14-65.341-3.768-34.636-70.728-61.079-145.762-75.396-223.279-12.966-73.21-10.265-148.215.36-221.515Z" style="fill: #f4c046;"/>
          <path d="M1780.686,674.209c18.579-8.463,38.778-12.172,58.468-17.136-45.081,54.1-79.868,115.498-115.645,175.848-.75-14.415,5.913-27.843,7.474-42.018-4.802-.09-8.134,2.452-8.764,7.177-4.352,16.239-9.995,32.598-8.884,49.674-18.039,33.704-34.306,69.98-35.777,108.739-1.531,32.269,9.364,63.132,15.367,94.443-36.617-19.529-70.323-43.813-104.48-67.169-6.393-7.566-16.298-11.125-22.361-18.841,1.651-7.148,6.303-13.039,9.785-19.349,17.769-31.042,35.267-62.264,53.726-92.918,25.572-41.749,48.623-85.382,80.258-123.034.81-.987,2.431-2.991,3.242-3.978,6.243-6.37,12.516-12.71,18.939-18.901,14.587-13.009,30.645-24.673,48.653-32.538Z" style="fill: #f6c246;"/>
          <path d="M1768.17,847.126c23.081-65.016,52.585-128.477,93.495-184.371-1.441,19.977.57,42.885,16.538,57.061,24.161,22.609,62.19,19.648,90.673,7.447,17.798-6.669,31.395-19.977,45.472-32.119-8.914,47.88-15.337,96.358-15.968,145.105,1.231,5.802-6.363,3.978-9.515,4.576-73.565.658-147.13,2.482-220.695,2.303Z" style="fill: #f5c146;"/>
          <path d="M582.006,705.192c6.063,1.585,7.594,8.224,10.385,13.009,4.562,10.288,12.816,20.217,10.835,32.209-.81,6.011-3.482,13.248-9.935,15.162-6.003.359-12.006-.239-17.948.239-11.225,3.529-17.798,16.897-30.224,17.017-5.973.269-5.883-6.849-4.862-10.916,3.992-12.83,18.009-17.615,26.533-26.856,10.865-10.497,15.637-24.972,15.217-39.865Z" style="fill: #f6c34b;"/>
          <path d="M2686.367,706.836c9.845-2.512,21.4-.06,27.913,8.164,10.025,11.813,4.532,30.773-7.413,39.087-13.506,9.331-31.185,6.998-45.532,14.385-21.971,11.454-36.317,33.555-46.042,55.625-7.864,17.316-5.943,37.203-13.386,54.609-1.921,3.23-5.192,10.916-9.965,6.699-2.191-12.381,5.372-24.314,3.091-36.755-1.2-12.979-10.295-22.938-17.408-33.166-4.262-4.994-5.553-12.471-1.05-17.734,6.843-10.019,20.23-7.596,30.674-9.002,17.979-.837,30.224-16.957,36.017-32.508,8.224-20.366,19.899-43.394,43.101-49.405Z" style="fill: #e3362c;"/>
          <path d="M711.458,736.354c6.123-11.604,19.299-15.97,31.245-18.901,26.743,106.406,53.456,212.842,79.718,319.338-.45,1.436-1.321,4.247-1.741,5.652-2.821-1.705-5.613-3.409-8.374-5.114-10.985,4.725-21.16,11.424-27.433,21.832-24.672-101.053-49.584-202.046-74.615-302.979-1.561-6.549-2.851-13.906,1.201-19.828Z" style="fill: #9b5028;"/>
          <path d="M1521.063,771.464c8.884-1.824,17.948-5.951,27.163-3.708,4.652,6.968-2.581,11.843-8.614,13.248-64.23,19.738-128.611,38.968-192.872,58.586-9.094,3.469-20.86,2.542-27.313,10.886-9.875-5.802-19.809-11.544-29.054-18.302,2.431-5.204,9.154-4.725,13.927-6.4,7.714-1.735,15.397-3.798,23.051-5.862,64.471-16.568,128.971-33.016,193.712-48.448Z" style="fill: #2e4a83;"/>
          <path d="M1722.218,798.08c.63-4.725,3.962-7.267,8.764-7.177-1.561,14.175-8.224,27.603-7.474,42.018-3.092,5.144-6.693,9.959-10.175,14.834-1.111-17.076,4.532-33.435,8.884-49.674Z" style="fill: #c27e2c;"/>
          <path d="M1259.338,815.665c15.397-6.729,30.345,6.191,44.961,10.108-4.772,1.675-11.495,1.196-13.927,6.4-9.484-7.088-21.04-10.347-31.035-16.508Z" style="fill: #d35546;"/>
          <path d="M1200.06,848.921c18.159-7.626,32.896-21.562,51.234-28.83-2.431,7.835-5.282,16.478-.75,24.164-18.219,3.768-36.257,8.284-54.086,13.517-6.213,1.615-12.546.598-17.528-3.529,6.813-2.662,14.077-3.469,21.13-5.323Z" style="fill: #ef8c74;"/>
          <path d="M1196.458,857.773c17.828-5.234,35.867-9.749,54.086-13.517,6.033,6.849,12.786,13.009,19.659,19.05-8.584,1.675-17.018,3.858-25.302,6.609-5.553,1.735-11.105,3.35-16.628,5.084-7.023,2.243-14.137,4.336-21.46,5.084,1.231-2.991,3.482-5.174,6.723-6.52-3.422-7.925-10.025-13.488-18.519-15.491l1.441-.299Z" style="fill: #324c84;"/>
          <path d="M1118.391,884.18c21.971-7.148,43.1-16.658,65.071-23.745-.63,7.596.33,15.162,1.981,22.609-20.47,4.546-40.789,10.437-61.769,12.232-.57-.987-1.651-2.991-2.221-4.007-.75-1.764-2.281-5.323-3.061-7.088Z" style="fill: #d8d8d8;"/>
          <path d="M1183.462,860.434c3.812-.867,7.684-1.645,11.556-2.363,8.494,2.004,15.097,7.566,18.519,15.491-3.242,1.346-5.493,3.529-6.723,6.52l.3.837c-3.632.658-7.263,1.286-10.895,1.854-24.161,3.17-47.392,11.394-71.734,13.607-.48.748-1.441,2.243-1.921,2.991-.27-2.004-.84-6.071-1.11-8.105.57,1.017,1.651,3.021,2.221,4.007,20.98-1.794,41.3-7.686,61.769-12.232-1.651-7.447-2.611-15.013-1.981-22.609Z" style="fill: #334771;"/>
          <path d="M1228.274,874.999c5.523-1.735,11.075-3.35,16.628-5.084-1.561,6.34-3.242,12.8-7.113,18.183-5.763-1.794-6.693-8.643-9.514-13.099Z" style="fill: #f3fdfa;"/>
          <path d="M1061.274,916.449c8.674-14.445,19.269-30.145,36.137-35.588,7.203-2.811,14.407.508,20.98,3.319.78,1.764,2.311,5.323,3.061,7.088.27,2.034.84,6.101,1.11,8.105-4.532,10.826-17.198,14.624-28.063,13.458-11.255-1.047-22.541-.09-33.226,3.619Z" style="fill: #db3227;"/>
          <path d="M1196.218,882.774c3.632-.568,7.264-1.196,10.895-1.854,8.854,13.906-1.561,28.231-10.595,38.728l-2.851-1.914c-.15-11.693,1.05-23.357,2.551-34.96Z" style="fill: #f08268;"/>
          <path d="M1285.991,883.223c8.584,3.619,4.172,15.073,6.333,22.25.27,13.877,9.965,24.134,15.667,35.917-3.872-.538-8.314-.867-10.475-4.606-11.886-14.953-14.137-35.2-11.525-53.562Z" style="fill: #d24636;"/>
          <path d="M954.303,909.241c4.322-11.843,15.637-22.28,28.934-21.473,17.168.209,29.684,13.787,41.36,24.613,12.666,11.723,6.033,32.359,18.819,43.872,14.737,13.817,34.847,20.665,48.293,36.007,7.503,7.686,11.916,17.704,14.767,27.902-3.962-2.452-7.894-4.934-11.826-7.387-6.483,6.849-12.816,14.684-22.511,16.957-.09,3.11-.15,6.28-.21,9.45-8.014-8.075-15.307-17.525-25.572-22.788-7.083-3.409-11.225,5.383-12.216,10.886-2.311,8.344-2.791,17.047-3.242,25.659-8.614,2.303-17.018,5.263-25.152,8.882-.78,6.28-1.711,12.65-4.502,18.422-1.531-17.974-.961-37.084-10.865-53.023-14.647-24.792-36.708-48.747-34.937-79.461,1.171-12.949-6.633-25.929-1.141-38.519Z" style="fill: #e4352b;"/>
          <path d="M2593.413,892.404c17.468-6.4,39.769,8.613,36.227,28.022-1.321,22.25-32.205,30.684-46.852,15.282-16.088-12.082-7.624-38.459,10.625-43.304Z" style="fill: #48bb9b;"/>
          <path d="M2127.141,894.079c1.861,0,5.553-.03,7.383-.03,11.525,58.407,34.036,114.122,58.828,168.072l.6,1.555c-2.311-.209-6.993-.658-9.305-.867-23.111-54.728-46.192-110.204-57.507-168.73Z" style="fill: #ba6a38;"/>
          <path d="M1588.445,983.767c34.156,23.357,67.862,47.64,104.48,67.169,5.793,25.211,10.115,50.87,10.685,76.769-10.085,13.936-19.209,28.56-28.814,42.855-.81-4.576-1.471-9.181-.961-13.787,3.812-42.108-11.075-85.053-38.598-117.023-14.437-19.05-31.185-36.097-48.863-52.126l2.071-3.858Z" style="fill: #d94e3e;"/>
          <path d="M2220.575,1057.247c52.675-13.637,103.519-34.063,152.142-58.287l1.201,4.994c-.33,3.559-1.831,6.43-4.562,8.613-41.03,33.405-90.253,55.296-140.557,70.758-2.851-8.673-5.553-17.375-8.224-26.078Z" style="fill: #d84d3d;"/>
          <path d="M2373.918,1003.954c10.835,40.493,21.25,81.315,25.932,123.064,2.341,21.832,6.333,43.603,5.463,65.644-.48,21.772-1.891,45.936-17.288,62.982-13.897,15.013-31.935,27.663-52.555,30.773,16.658-22.579,33.076-48.089,32.385-77.248,2.701-25.809-10.235-52.096-31.125-67.229-29.714-22.37-66.181-33.286-102.019-41.42-2.071-5.742-4.052-11.454-5.913-17.196,50.304-15.461,99.527-37.353,140.557-70.758,2.731-2.183,4.232-5.054,4.562-8.613Z" style="fill: #f68a72;"/>
          <path d="M1072.139,1029.733c9.695-2.273,16.028-10.108,22.511-16.957,3.932,2.452,7.864,4.934,11.826,7.387,2.251,11.963,2.821,24.134,1.621,36.246l-2.191.718c-1.291.389-3.902,1.166-5.223,1.555-13.386,2.542-20.53-11.663-28.754-19.499.06-3.17.12-6.34.21-9.45Z" style="fill: #e43f32;"/>
          <path d="M1034.141,1027.281c.99-5.503,5.132-14.295,12.216-10.886,10.265,5.263,17.558,14.714,25.572,22.788,8.224,7.835,15.367,22.041,28.754,19.499-6.843,1.764-14.077,5.234-21.13,2.692-16.508-7.566-26.503-26.228-45.442-28.83,0-1.316.03-3.948.03-5.263Z" style="fill: #f6f5ef;"/>
          <path d="M1030.9,1052.94c.45-8.613.931-17.316,3.242-25.659,0,1.316-.03,3.948-.03,5.263-1.081,21.144,1.531,43.005,12.546,61.517-9.244,8.434-19.809,16.389-32.596,18.153l-.69.149c-6.783-8.942-11.586-19.26-12.786-30.474l.66-1.645c2.791-5.772,3.722-12.142,4.502-18.422,8.134-3.619,16.538-6.579,25.152-8.882Z" style="fill: #e63d31;"/>
          <path d="M1034.111,1032.544c18.939,2.602,28.934,21.263,45.442,28.83,7.053,2.542,14.287-.927,21.13-2.692,1.321-.389,3.932-1.166,5.223-1.555,15.187.628,30.524-8.105,45.322-1.794,13.987,6.43,23.471,19.469,31.125,32.328,7.804,13.667,12.876,29.607,10.295,45.457-.51,5.682-8.224,7.028-11.886,3.469-6.483-4.067-11.886-11.454-20.2-11.275-4.052,2.931-5.042,8.912-2.551,13.218,4.472,9.66,12.516,17.345,16.058,27.514,1.501,6.25-7.684,5.951-10.265,2.422-10.355-9.749-19.749-21.233-33.346-26.617-15.277-7.895-32.896.299-48.683-5.353-13.747-12.262-25.212-26.975-35.117-42.437-11.015-18.512-13.626-40.373-12.546-61.517Z" style="fill: #f6c244;"/>
          <path d="M784.873,1059.161c6.273-10.407,16.448-17.106,27.433-21.832,2.761,1.705,5.553,3.409,8.374,5.114.42-1.406,1.291-4.217,1.741-5.652,10.655,42.467,21.91,84.814,31.695,127.49-4.682,8.105.48,16.777.18,25.301-3.422,10.647-16.958,9.779-25.992,11.155-3.211-1.017-6.423-2.034-9.604-3.08-1.561-6.191-3.452-12.291-4.862-18.512-4.772-26.766-12.486-52.904-18.519-79.401-1.471-6.819-3.692-13.398-6.153-19.858-1.321-6.968-2.641-13.876-4.292-20.725Z" style="fill: #a4572d;"/>
          <path d="M2193.352,1062.121c9.004-1.854,18.129-3.26,27.223-4.875,2.671,8.703,5.373,17.405,8.224,26.078,1.861,5.742,3.842,11.454,5.913,17.196-13.656-2.991-27.493-4.935-41.33-6.669.63-10.048,1.351-20.127.57-30.175l-.6-1.555Z" style="fill: #f9ccc2;"/>
          <g>
            <path d="M2775.449,1139.01c-26.082-15.103-20.05-58.646,8.494-67.169,9.905-.718,21.34,1.645,27.433,10.258,11.556,15.82,7.504,40.074-8.014,51.887-7.414,7.058-18.519,7.596-27.913,5.024Z" style="fill: #e4372d;"/>
            <path d="M1101.253,1153.873c20.2,16.807,35.417,38.549,49.434,60.5,8.644,13.757,14.707,30.923,9.755,47.072-1.951,7.925-10.715,13.009-18.519,10.138-16.088-4.695-23.801-21.712-26.142-36.964-4.082-25.181-8.764-52.425-28.003-70.997,4.472-3.26,8.974-6.52,13.476-9.749Z" style="fill: #e4372d;"/>
          </g>
          <path d="M789.165,1079.886c2.461,6.46,4.682,13.039,6.153,19.858,6.033,26.497,13.747,52.635,18.519,79.401-16.838,39.865-31.995,80.418-48.893,120.282-4.472-13.039-5.222-28.142-14.227-39.057-4.142-4.097-8.194.897-11.165,3.678-8.374,9.032-15.757,21.054-11.976,33.764.81,7.746,1.981,15.461,3.482,23.147,1.621,19.828-1.621,39.745-3.212,59.543-.66,6.31-1.351,12.65-1.741,19.05-6.453,10.168-9.664,21.832-14.407,32.777-4.502,10.198-8.914,21.353-4.982,32.508-9.785-36.814-19.209-73.719-28.123-110.742,3.752-7.207,7.023-14.624,9.935-22.19,34.366-83.677,66.361-168.312,100.638-252.019Z" style="fill: #914823;"/>
          <path d="M1546.875,1081.291c8.524.12,12.546,8.523,17.198,14.355,5.853,9.121,13.266,18.063,14.407,29.278-9.244,1.376-9.935-9.092-13.747-14.863-4.682-10.407-14.287-17.824-17.859-28.77Z" style="fill: #d0503b;"/>
          <path d="M2128.041,1090.083c21.79.628,43.641,1.436,65.341,3.768,13.837,1.735,27.673,3.678,41.33,6.669,35.837,8.134,72.304,19.05,102.019,41.42,20.89,15.132,33.826,41.42,31.125,67.229-6.603,15.043-10.415,31.521-20.38,44.919-22.15,29.816-50.964,54.399-83.049,73.091-56.157,28.59-117.776,46.594-180.596,52.575-54.776,5.293-111.053,2.901-163.788-13.667-26.142-8.792-52.645-18.901-74.075-36.665-6.333-4.905-10.205-12.8-17.828-15.91-3.662-23.237,21.04-37.413,39.889-43.753,23.561-7.985,48.893-14.295,67.682-31.611,3.091-2.662,6.033-5.503,8.974-8.374,21.37-6.849,47.002-6.52,63.39-24.015,8.914-8.224,10.085-24.164-.12-31.82-12.426-7.716-26.593-.06-38.508,4.725-18.819-1.944-37.818,1.435-55.376,8.194-4.292,1.077-6.393,4.725-6.663,8.942,11.826-4.396,23.861-8.792,36.648-9.211-8.944,5.413-14.557,14.295-18.219,23.805-24.071-3.589-47.933,3.858-72.064,2.422-10.055.03-18.729-5.652-27.763-9.241-1.681-17.316,11.465-31.371,24.161-41.3,37.488-27.274,82.209-42.437,126.93-53.173,49.404-12.232,100.128-17.854,150.942-19.02ZM2194.223,1128.872c-6.813,3.559-2.551,15.761-11.225,17.794-6.903,2.243-16.058,8.404-12.246,16.777,7.954,6.101,18.729,7.357,28.454,8.733,7.684-2.632,15.517-6.28,23.711-2.871,12.306,4.157,27.793-.359,33.766-12.381,2.221-8.015,2.911-18.033-3.211-24.583-8.524-6.699-20.2-5.921-30.434-5.891-9.605.478-19.569-.718-28.814,2.422ZM2271.93,1179.293c-9.184,1.555-12.426,11.125-18.759,16.598-4.892,5.383-13.987,11.006-10.745,19.529,5.613,6.998,14.977,7.626,23.051,9.749,6.063.508,7.233,7.267,9.815,11.604,7.264.897,14.827.09,21.43-3.349,8.164-3.918,18.369-9.062,18.879-19.349,1.891-6.998-2.341-12.8-5.493-18.542-1.351-6.31,1.861-15.491-5.793-18.602-10.505-4.037-22.03-.09-32.385,2.363ZM2217.964,1256.9c-11.405,1.555-9.875,18.691-21.82,19.17-9.695,1.196-18.309,8.792-19.599,18.602-2.761,11.962,11.225,21.174,22.031,19.2,13.086-2.811,26.503-3.2,39.649-5.533,8.794-1.615,8.614-12.531,12.996-18.572,4.922-7.327,12.726-17.106,5.193-25.48-10.445-8.762-25.632-8.224-38.448-7.387ZM1948.016,1283.845c-9.574,5.234-19.719,8.912-30.254,11.633-16.208,6.759-15.547,32.687.72,38.938,13.026,7.118,26.563-4.336,40.069-1.465,9.424,1.764,20.11,1.735,27.613-5.144,7.474-6.669,13.897-19.319,6.273-28.142-4.712-7.417-14.077-7.237-21.64-8.733-7.834-1.675-14.317-10.019-22.781-7.088ZM2069.423,1299.666c-6.753,3.529-4.592,11.484-3.692,17.495-10.985,4.605-29.594,14.475-20.47,28.8,16.268,7.088,35.657,11.125,52.615,3.738,9.935-4.187,24.612-6.878,26.533-19.559-.66-8.104-10.535-9.301-14.137-15.192-.03-5.921,4.082-13.069-.93-17.944-11.345-10.407-28.543-4.665-39.919,2.662Z" style="fill: #c17544;"/>
          <path d="M1014.062,1112.214c12.786-1.764,23.351-9.719,32.596-18.153,9.905,15.461,21.37,30.175,35.117,42.437,6.543,5.712,12.876,11.693,19.479,17.376-4.502,3.23-9.004,6.49-13.476,9.749-22.541-20.037-53.395-28.71-73.715-51.409Z" style="fill: #e32c27;"/>
          <path d="M2194.223,1128.872c9.244-3.14,19.209-1.944,28.814-2.422,10.235-.03,21.91-.808,30.434,5.891,6.123,6.549,5.432,16.568,3.211,24.583-5.973,12.022-21.46,16.538-33.766,12.381-8.194-3.409-16.028.239-23.711,2.871-9.725-1.376-20.5-2.632-28.454-8.733-3.812-8.374,5.343-14.534,12.246-16.777,8.674-2.034,4.412-14.235,11.225-17.794Z" style="fill: #4468ab;"/>
          <path d="M2427.914,1241.917c-20.56-26.048-19.359-63.61-2.731-91.303,8.644,23.297,31.995,39.596,33.916,65.614-.06,6.908,2.761,16.807-4.832,20.725-6.123,1.256-12.216,2.482-18.309,3.589-2.011.329-6.033,1.017-8.044,1.376Z" style="fill: #3e1b15;"/>
          <path d="M2572.433,1225.02c-18.039-24.015-3.602-56.463,15.547-75.094,5.883,13.817,13.446,27.573,13.987,42.915.54,10.617-3.422,20.665-5.493,30.893-7.774.18-15.517.329-23.201,1.137l-.84.149Z" style="fill: #a9512d;"/>
          <path d="M854.296,1189.581c.3-8.523-4.862-17.196-.18-25.301,23.441,91.931,46.492,183.983,69.513,276.034,1.171-.329,3.512-.987,4.682-1.316,3.452,1.346,6.903,2.751,10.355,4.187-16.538,5.024-31.365,14.504-48.203,18.572-2.011-2.363-3.692-4.935-5.042-7.716-.78.718-2.341,2.183-3.122,2.931-6.453-27.843-13.747-55.476-19.749-83.408-1.471-6.699-3.542-13.248-6.093-19.618,2.041-7.925,6.213-15.043,11.015-21.622,7.323-9.51,11.225-20.964,14.407-32.358-12.276-3.29-25.422-1.436-35.747,6.161-9.995-35.947-18.699-72.223-27.433-108.469,3.181,1.047,6.393,2.064,9.604,3.08,9.034-1.376,22.571-.508,25.992-11.155Z" style="fill: #9d5028;"/>
          <path d="M1969.446,1178.665c11.916-4.785,26.082-12.441,38.508-4.725,10.205,7.656,9.034,23.596.12,31.82-16.388,17.495-42.02,17.166-63.39,24.015-.36-5.383-.63-10.706-.901-16.03-6.063-.957-12.036-1.914-17.948-3.35,3.662-9.51,9.274-18.392,18.219-23.805,9.034-.449,17.618-3.379,25.392-7.925Z" style="fill: #f78f76;"/>
          <path d="M2271.93,1179.293c10.355-2.452,21.88-6.4,32.385-2.363,7.654,3.11,4.442,12.291,5.793,18.602,3.151,5.742,7.383,11.544,5.493,18.542-.51,10.288-10.715,15.432-18.879,19.349-6.603,3.439-14.167,4.247-21.43,3.349-2.581-4.336-3.752-11.095-9.815-11.604-8.074-2.123-17.438-2.751-23.051-9.749-3.241-8.523,5.853-14.146,10.745-19.529,6.333-5.473,9.575-15.043,18.759-16.598Z" style="fill: #248e6b;"/>
          <path d="M1914.069,1186.86c17.558-6.759,36.557-10.138,55.376-8.194-7.774,4.546-16.358,7.477-25.392,7.925-12.786.419-24.822,4.815-36.648,9.211.27-4.217,2.371-7.865,6.663-8.942Z" style="fill: #7d461d;"/>
          <path d="M813.837,1179.144c1.411,6.22,3.301,12.321,4.862,18.512,8.734,36.246,17.438,72.522,27.433,108.469-4.922,7.148-7.774,15.372-11.646,23.087-.24,2.781-.33,5.593-.33,8.434l1.02,1.764c.9.329,2.701,1.017,3.572,1.346-4.202,2.572-5.733,7.297-7.354,11.663-4.232,11.992-10.775,23.028-14.647,35.17-14.137,32.089-27.343,64.597-40.909,96.956-10.565-10.676-15.127-25.51-25.152-36.635.09-22.071.66-44.141.84-66.212-.06-17.286-.27-34.572.24-51.857,5.253-9.032,9.184-18.751,12.546-28.65l.63-1.764c16.898-39.865,32.055-80.418,48.893-120.282Z" style="fill: #f6cdbd;"/>
          <path d="M610.43,1237.581c-6.003-17.854-.931-39.386,14.827-50.601,8.314,14.175,22.631,25.241,25.842,41.988-8.194,5.832-17.438,3.678-25.182-1.645-5.283,3.23-10.415,6.669-15.487,10.258Z" style="fill: #4664a2;"/>
          <path d="M1826.008,1203.577c9.034,3.589,17.708,9.271,27.763,9.241,24.131,1.435,47.993-6.011,72.064-2.422.12,4.007.21,8.045.3,12.112-26.082-3.021-52.165,4.665-78.187,1.047-10.805-1.316-21.49-8.135-21.94-19.977Z" style="fill: #904a21;"/>
          <path d="M2601.846,1240.392c-7.203-14.026,6.663-26.616,11.405-39.117,2.551,6.43,5.373,12.77,7.864,19.26,6.303,12.291-5.372,23.476-7.083,35.498-1.441-.598-4.352-1.794-5.793-2.422-2.311-4.336-4.382-8.762-6.393-13.218Z" style="fill: #381912;"/>
          <path d="M2480.199,1241.349c-1.531-13.009,5.103-24.882,9.305-36.755,6.153,8.493,13.176,16.747,16.268,26.975-8.284,3.858-16.838,7.148-25.572,9.779Z" style="fill: #451b0f;"/>
          <path d="M1925.835,1210.396c5.913,1.435,11.886,2.392,17.948,3.35.27,5.323.54,10.647.901,16.03-2.941,2.871-5.883,5.712-8.974,8.374-3.212-5.234-6.393-10.437-9.575-15.641-.09-4.067-.18-8.105-.3-12.112Z" style="fill: #da533e;"/>
          <path d="M2347.476,1254.089c9.965-13.398,13.777-29.876,20.38-44.919.69,29.158-15.727,54.668-32.385,77.248-24.252,25.091-52.915,45.398-84.04,61.158.24,4.516.51,9.092.75,13.667-.57-4.546-1.171-9.062-1.711-13.548-15.788,6.968-31.485,14.176-47.693,20.097-42.53,15.671-87.702,23.626-132.843,26.646-67.802,3.738-138.396-4.336-199.115-36.426-17.858-10.198-37.788-23.147-42.68-44.5,7.624,3.11,11.495,11.006,17.828,15.91,21.43,17.764,47.933,27.872,74.075,36.665,52.735,16.568,109.012,18.96,163.788,13.667,62.82-5.981,124.439-23.985,180.596-52.575,32.085-18.691,60.899-43.274,83.049-73.091Z" style="fill: #924b23;"/>
          <path d="M2572.433,1225.02l.84-.149c-.09,22.37-4.772,44.41-4.112,66.72,9.875.568,19.84.987,29.774,1.017l-.84.748c-10.205.598-20.44-.06-30.524-1.226,0,3.499,0,7.028.03,10.557,10.235,0,20.47.179,30.735.09.69,54.968-2.851,109.875-4.802,164.783-9.034.09-18.099.269-27.103.12-.57-51.827-.84-103.684.36-155.512-2.221-20.934,3.092-41.629,3.692-62.504.15-8.254.9-16.478,1.951-24.643Z" style="fill: #264279;"/>
          <path d="M2573.273,1224.87c7.684-.807,15.427-.957,23.201-1.137.75,22.968,2.641,45.876,2.461,68.874-9.935-.03-19.9-.449-29.774-1.017-.66-22.31,4.022-44.351,4.112-66.72Z" style="fill: #dce0e1;"/>
          <path d="M610.43,1237.581c5.072-3.589,10.205-7.028,15.487-10.258,7.744,5.323,16.988,7.476,25.182,1.645l2.491-1.077.54,3.14c.09,7.058-.45,14.146-1.171,21.203-2.971.867-5.913,1.735-8.854,2.632-6.303,1.764-12.546,3.828-18.879,5.503-7.864-3.469-10.625-15.252-14.797-22.788Z" style="fill: #bb7342;"/>
          <path d="M654.131,1231.031c8.014,34.691,19.029,68.694,34.396,100.873-2.911,7.566-6.183,14.983-9.935,22.19-2.941-10.437-5.613-20.934-9.064-31.162-4.022-10.826-5.643-22.37-10.475-32.867-2.701-11.753-5.222-23.536-8.704-35.05-1.561-.03-4.682-.12-6.243-.149,2.941-.897,5.883-1.765,8.854-2.632.72-7.058,1.261-14.146,1.171-21.203Z" style="fill: #ee8f75;"/>
          <path d="M2480.199,1241.349c8.734-2.632,17.288-5.921,25.572-9.779.39,8.673-.12,17.525-3.422,25.689-4.592.419-9.154.867-13.657,1.376-3.662-5.353-6.573-11.125-8.494-17.286Z" style="fill: #6b311c;"/>
          <path d="M2435.958,1240.541c6.093-1.107,12.186-2.333,18.309-3.589,7.924,29.816,19.149,58.616,29.204,87.745-6.813,1.884-13.596,3.978-20.38,5.832-5.973,2.452-16.568-1.017-11.556-8.553,8.914-3.978,18.789-5.084,28.033-8.194-9.665-3.978-19.929,1.017-29.564,2.512-5.913-25.031-6.333-51.11-14.047-75.752Z" style="fill: #e0e3e4;"/>
          <path d="M2427.914,1241.917c2.011-.359,6.033-1.047,8.044-1.376,7.714,24.643,8.134,50.721,14.047,75.752,9.635-1.495,19.899-6.49,29.564-2.512-9.244,3.11-19.119,4.217-28.033,8.194-5.012,7.536,5.583,11.005,11.556,8.553-4.202,1.136-8.464,2.273-12.576,3.469-9.635-30.175-14.737-61.487-22.601-92.081Z" style="fill: #b0aba8;"/>
          <path d="M2601.846,1240.392c2.011,4.456,4.082,8.882,6.393,13.218,1.441.628,4.352,1.824,5.793,2.422,5.433,10.378,2.521,22.609,3.211,33.824-4.982-.12-9.875-.329-14.767-.299.33-16.359,1.561-32.867-.63-49.166Z" style="fill: #cbdcea;"/>
          <path d="M2663.736,1285.58c-3.001-20.366,14.827-34.243,28.844-45.607,2.251,10.168,5.253,20.217,6.333,30.594,1.201,11.723-5.222,22.37-12.096,31.312-6.693-1.645-13.506-2.811-20.29-3.768-1.441,6.938-3.151,13.846-4.802,20.785,2.371-11.005,4.862-22.131,2.011-33.315Z" style="fill: #411c14;"/>
          <path d="M547.34,1241.857c15.217,8.583,31.155,21.652,32.956,40.224.15,4.067,1.621,9.6-2.191,12.56-5.163,2.123-10.355,4.217-15.427,6.579-19.299-12.86-16.298-39.267-15.337-59.364Z" style="fill: #d83127;"/>
          <path d="M625.227,1260.369c6.333-1.675,12.576-3.738,18.879-5.503,1.561.03,4.682.12,6.243.149,3.482,11.514,6.003,23.297,8.704,35.05.75,7.028,1.501,14.086,2.401,21.114-7.354,2.662-14.767,5.174-22.211,7.506-5.283-19.29-9.815-38.788-14.017-58.317Z" style="fill: #d6dadb;"/>
          <path d="M2217.964,1256.9c12.816-.837,28.003-1.376,38.448,7.387,7.534,8.374-.27,18.153-5.193,25.48-4.382,6.041-4.202,16.957-12.996,18.572-13.146,2.333-26.563,2.721-39.649,5.533-10.805,1.974-24.792-7.237-22.031-19.2,1.291-9.809,9.905-17.405,19.599-18.602,11.946-.479,10.415-17.615,21.82-19.17Z" style="fill: #40b99a;"/>
          <path d="M739.551,1264.047c2.971-2.781,7.023-7.776,11.165-3.678,9.004,10.916,9.755,26.018,14.227,39.057l-.63,1.764c-6.003.149-11.976.329-17.948.538-3.032-2.333-6.003-4.636-8.974-6.908-3.302.987-6.573,1.974-9.815,2.991-3.782-12.71,3.602-24.732,11.976-33.764Z" style="fill: #371b1c;"/>
          <path d="M2488.693,1258.635c4.502-.508,9.064-.957,13.657-1.376,3.572,19.648,8.884,38.938,12.786,58.556-7.504,1.376-15.037,2.482-22.511,3.559-1.741-20.217-3.001-40.493-3.932-60.739Z" style="fill: #dfe1e2;"/>
          <path d="M1948.016,1283.845c8.464-2.931,14.947,5.413,22.781,7.088,7.564,1.495,16.928,1.316,21.64,8.733,7.624,8.822,1.201,21.473-6.273,28.142-7.504,6.878-18.189,6.908-27.613,5.144-13.506-2.871-27.043,8.583-40.069,1.465-16.268-6.25-16.928-32.179-.72-38.938,10.535-2.721,20.68-6.4,30.254-11.633Z" style="fill: #de332a;"/>
          <path d="M2602.477,1289.557c4.892-.03,9.785.179,14.767.299.6,59.094-3.302,118.129-7.383,177.074,4.982-.239,10.025-.449,15.097-.628l-.24,1.256c-10.415-.239-20.8-.15-31.185,0,1.951-54.908,5.493-109.815,4.802-164.783-.06-2.363-.18-7.058-.24-9.42l.84-.748c.9-.748,2.641-2.273,3.542-3.05Z" style="fill: #b16d3c;"/>
          <path d="M659.053,1290.066c4.832,10.497,6.453,22.041,10.475,32.867-8.914,2.243-18.009,3.888-26.653,7.058.12,1.435.3,4.277.39,5.682-2.041-5.503-2.761-11.334-4.022-16.987,7.444-2.333,14.857-4.845,22.211-7.506-.9-7.028-1.651-14.086-2.401-21.114Z" style="fill: #c5c5c5;"/>
          <path d="M2069.423,1299.666c11.375-7.327,28.574-13.069,39.919-2.662,5.012,4.875.9,12.022.93,17.944,3.602,5.891,13.476,7.088,14.137,15.192-1.921,12.68-16.598,15.372-26.533,19.559-16.958,7.387-36.347,3.35-52.615-3.738-9.124-14.325,9.484-24.194,20.47-28.8-.9-6.011-3.061-13.966,3.692-17.495Z" style="fill: #dd2f28;"/>
          <path d="M562.677,1301.221c5.072-2.363,10.265-4.456,15.427-6.579l2.401-.957c6.273,17.884,15.608,34.482,23.201,51.827-6.933,3.589-14.017,6.819-21.25,9.69-6.453-18.033-11.345-36.725-19.779-53.981Z" style="fill: #d2d8d9;"/>
          <path d="M727.575,1297.811c3.242-1.017,6.513-2.004,9.815-2.991,2.971,2.273,5.943,4.576,8.974,6.908,5.973-.209,11.946-.389,17.948-.538-3.362,9.899-7.293,19.618-12.546,28.65-.6-2.422-1.861-7.327-2.491-9.749-6.093.149-12.186.419-18.219.867-1.501-7.686-2.671-15.402-3.482-23.147Z" style="fill: #b16837;"/>
          <path d="M2567.6,1302.686c-.03-3.529-.03-7.058-.03-10.557,10.085,1.166,20.32,1.824,30.524,1.226.06,2.363.18,7.058.24,9.42-10.265.09-20.5-.09-30.735-.09Z" style="fill: #d1d4d0;"/>
          <path d="M846.132,1306.125c10.325-7.596,23.471-9.45,35.747-6.161-3.181,11.394-7.083,22.848-14.407,32.358-6.423-6.25-12.876-12.441-19.299-18.691-3.272,5.174-6.873,10.138-11.075,14.624-.69,3.678-1.321,7.417-1.921,11.155l-1.02-1.764c0-2.841.09-5.652.33-8.434,3.872-7.716,6.723-15.94,11.646-23.087Z" style="fill: #3b1e1d;"/>
          <path d="M2666.527,1298.111c6.783.957,13.596,2.123,20.29,3.768-5.613,19.738-5.282,40.942-13.987,59.842-7.173-2.064-12.696,4.037-19.419,2.632.78-11.693,2.401-23.327,3.182-35.02.81-.15,2.491-.508,3.332-.658.51-3.29,1.11-6.549,1.801-9.779,1.651-6.938,3.362-13.847,4.802-20.785Z" style="fill: #dfe3e5;"/>
          <path d="M837.097,1328.256c4.202-4.486,7.804-9.45,11.075-14.624,6.423,6.25,12.876,12.441,19.299,18.691-4.802,6.579-8.974,13.697-11.015,21.622-7.023,6.131-7.654,15.701-9.995,24.074,1.201-7.536,3.542-14.893,3.722-22.549,1.981-2.422,4.022-4.785,6.123-7.058-5.432-3.409-11.435-5.802-17.558-7.656-.87-.329-2.671-1.017-3.572-1.346.6-3.738,1.231-7.476,1.921-11.155Z" style="fill: #b46b36;"/>
          <path d="M2492.625,1319.374c7.474-1.077,15.007-2.183,22.511-3.559,11.045,50.332,20.23,101.053,28.604,151.893-7.414.508-14.797.568-22.181.329-2.911-14.863-6.603-29.547-10.745-44.082-6.093-34.871-12.996-69.562-18.189-104.582Z" style="fill: #2a4377;"/>
          <path d="M731.057,1320.959c6.033-.449,12.126-.718,18.219-.867.63,2.422,1.891,7.327,2.491,9.749-.51,17.286-.3,34.571-.24,51.857-7.894-.299-15.787-.718-23.681-1.196,1.591-19.798,4.832-39.715,3.212-59.543Z" style="fill: #d2d9da;"/>
          <path d="M642.875,1329.99c8.644-3.17,17.738-4.815,26.653-7.058,3.452,10.228,6.123,20.725,9.064,31.162,8.914,37.024,18.339,73.928,28.123,110.742,1.681,6.699,3.632,13.338,5.403,20.037-9.725.568-19.449,1.406-29.204.778-6.603-28.142-15.547-55.655-22.751-83.647-5.733-22.101-10.895-44.321-16.898-66.332-.09-1.406-.27-4.247-.39-5.682Z" style="fill: #2b477f;"/>
          <path d="M2463.091,1330.529c6.783-1.854,13.566-3.948,20.38-5.832,10.115,32.807,16.418,66.721,27.343,99.258,4.142,14.534,7.834,29.218,10.745,44.082-9.485-.239-18.969.179-28.394-.06-2.461-.09-7.324-.299-9.755-.389-11.496-44.381-22.031-89.031-32.896-133.591,4.112-1.196,8.374-2.333,12.576-3.469Z" style="fill: #da342a;"/>
          <path d="M831.395,1352.42c1.621-4.366,3.151-9.092,7.354-11.663,6.123,1.854,12.126,4.247,17.558,7.656-2.101,2.273-4.142,4.635-6.123,7.058-.18,7.656-2.521,15.013-3.722,22.549-1.231,6.28-3.602,12.262-6.543,17.944-7.684-2.931-15.427-5.712-23.171-8.374,3.872-12.142,10.415-23.177,14.647-35.17Z" style="fill: #d4d9dd;"/>
          <path d="M603.707,1345.512c2.071,4.247,4.202,8.463,6.363,12.71-7.474,2.213-14.797,4.875-21.85,8.164.18,1.256.57,3.828.75,5.084-2.221-5.413-4.382-10.826-6.513-16.269,7.233-2.871,14.317-6.101,21.25-9.69Z" style="fill: #d5cfd3;"/>
          <path d="M2202.777,1367.792c16.208-5.921,31.905-13.129,47.693-20.097.54,4.486,1.141,9.002,1.711,13.548-7.113,2.064-14.347,3.648-21.58,4.994,27.193,54.429,51.414,110.952,64.561,170.525,10.895,45.637,13.386,92.769,10.655,139.482-23.261-.179-46.492-.927-69.723-1.376-12.696-102.189-22.901-204.648-33.316-307.076Z" style="fill: #17243b;"/>
          <path d="M588.219,1366.386c7.053-3.29,14.377-5.951,21.85-8.164,11.345,27.065,23.651,53.831,33.436,81.524,5.342,15.312,12.426,29.936,17.078,45.487-6.363.15-12.726.329-19.059.269-2.101-.06-6.333-.15-8.434-.209-14.377-38.041-30.404-75.513-44.121-113.823-.18-1.256-.57-3.828-.75-5.084Z" style="fill: #2c457d;"/>
          <path d="M2653.411,1364.353c6.723,1.406,12.246-4.695,19.419-2.632-2.251,12.561-3.842,25.241-6.723,37.682-4.382,22.759-9.965,45.368-12.906,68.365-9.514.239-19.029.06-28.484-.209l.24-1.256c7.533-34.721,16.178-69.203,24.252-103.804,1.05.479,3.151,1.376,4.202,1.854Z" style="fill: #29447d;"/>
          <path d="M726.105,1399.552c.39-6.4,1.081-12.74,1.741-19.05,7.894.478,15.788.897,23.681,1.196-.18,22.071-.75,44.141-.84,66.212-.6,12.591-1.11,25.181-1.14,37.772-8.824-.269-17.678-.269-26.473-.419.24-16.777,1.201-33.555,2.071-50.302.84-11.783.93-23.626.96-35.409Z" style="fill: #2b467c;"/>
          <path d="M775.838,1484.545c13.566-32.359,26.773-64.866,40.909-96.956,7.744,2.662,15.487,5.443,23.171,8.374-13.176,29.368-24.402,59.603-36.167,89.539-8.914-.03-17.798.06-26.683-.209l-1.231-.748Z" style="fill: #2e4b84;"/>
          <path d="M1698.627,1394.917c36.557.299,73.085,1.286,109.582,2.422,5.463.239,2.521,8.912-2.491,6.908-33.976,0-68.012.239-101.988-.628-5.613,1.166-4.922-5.084-5.102-8.703Z" style="fill: #172440;"/>
          <path d="M660.163,1402.004c7.203,27.992,16.148,55.506,22.751,83.647-7.444-.329-14.887-.568-22.331-.419-4.652-15.551-11.736-30.175-17.078-45.487,5.372-12.65,10.655-25.36,16.658-37.742Z" style="fill: #924b27;"/>
          <path d="M711.698,1432.329c4.742-10.946,7.954-22.609,14.407-32.777-.03,11.783-.12,23.626-.96,35.409-4.502-.897-8.974-1.764-13.446-2.632Z" style="fill: #efa18c;"/>
          <path d="M928.311,1438.998c8.644-5.174,16.928-10.916,25.182-16.688l2.671-.808c3.001,18.063,6.813,35.977,11.075,53.801,39.379.897,78.787.508,118.166,2.392,28.003,1.735,56.067.688,84.1,1.675,46.012,1.794,92.054,1.346,138.036,3.828,59.338,3.2,118.887-.568,178.135,4.516-20.98,11.155-42.5,21.263-64.08,31.252-5.583,2.811-11.976,2.452-18.009,2.363-18.729-.568-37.458-1.017-56.187-1.286l1.561,4.486c-.72-1.196-2.161-3.619-2.881-4.845-15.727,1.585-32.115-3.409-47.363.927-5.973,4.157-12.726,6.789-20.05,7.028-1.981-3.738-1.861-10.676-7.504-10.228-85.571-2.093-171.171-4.695-256.772-6.789l.81,4.845c-.66-1.166-1.951-3.469-2.611-4.606-15.637-.329-31.215-2.213-46.822-1.196l-.12,2.243c-9.034-1.794-20.47-5.503-26.983,3.349-.3-1.764-.93-5.323-1.231-7.088-14.557-.06-29.084-.269-43.581-1.106-3.662-16.747-8.074-33.315-11.556-50.093.78-.748,2.341-2.213,3.122-2.931,1.351,2.781,3.031,5.353,5.042,7.716,16.838-4.067,31.665-13.548,48.203-18.572-3.452-1.435-6.903-2.841-10.355-4.187Z" style="fill: #954c26;"/>
          <path d="M956.164,1421.503c11.045-.449,22.06.239,33.106.449,153.163,4.665,306.296,9.51,459.428,14.744,11.105.239,22.211.329,33.286,1.136,2.701,15.491,6.423,30.803,10.745,45.936-2.371,1.316-4.712,2.632-7.053,3.948-59.248-5.084-118.796-1.316-178.135-4.516-45.982-2.482-92.024-2.034-138.036-3.828-28.033-.987-56.097.06-84.1-1.675-39.379-1.884-78.788-1.495-118.166-2.392-4.262-17.824-8.074-35.738-11.075-53.801Z" style="fill: #c47845;"/>
          <path d="M706.716,1464.837c-3.932-11.155.48-22.31,4.982-32.508,4.472.867,8.944,1.735,13.446,2.632-.87,16.747-1.831,33.525-2.071,50.302-3.692-.12-7.324-.359-10.955-.389-1.771-6.699-3.722-13.338-5.403-20.037Z" style="fill: #f29373;"/>
          <path d="M749.546,1485.682c.03-12.591.54-25.181,1.14-37.772,10.025,11.125,14.587,25.959,25.152,36.635l1.231.748c-9.184.12-18.369.688-27.523.389Z" style="fill: #ec907a;"/>
          <path d="M1800.556,1459.574c1.921.03,5.763.12,7.684.18-.54,38.011-11.105,78.713-40.009,105.329-16.328,13.936-36.918,24.553-58.708,25.45-7.984,1.406-5.553-8.164.84-7.626,32.115-4.516,61.169-25.749,74.765-55.117,10.475-21.203,13.386-44.979,15.427-68.216Z" style="fill: #172640;"/>
          <path d="M2463.931,1467.529c6.453-.06,12.966-.12,19.479.06,2.431.09,7.293.299,9.755.389,8.644,71.954,24.612,144.028,56.787,209.462,12.966,28.351,32.475,52.994,51.685,77.367-36.227-.179-72.454.957-108.682.359-5.973-.299-13.807-.927-16.418-7.297-2.761-11.275-1.951-23.028-2.251-34.512,2.551.12,7.624.359,10.175.478,7.263,8.583,19.479,14.445,30.555,9.63,10.685-5.563,20.5-12.8,31.845-17.226-10.115-7.746-19.869-16.718-32.085-20.994-9.755-3.379-19.209,1.824-28.213,4.905-4.592-.09-9.154-.389-13.657-.778-.12-10.348-.24-20.695-.63-30.983-2.311-63.64-6.543-127.221-8.344-190.861Z" style="fill: #29457c;"/>
          <path d="M2493.165,1467.977c9.424.239,18.909-.18,28.394.06,7.383.239,14.767.179,22.181-.329,7.533-.389,15.097-.239,22.691-.03,9.004.149,18.069-.03,27.103-.12,10.385-.15,20.77-.239,31.185,0,9.454.269,18.969.449,28.484.209,7.804-.239,15.637-.269,23.471-.15-3.362,91.333-8.494,182.577-11.856,273.91-1.231,7.177-7.684,14.026-15.487,13.159-15.907.12-31.815-.06-47.693.12-19.209-24.373-38.718-49.016-51.685-77.367-32.175-65.435-48.143-137.508-56.787-209.462Z" style="fill: #476daf;"/>
          <path d="M712.118,1484.874c3.632.03,7.264.269,10.955.389,8.794.149,17.648.149,26.473.419,9.154.299,18.339-.269,27.523-.389,8.884.269,17.768.179,26.683.209,5.042.897,13.206-.269,14.767,6.31,1.081,7.088.6,14.325.51,21.502-44.391.18-88.782.06-133.143.09-13.746,0-27.463-.209-41.179-.209-.39-9.331-1.321-18.572-3.182-27.693,6.333.06,12.696-.12,19.059-.269,7.444-.149,14.887.09,22.331.419,9.755.628,19.479-.209,29.204-.778Z" style="fill: #4a6fb0;"/>
          <path d="M611.39,1488.702c5.793-5.024,14.617-2.961,21.7-3.409,2.101.06,6.333.149,8.434.209,1.861,9.121,2.791,18.362,3.182,27.693-11.496-.06-22.991-.12-34.456-.06-.21-8.135-.931-16.448,1.14-24.433Z" style="fill: #315191;"/>
          <path d="M2035.417,1504.971c2.761-3.978,6.303-7.417,11.255-8.463,1.381,6.37-3.602,11.305-6.723,16.239-31.185,42.198-70.503,77.786-112.493,109.068-13.567,8.942-25.722,20.755-41.36,26.048-.51-4.695,1.381-8.463,5.493-10.647,53.545-37.323,104.84-79.52,143.828-132.245Z" style="fill: #1a2943;"/>
          <path d="M938.666,1515.259c6.513-8.852,17.949-5.144,26.983-3.349,12.246,71.027,23.891,142.174,34.877,213.38.72,6.878,3.902,14.056,10.895,16.568,10.025,3.409,20.89,2.123,31.305,3.29-3.151,3.021-6.273,6.101-9.575,8.972-15.667,1.974-33.946,2.991-46.852-7.835-9.214-5.682-13.416-16.299-14.827-26.557-10.595-68.216-21.25-136.432-32.806-204.468Z" style="fill: #924823;"/>
          <path d="M965.769,1509.666c15.607-1.017,31.185.867,46.822,1.196.66,1.137,1.951,3.439,2.611,4.606,11.255,67.289,21.01,134.817,32.385,202.076,1.141,9.39,4.142,21.024-4.862,27.603-10.415-1.166-21.28.12-31.305-3.29-6.993-2.512-10.175-9.69-10.895-16.568-10.985-71.207-22.631-142.353-34.877-213.38l.12-2.243Z" style="fill: #c57845;"/>
          <path d="M610.25,1513.136c11.465-.06,22.961,0,34.456.06,13.716,0,27.433.209,41.179.209-.99,59.932.21,121.688,21.58,178.539,7.173,23.387,21.01,43.872,36.527,62.534-34.306,0-68.643.12-102.949-.18-10.415.15-21.04-7.566-21.97-18.332-1.441-17.944-.57-36.037-2.341-53.951-2.761-29.458-.66-59.124-3.452-88.582-2.041-20.426.57-41.061-2.791-61.397-.48-6.31-.24-12.62-.24-18.901Z" style="fill: #b82419;"/>
          <path d="M685.886,1513.405c44.361-.03,88.752.09,133.143-.09-.45,19.439-1.801,38.848-2.011,58.317-2.041,52.096-3.092,104.223-4.142,156.349.66,10.886-5.283,23.088-16.598,25.779-17.378,1.525-34.877.329-52.285.718-15.517-18.662-29.354-39.147-36.527-62.534-21.37-56.852-22.571-118.608-21.58-178.539Z" style="fill: #df342a;"/>
          <path d="M1298.717,1520.612c15.247-4.336,31.635.658,47.363-.927.72,1.226,2.161,3.649,2.881,4.845,23.231,65.674,43.911,132.245,65.911,198.367,3.362,9.121,5.523,20.755-4.052,27.035-11.075-1.734-22.931-.987-33.286-5.622-5.222-5.293-7.143-12.74-9.725-19.439-22.511-68.246-45.051-136.521-69.093-204.259Z" style="fill: #c47743;"/>
          <path d="M1278.667,1527.64c7.323-.239,14.077-2.871,20.05-7.028,24.041,67.737,46.582,136.013,69.093,204.259,2.581,6.699,4.502,14.146,9.725,19.439,10.355,4.635,22.211,3.888,33.286,5.622-1.291,1.196-3.872,3.589-5.163,4.785-15.637-1.585-32.145,2.811-47.182-2.273-10.145-12.112-13.206-27.843-18.249-42.347-20.68-60.769-41.48-121.479-61.559-182.457Z" style="fill: #904721;"/>
          <path d="M606.738,1538.586c.96-1.645,2.821-4.905,3.752-6.549,3.362,20.336.75,40.971,2.791,61.397,2.791,29.457.69,59.124,3.452,88.582-12.966,23.267-18.369,50.452-32.506,72.941-13.987,1.376-28.123.568-42.17.508-8.464,1.106-13.116-8.284-12.756-15.432,1.681-11.962,7.444-22.818,11.586-34.033,21.76-55.894,44.301-111.46,65.851-167.414Z" style="fill: #964b24;"/>
          <path d="M2435.417,1684.737c12.696-8.224,23.501-19.11,36.858-26.347.39,10.288.51,20.635.63,30.983-12.546-1.196-24.942-3.589-37.488-4.635Z" style="fill: #f88e6a;"/>
          <path d="M2045.382,1673.552c8.944-2.542,18.459-1.316,27.673-1.256,54.326,1.166,108.712.927,163.038,2.572,23.231.449,46.462,1.196,69.723,1.376,39.529,2.153,79.208,3.17,118.496,8.075-1.111,9.779-1.861,19.618-2.221,29.458-3.992.06-7.894.209-11.796.18-20.89-.658-41.69-2.961-62.61-2.692-15.457-.06-30.885-1.106-46.192-2.931-20.44-2.871-41.15-1.914-61.559-4.725-52.585-5.772-105.38-8.852-158.055-13.667-13.596-1.346-27.853-.658-40.399-6.908,1.11-3.23,2.431-6.4,3.902-9.48Z" style="fill: #bf7342;"/>
          <path d="M2037.818,1686.98c.9-.987,2.731-2.961,3.662-3.948,12.546,6.25,26.803,5.563,40.399,6.908,52.675,4.815,105.47,7.895,158.055,13.667-.45,1.525-1.321,4.546-1.771,6.071-8.584-.359-17.108-.359-25.632-.449-18.429-.987-36.858-1.495-55.286-1.226-40.189.12-80.378-.748-120.567-.419,1.591-2.422,3.241-4.815,4.892-7.177-.75-.718-2.281-2.123-3.031-2.811.93-1.585,1.921-3.14,2.941-4.665-1.261-2.004-2.491-3.978-3.662-5.951Z" style="fill: #4d71b6;"/>
          <path d="M2424.312,1684.318c3.692.329,7.383.359,11.105.419,12.546,1.047,24.942,3.439,37.488,4.635,4.502.389,9.064.688,13.657.778-1.801,7.746-2.161,15.731-2.101,23.686-2.551-.12-7.624-.359-10.175-.478-17.408-1.435-34.816-.06-52.195.419.36-9.839,1.11-19.678,2.221-29.458Z" style="fill: #dadee2;"/>
          <path d="M2486.562,1690.15c9.004-3.08,18.459-8.284,28.213-4.905,12.216,4.277,21.97,13.248,32.085,20.994-11.345,4.426-21.16,11.663-31.845,17.226-11.075,4.815-23.291-1.047-30.555-9.63-.06-7.955.3-15.94,2.101-23.686Z" style="fill: #462317;"/>
          <g>
            <path d="M2239.934,1703.608c20.41,2.811,41.12,1.854,61.559,4.725l.57,2.064c-4.292.867-8.494,1.824-12.756,2.572-17.078-.508-34.156-1.824-51.144-3.29.45-1.525,1.321-4.546,1.771-6.071Z" style="fill: #1a1a1a;"/>
            <path d="M2397.119,1808.768c6.333-.06,12.726-.06,19.149.179,11.586,28.919,25.482,56.852,36.737,85.89-1.651-28.62-1.711-57.33-1.05-85.98,6.483-.06,12.996-.15,19.539-.269-.36,43.513,1.321,87.057.45,130.57-7.023.06-14.017.09-21.01,0-11.826-27.783-23.561-55.596-34.456-83.737-.39,28.022,1.471,56.134.45,84.216-6.783-.149-13.537-.179-20.26-.269.48-43.513-1.651-87.116.45-130.6Z" style="fill: #1a1a1a;"/>
          </g>
          <path d="M1932.048,1716.467c-.81-6.609,6.363-8.882,11.675-8.583,30.975-.239,61.979.149,92.954-.299,40.189-.329,80.378.538,120.567.419-.39,9.6-.3,19.23-1.201,28.829,0,5.802-8.254,3.918-11.886,5.293-65.911-5.084-131.613-12.471-197.524-17.495-5.163-1.106-15.337-.359-14.587-8.164Z" style="fill: #df2e2a;"/>
          <path d="M2301.494,1708.333c15.307,1.824,30.735,2.871,46.192,2.931,4.262,8.135,12.636,11.693,20.53,15.402,3.572.987,9.485,6.31,2.941,8.104-11.165,2.512-19.359,10.108-25.452,19.379-19.419.658-38.869.209-58.228-.748.54-1.435,1.621-4.306,2.191-5.742,5.313-.479,10.685-.658,16.058-.778-2.101-11.305,3.512-21.562,8.554-31.222-3.722-.239-7.414-.538-11.015-.837-.3-1.107-.9-3.32-1.2-4.426l-.57-2.064Z" style="fill: #cfd2d4;"/>
          <path d="M2157.245,1708.004c18.429-.269,36.858.239,55.286,1.226-4.022,1.824-7.984,3.649-11.976,5.443,3.392,7.806,5.883,16.03,6.333,24.613,5.493.658,11.045,1.435,16.568,2.482-8.794.957-17.558,2.064-26.262,3.499-17.738.419-35.447-1.017-53.035-3.14,3.632-1.376,11.886.508,11.886-5.293.9-9.6.81-19.23,1.201-28.829Z" style="fill: #c05a37;"/>
          <path d="M2212.531,1709.23c8.524.09,17.048.09,25.632.449,16.988,1.465,34.066,2.781,51.144,3.29.12,11.424.24,22.908-1.411,34.243-15.337-.508-30.644-.419-45.952-.598-14.947.12-29.894.299-44.751-1.346,8.704-1.435,17.468-2.542,26.262-3.499-5.523-1.047-11.075-1.824-16.568-2.482-.45-8.583-2.941-16.807-6.333-24.613,3.992-1.794,7.954-3.619,11.976-5.443Z" style="fill: #b5663c;"/>
          <path d="M2289.308,1712.968c4.262-.748,8.464-1.705,12.756-2.572.3,1.107.9,3.32,1.2,4.426,3.602.299,7.294.598,11.015.837-5.042,9.66-10.655,19.918-8.554,31.222-5.373.12-10.745.299-16.058.778-.57,1.435-1.651,4.306-2.191,5.742l-.72,1.884c.3-2.004.84-6.041,1.14-8.075,1.651-11.335,1.531-22.818,1.411-34.243Z" style="fill: #1a325a;"/>
          <path d="M2347.686,1711.264c20.92-.269,41.72,2.034,62.61,2.692-14.017,14.833-32.535,23.955-48.983,35.678-4.562,3.26-10.145,4.276-15.607,4.516,6.093-9.271,14.287-16.867,25.452-19.379,6.543-1.794.63-7.118-2.941-8.104-7.894-3.708-16.268-7.267-20.53-15.402Z" style="fill: #f4d0c0;"/>
          <path d="M2241.945,1746.613c15.307.18,30.614.09,45.952.598-.3,2.034-.84,6.071-1.14,8.075-14.677,0-29.354-.239-44.001-.12-.21-2.153-.6-6.4-.81-8.553Z" style="fill: #0b1415;"/>
          <g>
            <path d="M866.632,1808.828c8.344.149,16.748.149,25.122.299,5.583,30.654,14.317,60.68,18.579,91.602.66-.718,1.981-2.153,2.641-2.871,6.153-29.727,11.616-59.633,19.509-88.941,7.864.179,15.727.149,23.591-.09,3.031,43.364,4.382,86.877,6.783,130.301-6.933.06-13.867.03-20.77-.09.51-22.789-1.771-45.517-1.531-68.306-.09-8.105.72-16.299-.961-24.284-6.393,28.979-12.306,58.048-17.648,87.236-.87,9.42-13.386,3.738-19.629,5.263-6.453-31.79-15.277-63.132-19.419-95.341-3.632,31.7-1.381,63.73-2.311,95.58-6.663.03-13.326.03-19.959,0,1.201-43.484,2.761-86.997,6.003-130.361Z" style="fill: #1b1a1a;"/>
            <path d="M1649.704,1808.858c8.464,0,16.898,0,25.392.09,4.772,25.809,11.645,51.169,16.718,76.919,1.501,5.921.75,12.62,3.932,18.093,5.433-32.03,12.636-63.73,19.659-95.401,7.984.299,15.968.359,23.951.179,2.581,43.543,5.883,87.087,7.323,130.72-6.903-.09-13.746-.239-20.59-.628-.66-30.833-2.461-61.607-2.431-92.44-3.242,9.002-3.992,18.602-5.853,27.932-3.872,21.772-9.394,43.185-13.837,64.837-6.213-.03-12.396-.03-18.579-.03-5.793-31.88-14.467-63.222-19.299-95.281-1.561,31.73-.93,63.61-1.711,95.4-6.693-.03-13.326-.06-19.959-.149,1.231-43.424,3.151-86.847,5.283-130.241Z" style="fill: #1b1a1a;"/>
            <path d="M1571.607,1917.776c6.063.09,12.156.359,18.249.837-2.941,15.761-8.914,30.773-12.516,46.384-5.403.359-10.805.449-16.148.389,2.611-16.03,6.543-31.82,10.415-47.611Z" style="fill: #1b1a1a;"/>
          </g>
          <path d="M974.893,1808.888c8.224-.12,16.478-.09,24.702.449,5.583,17.884,9.605,36.695,18.429,53.263,5.012-18.093,10.115-36.216,16.388-53.921,7.924.149,15.848.09,23.801,0-9.454,25.719-19.719,51.169-28.784,77.038-1.681,17.704.3,35.588-1.23,53.353-7.744-.03-15.517-.06-23.231-.12-.63-17.734,1.441-35.708-.99-53.293-9.424-25.689-19.629-51.11-29.084-76.769Z" style="fill: #1d1c1b;"/>
          <path d="M1109.927,1808.888c7.654.09,15.337.03,23.021-.239.3,17.555.03,35.14.24,52.695,9.665-.09,19.329-.12,29.024-.239-.18-17.166.57-34.332.06-51.498,8.014-.718,16.058-.807,24.101-.807-.42,43.304-.03,86.638-.42,129.942-7.924.179-15.818.299-23.711.538-1.051-19.499-.06-39.028-.21-58.526-9.485.269-18.939.299-28.394-.149-1.381,19.409-.27,38.878-.66,58.347-7.804.09-15.607.179-23.411.209-.18-43.424-.9-86.847.36-130.271Z" style="fill: #1a1919;"/>
          <path d="M1233.616,1809.456c15.637-6.071,36.017-3.14,46.852,10.467,8.734,10.916,10.775,25.33,11.586,38.878.36,17.674,1.261,35.828-3.872,52.994-3.091,10.467-9.364,20.785-19.659,25.51-15.757,7.447-37.668,5.263-48.683-9.271-9.244-12.082-11.405-27.693-12.366-42.377-.81-16.987-.87-34.452,4.262-50.811,3.362-10.975,10.895-21.173,21.88-25.39ZM1245.292,1827.16c-10.475,5.054-11.375,18.452-12.816,28.56-1.141,18.572-1.921,37.951,4.022,55.835,2.491,9.241,15.247,13.099,22.15,6.28,8.164-8.404,7.834-21.114,8.644-31.999.12-17.017,1.741-35.02-5.523-50.93-2.641-6.191-9.815-10.706-16.478-7.746Z" style="fill: #1c1c1b;"/>
          <path d="M1313.874,1808.798c19.839,1.555,42.59-4.456,59.758,8.284,14.527,13.966,12.156,42.198-5.703,52.545,4.112,5.144,11.465,7.177,14.407,13.548,10.265,18.99,2.221,48.627-20.38,54.309-16.028,3.469-32.626,1.316-48.863,1.764.57-43.483-.99-87.027.78-130.45ZM1337.856,1826.622c-1.201,12.112-.57,24.284-.6,36.456,5.283-.478,11.556.598,15.727-3.499,7.083-6.43,7.474-17.824,3.662-26.018-3.542-6.998-12.246-6.191-18.789-6.938ZM1338.306,1880.842c-.6,13.428-.63,26.856-.27,40.314,8.044-.419,18.399-1.286,21.85-9.989,2.071-7.925,2.821-17.495-1.801-24.673-4.592-6.22-13.086-4.875-19.779-5.652Z" style="fill: #1c1b1a;"/>
          <path d="M1407.069,1808.917c19.659,1.585,42.35-4.875,59.278,8.164,14.377,14.235,11.946,42.586-6.303,52.725,5.793,4.516,13.146,7.865,16.388,14.893,9.124,19.14.42,46.893-21.37,52.665-15.848,3.499-32.265,1.316-48.323,1.764-.69-43.394-1.231-86.877.33-130.211ZM1430.84,1826.472c-1.381,12.142-.66,24.344-.63,36.515,5.313-.538,11.586.269,15.818-3.768,6.963-6.25,6.303-17.286,3.602-25.39-3.092-7.417-12.246-6.609-18.789-7.357ZM1431.26,1880.602c-.21,13.488-.51,27.005-.12,40.553,6.063-.987,13.476.209,17.979-4.934,7.293-7.297,7.023-19.05,3.392-28.022-3.962-7.985-13.777-7.357-21.25-7.596Z" style="fill: #1d1b1b;"/>
          <path d="M1485.496,1808.828c8.134-.299,16.328-.269,24.492.269,5.883,17.734,10.955,35.858,18.309,53.083,5.823-17.734,10.805-35.738,17.228-53.263,7.654.209,15.367.209,23.051-.12-7.654,21.742-15.788,43.334-24.282,64.747-10.625,20.306-4.292,43.783-5.943,65.614-7.714.658-15.427.748-23.111.209-.48-16.897.84-33.824-.18-50.691-9.154-26.826-20.38-52.994-29.564-79.849Z" style="fill: #1d1b1a;"/>
          <g>
            <path d="M1758.296,1808.858c7.744.209,15.487.209,23.231-.06,7.413,17.435,12.966,35.588,18.879,53.592,6.663-17.585,10.895-36.067,17.528-53.711,7.804.12,15.637.09,23.471,0-10.955,25.36-19.149,51.767-29.534,77.367-1.981,17.645-.24,35.558-.75,53.323-7.804,0-15.577-.03-23.321-.12-1.111-18.482,2.401-37.353-1.291-55.595-9.995-24.732-18.909-49.853-28.213-74.795Z" style="fill: #1c1b1b;"/>
            <path d="M2172.372,1811.609c16.808-9.63,38.478-4.636,52.135,8.194-2.581,6.071-5.673,11.933-9.695,17.196-8.134-9.241-24.492-15.402-34.186-5.144-6.393,7.148-1.651,17.106,4.922,22.25,12.966,11.005,30.104,18.542,37.878,34.571,9.785,18.781-.42,45.577-21.61,50.841-16.928,4.665-39.169,1.106-49.463-14.265,3.752-5.084,6.333-10.916,10.325-15.82,8.524,5.024,16.568,13.099,27.433,11.753,7.894.359,14.137-6.849,14.167-14.385.36-7.118-4.652-12.86-9.815-17.017-12.456-10.228-27.763-18.213-35.837-32.747-8.614-15.521-2.431-37.502,13.746-45.427Z" style="fill: #1c1b1b;"/>
          </g>
          <path d="M1893.36,1808.858c19.989.957,44.241-5.174,60.239,10.228,16.028,19.918,11.255,58.526-15.667,66.631-6.873,2.363-14.257,2.422-21.4,3.23.06,16.718-.09,33.435-.06,50.182-7.774.09-15.547.12-23.291.15.09-43.484.09-86.937.18-130.421ZM1916.23,1826.742c.03,14.355.18,28.74,0,43.155,6.153-.419,14.137.419,18.009-5.592,5.943-9.421,7.354-22.818.54-32.119-4.412-5.622-12.246-4.964-18.549-5.443Z" style="fill: #1a191a;"/>
          <path d="M1996.008,1808.888c8.164-.389,16.358-.449,24.552-.269,9.665,43.992,21.971,87.386,32.506,131.168-8.164.09-16.328,0-24.492-.478-1.321-8.703-2.731-17.345-4.652-25.869-10.325-.329-20.62-.658-30.885.03-1.561,8.523-3.302,17.047-4.832,25.57-7.774.299-15.517.359-23.261.209,10.025-43.543,20.17-87.027,31.065-130.361ZM1997.659,1894.329c7.474,0,14.977.12,22.481.389-3.182-19.349-8.224-38.31-11.465-57.629-4.952,18.721-8.284,38.011-11.015,57.24Z" style="fill: #1d1c1c;"/>
          <path d="M2077.677,1815.856c16.598-14.385,42.89-11.394,58.018,3.708-2.821,5.682-5.703,11.334-8.794,16.867-8.554-6.31-19.629-13.846-30.525-8.404-8.854,4.306-8.464,15.402-3.752,22.699-5.373-.299-10.745-.449-16.058-.598-.81,4.486-1.591,8.972-2.371,13.488-11.075-13.936-10.235-35.917,3.482-47.76Z" style="fill: #171616;"/>
          <path d="M2247.018,1808.708c7.714.12,15.457.03,23.201-.18-.39,43.543-.18,87.087-.15,130.63-7.774.598-15.547.688-23.291.269-.45-43.543-.84-87.146.24-130.72Z" style="fill: #1b1a19;"/>
          <path d="M2316.981,1809.246c15.607-6.161,36.257-3.021,46.462,11.215,9.605,13.607,11.466,30.863,11.916,47.042.21,18.213-.48,37.353-8.554,54.04-11.736,25.42-54.926,27.274-67.202,1.435-10.745-20.546-9.244-44.71-8.164-67.139,2.011-17.615,7.023-39.386,25.542-46.594ZM2328.146,1826.532c-10.745,5.144-11.495,18.841-12.396,29.188-.57,17.944-1.591,36.366,2.971,53.921,1.861,8.553,11.736,15.671,20.17,10.617,9.695-5.742,10.325-18.602,11.165-28.59.24-17.525,1.681-35.499-3.061-52.545-1.921-8.164-9.995-15.701-18.849-12.591Z" style="fill: #1b1b1a;"/>
          <path d="M1245.292,1827.16c6.663-2.961,13.837,1.555,16.478,7.746,7.264,15.91,5.643,33.914,5.523,50.93-.81,10.886-.48,23.596-8.644,31.999-6.903,6.819-19.659,2.961-22.15-6.28-5.943-17.884-5.163-37.263-4.022-55.835,1.441-10.108,2.341-23.506,12.816-28.56Z" style="fill: #fff;"/>
          <path d="M1337.856,1826.622c6.543.748,15.247-.06,18.789,6.938,3.812,8.194,3.422,19.588-3.662,26.018-4.172,4.097-10.445,3.021-15.727,3.499.03-12.172-.6-24.344.6-36.456Z" style="fill: #fff;"/>
          <path d="M1430.84,1826.472c6.543.748,15.697-.06,18.789,7.357,2.701,8.105,3.362,19.14-3.602,25.39-4.232,4.037-10.505,3.23-15.818,3.768-.03-12.172-.75-24.373.63-36.515Z" style="fill: #fff;"/>
          <path d="M2328.146,1826.532c8.854-3.11,16.928,4.426,18.849,12.591,4.742,17.047,3.302,35.02,3.061,52.545-.84,9.989-1.471,22.848-11.165,28.59-8.434,5.054-18.309-2.064-20.17-10.617-4.562-17.555-3.542-35.977-2.971-53.921.9-10.347,1.651-24.044,12.396-29.188Z" style="fill: #fff;"/>
          <path d="M1916.23,1826.742c6.303.478,14.137-.18,18.549,5.443,6.813,9.301,5.403,22.699-.54,32.119-3.872,6.011-11.856,5.174-18.009,5.592.18-14.415.03-28.8,0-43.155Z" style="fill: #fff;"/>
          <path d="M1997.659,1894.329c2.731-19.23,6.063-38.519,11.015-57.24,3.242,19.319,8.284,38.28,11.465,57.629-7.504-.269-15.007-.389-22.481-.389Z" style="fill: #fff;"/>
          <path d="M2076.567,1850.128c5.313.15,10.685.299,16.058.598l.9.03c10.175,9.929,22.871,16.718,33.466,26.198l-.12.538c-.63,2.512-1.231,4.994-1.771,7.536-5.763,1.854-11.525,3.678-17.228,5.592-11.555-8.613-23.591-16.688-33.676-27.005.78-4.516,1.561-9.002,2.371-13.488Z" style="fill: #1f1f1e;"/>
          <path d="M1338.306,1880.842c6.693.778,15.187-.568,19.779,5.652,4.622,7.177,3.872,16.747,1.801,24.673-3.452,8.703-13.807,9.57-21.85,9.989-.36-13.458-.33-26.886.27-40.314Z" style="fill: #fff;"/>
          <path d="M1431.26,1880.602c7.474.239,17.288-.389,21.25,7.596,3.632,8.972,3.902,20.725-3.392,28.022-4.502,5.144-11.916,3.948-17.979,4.934-.39-13.547-.09-27.065.12-40.553Z" style="fill: #fff;"/>
          <path d="M2125.1,1885.029c.54-2.542,1.141-5.024,1.771-7.536,13.747,13.428,15.277,37.831,2.071,52.066-17.258,17.106-48.773,15.462-64.861-2.333,1.921-6.729,6.243-12.411,9.364-18.602,9.575,7.716,22.661,17.585,35.147,9.749,10.355-6.46,7.173-20.695-.72-27.753,5.703-1.914,11.466-3.738,17.228-5.592Z" style="fill: #181717;"/>
        </g>
      </g>
    </g>
  </g>
</svg>