<?xml version="1.0" encoding="utf-8"?>
<!-- Generator: Adobe Illustrator 27.5.0, SVG Export Plug-In . SVG Version: 6.00 Build 0)  -->
<svg version="1.1" id="girl_and_picture" xmlns="http://www.w3.org/2000/svg" xmlns:xlink="http://www.w3.org/1999/xlink" x="0px"
	 y="0px" viewBox="0 0 4712.986 3584.024" style="enable-background:new 0 0 4712.986 3584.024;" xml:space="preserve">
<g id="bg">
	<rect x="0" y="0" style="fill:#FFFFFF;" width="4712.986" height="3584.024"/>
	<g>
		<rect x="0" y="0" style="fill:#FFFFFF;" width="4712.986" height="3584.024"/>
		<g>
			<path style="fill:#B3C0FF;" d="M4532.132,2023.915c-57.125,200.774-160.034,371.813-296.838,515.121
				c-68.889,72.175-146.368,137.313-230.918,195.675c-32.864,22.699-66.804,44.366-101.73,65.025
				c-70.43,41.68-144.838,79.258-222.51,112.836c-708.291,306.323-1686.846,281.573-2379.011,19.446
				c-453.382-171.718-1062.539-536.482-831.45-999.304c110.807-332.773,472.421-534.443,807.12-722.117
				c530.488-366.645,1036.282-826.804,1793.052-833.422c76.051-6.131,143.059-5.451,202.644,1.326
				c80.165,9.111,146.935,29.237,204.333,58.656c151.66,77.706,237.865,220.187,332.762,395.248
				c88.823,145.291,129.233,303.377,201.25,453.235c3.15,7.502,6.584,14.925,10.29,22.222
				c31.776,62.747,83.258,118.309,141.812,170.948c101.231,90.987,223.598,173.248,301.949,268.745
				c5.802,7.071,11.355,14.211,16.636,21.43c33.929,46.292,56.843,95.916,61.806,151.241c0.556,6.244,0.896,12.568,0.986,18.97
				C4544.711,1966.007,4540.892,1994.167,4532.132,2023.915z"/>
			<g>
				<path style="fill:#96A7FA;" d="M4532.132,2023.915c-57.125,200.774-160.034,371.813-296.838,515.121
					c-68.889,72.175-146.368,137.313-230.918,195.675l96.71-953.85c0.918-9.021,8.568-15.843,17.633-15.707
					c49.998,0.725,209.058,2.89,362.803,3.831c33.929,46.292,56.843,95.916,61.806,151.241c0.556,6.244,0.896,12.568,0.986,18.97
					C4544.711,1966.007,4540.892,1994.167,4532.132,2023.915z"/>
				<path style="fill:#B3C0FF;" d="M4532.132,2023.915c-57.125,200.774-160.034,371.813-296.838,515.121l59.506-586.911
					c0.917-9.02,8.567-15.843,17.633-15.706c35.663,0.51,126.786,1.756,231.881,2.776
					C4544.711,1966.007,4540.892,1994.167,4532.132,2023.915z"/>
				<path style="fill:#96A7FA;" d="M4162.943,1478.806l-945.9-31.017c-19.371-0.635-34.25-17.38-32.604-36.691l88.05-1032.599
					c292.002,33.182,406.279,212.597,537.098,453.906c88.821,145.284,129.234,303.373,201.246,453.232
					C4040.997,1357.62,4097.557,1420.035,4162.943,1478.806z"/>
				<path style="fill:#B3C0FF;" d="M4021.122,1307.866l-581.195-19.059c-19.372-0.636-34.245-17.379-32.603-36.694l69.496-814.958
					c151.663,77.706,237.863,220.19,332.768,395.25c88.821,145.284,129.234,303.373,201.246,453.232
					C4013.985,1293.145,4017.421,1300.558,4021.122,1307.866z"/>
			</g>
		</g>
	</g>
</g>
<g id="plant">
	<g>
		<path style="fill:#66A896;" d="M4134.414,2084.576c-27.537,57.455-74.748,101.617-121.233,143.784
			c-46.78,42.451-94.647,85.604-124.077,142.526c-6.052,11.695-10.97,23.775-15.14,36.071c-1.972,5.802-3.774,11.661-5.439,17.554
			c-16.126,56.74-20.545,117.153-49.069,169.939c-33.623,62.191-90.296,104.472-148.442,142.13
			c-63.461,41.079-129.619,78.782-187.481,127.817c-28.761,24.398-55.789,51.573-78.329,81.91
			c-10.437,14.063-19.106,29.509-27.934,44.627c-6.448,11.015-12.851,22.075-19.276,33.113
			c-19.129,32.807-38.564,65.467-60.503,96.483l-95.667-0.011h-49.318c3.116-32.909,14.052-65.739,25.917-96.495
			c1.756-4.555,3.535-9.066,5.315-13.519c1.575-3.932,3.162-7.887,4.782-11.831c3.932-26.642,10.834-52.831,19.662-78.272
			c25.906-74.657,66.577-144.77,110.014-210.486c39.391-59.619,96.801-102.444,150.232-148.521
			c27.187-23.458,53.489-48.23,75.734-76.516c17.724-22.563,32.954-47.165,47.199-72.039c27.583-48.23,50.848-98.761,74.431-149.02
			c23.537-50.157,47.335-100.359,75.915-147.875c13.995-23.277,29.215-45.964,46.066-67.303c4.363-5.553,8.85-10.992,13.451-16.352
			c12.568-14.641,26.031-28.512,40.49-41.374c41.579-36.966,90.851-64.05,144.306-79.485c33.895-9.802,74.533-16.421,108.087-4.714
			c4.159,1.451,8.204,3.173,12.114,5.224c10.97,5.7,20.874,13.859,29.124,25.09
			C4166.847,1979.843,4155.798,2040.006,4134.414,2084.576z"/>
		<path style="fill:#66A896;" d="M4170.973,1627.074c-34.377,65.345-79.777,124.602-140.384,167.489
			c-19.406,13.739-39.681,26.032-60.329,37.701c-9.519,5.354-19.116,10.608-28.744,15.797
			c-37.149,19.982-74.811,39.159-110.286,62.015c-33.354,21.487-64.386,46.462-90.263,76.664
			c-27.661,32.292-50.932,68.125-72.267,104.833c-42.807,73.671-78.289,151.849-128.567,220.993
			c-24.309,33.397-51.541,65.36-85.49,89.29c-35.235,24.836-75.018,42.195-110.875,66.044
			c-75.119,49.956-117.669,132.547-160.375,209.18c-50.64,90.893-102.077,181.344-151.09,273.119
			c-15.324,28.692-29.329,57.677-43.581,86.866c-11.59,23.725-25.247,51.765-47.719,67.108c-10.75,7.344-22.976,8.487-32.961,3.606
			c-3.739-1.81-7.149-4.47-10.068-7.973c-1.585-1.901-3.019-4.041-4.268-6.434c-11.351-21.691-9.491-50.161-7.385-73.692
			c5.92-65.83,26.885-130.418,50.611-191.701c18.948-48.965,41.629-96.541,68.261-141.768
			c12.033-36.007,26.486-71.144,42.378-105.629c40.483-87.787,88.954-171.667,131.227-258.599
			c41.93-86.181,81.274-173.706,127.341-257.824c45.626-83.321,99.437-161.595,159.819-234.931
			c59.632-72.465,126.795-137.069,206.431-187.153c39.949-25.135,81.302-48.213,119.274-76.327
			c17-12.603,32.694-26.696,48.36-40.902c27.921-25.362,55.732-50.905,84.643-75.109c7.819-6.562,15.716-13.008,23.722-19.323
			c5.812-4.607,11.67-9.132,17.607-13.591c39.993-29.987,86.582-62.362,137.417-69.102c19.461-2.576,39.464-0.431,56.73,9.457
			c10.363,5.926,19.033,14.171,26.215,23.656c2.691,3.547,5.168,7.266,7.448,11.125c4.249,7.177,7.825,14.742,10.751,22.371
			C4231.507,1484.478,4204.109,1564.075,4170.973,1627.074z"/>
		<path style="fill:#498F7C;" d="M4193.807,1391.958c-19.673,24.172-41.793,46.292-64.572,67.518
			c-50.576,47.108-104.71,90.466-160.987,130.525c-30.608,21.792-61.75,42.836-92.789,64.039c-4.59,3.139-9.179,6.267-13.758,9.417
			c-7.842,5.371-15.661,10.766-23.469,16.194c-39.13,27.232-78.227,53.409-119.442,77.422
			c-28.954,16.862-58.135,33.453-86.296,51.618c20.172,7.083,41.646,10.505,62.849,13.032
			c59.868,7.162,119.759,13.111,180.025,15.061c31.696,1.02,63.302-1.995,94.885-4.522c-9.508,5.36-19.106,10.607-28.739,15.797
			c-60.685,4.227-121.766,0.34-182.156-6.187c-28.206-3.048-56.627-5.587-84.629-9.961c-18.993-2.98-37.771-7.241-55.483-14.494
			c-5.825,3.921-11.582,7.91-17.293,12.001c-18.766,13.463-36.818,28.07-53.307,44.253c-16.613,16.318-28.886,35.708-39.266,56.435
			c-10.346,20.704-18.913,42.247-28.932,63.109c-11.14,23.22-23.401,45.896-36.456,68.073
			c-26.903,45.737-56.763,89.707-87.553,132.905c-30.802,43.221-62.645,85.695-93.639,128.803
			c-14.471,20.137-29.895,40.014-41.057,62.26c-10.891,21.724-18.302,45.058-25.294,68.266
			c-6.731,22.358-13.021,44.876-21.168,66.781c-8.408,22.585-19.458,43.664-31.447,64.503
			c-25.248,43.856-53.5,85.899-78.068,130.163c-51.551,92.902-73.433,197.817-114.739,295.104
			c-1.972,4.646-3.966,9.281-5.972,13.916c-12.081,28.013-24.614,55.88-37.011,83.791c-1.881,4.227-3.751,8.465-5.632,12.703
			h-13.678c3.071-6.901,6.154-13.791,9.236-20.681c11.298-25.214,22.619-50.417,33.464-75.813
			c11.944-27.946,23.311-56.129,33.419-84.811c17.44-49.556,32.071-100.121,51.29-149.054
			c18.324-46.677,42.439-90.137,68.56-132.837c26.121-42.688,55.959-85.015,74.691-131.625
			c17.304-43.108,25.815-89.264,44.275-131.953c19.604-45.306,53.001-84.493,81.978-124.077
			c31.345-42.802,62.861-85.502,92.653-129.404c29.022-42.768,56.865-86.533,80.562-132.52
			c20.863-40.468,34.915-85.944,62.543-122.581c22.268-29.566,53.239-53.171,84.142-74.057c4.148-2.822,8.295-5.575,12.409-8.273
			c0.929-0.623,1.847-1.213,2.765-1.824c38.417-25.158,78.737-47.165,118.116-70.714c41.397-24.75,80.164-53.171,119.93-80.414
			c1.496-1.031,2.992-2.04,4.488-3.071c1.7-14.528,4.204-28.965,7.354-43.244c11.741-53.387,31.255-104.212,54.055-153.791
			c7.819-6.561,15.718-13.01,23.718-19.322c-15.593,32.501-30.144,65.501-42.462,99.396c-12.59,34.699-23.05,70.612-28.376,107.203
			c37.351-25.464,74.771-50.814,111.136-77.671c51.709-38.201,101.82-79.848,147.92-124.735
			c17.429-16.976,34.62-34.62,49.749-53.783C4189.047,1384.377,4191.529,1388.105,4193.807,1391.958z"/>
		<path style="fill:#498F7C;" d="M4106.22,1911.94c-12.772,17.939-25.521,35.889-40.717,51.868
			c-22.936,24.149-50.497,44.343-76.436,65.115c-27.005,21.599-53.976,43.346-78.748,67.529
			c-23.174,22.642-45.714,46.031-67.189,70.283c-10.46,11.831-20.715,23.956-30.563,36.422c-3.615,4.567-7.173,9.179-10.664,13.836
			c-25.883,34.53-48.377,71.631-63.823,111.906c-10.732,27.979-17.384,57.432-26.031,86.103
			c-6.391,21.214-13.236,42.326-20.988,63.098c63.812-15.253,125.063-40.014,182.903-71.144c-1.972,5.802-3.774,11.661-5.439,17.554
			c-58.021,30.167-119.363,53.93-183.073,68.198c-0.544,1.383-1.099,2.754-1.643,4.136c-21.35,52.91-49.5,103.634-89.548,144.748
			c-45.465,46.7-105.13,76.719-158.607,112.949c-52.253,35.402-100.688,78.578-135.829,131.432
			c-17.202,25.883-30.167,53.658-42.451,82.125c-8.012,18.563-16.012,37.159-23.571,55.925
			c-5.247,12.998-10.278,26.076-14.958,39.289c-6.709,18.914-12.182,37.952-17.021,57.206h-13.814
			c1.065-4.385,2.187-8.76,3.377-13.123c7.751-28.376,17.633-56.072,28.535-83.372c1.655-4.17,3.343-8.318,5.043-12.465
			c23.696-57.727,47.426-115.204,87.247-163.956c41.091-50.316,92.709-89.253,147.15-123.998
			c54.984-35.096,111.135-68.164,151.388-120.768c24.931-32.603,43.969-69.036,59.495-106.909c1.96-4.771,3.864-9.576,5.722-14.392
			c4.431-11.548,8.579-23.208,12.488-34.915c9.134-27.266,17.112-54.905,24.807-82.613c8.499-30.654,19.99-59.948,35.141-87.95
			c14.573-26.914,31.765-52.276,50.553-76.47c-0.487-3.014-0.963-6.051-1.417-9.088c-7.071-46.848-11.162-94.444-9.768-141.858
			c4.363-5.553,8.85-10.992,13.451-16.352c-1.824,31.617-0.759,63.461,1.802,94.84c1.597,19.65,3.898,39.244,6.81,58.769
			c17.747-21.815,36.706-42.666,56.072-62.872c22.812-23.798,46.179-46.995,71.303-68.368
			c26.665-22.687,54.519-43.913,81.457-66.271c12.669-10.528,25.565-21.089,37.011-33c11.004-11.412,20.659-24.002,29.94-36.819
			c2.856-3.921,5.678-7.899,8.488-11.854C4098.264,1908.167,4102.31,1909.889,4106.22,1911.94z"/>
	</g>
	<g>
		<path style="fill:#66A896;" d="M1468.495,1131.795c8.649,63.12,40.088,119.613,71.444,173.975
			c31.554,54.723,63.922,110.46,74.523,173.647c2.187,12.994,3.177,25.991,3.379,38.976c0.106,6.132,0.027,12.259-0.185,18.382
			c-2.008,58.949-16.28,117.823-5.269,176.799c12.98,69.497,54.007,127.084,97.843,180.725
			c47.846,58.526,99.31,114.657,139.388,179.043c19.925,32.033,37.348,66.164,49.519,101.938
			c5.634,16.583,9.167,33.95,12.952,51.035c11.275,50.78,21.591,101.953,37.506,151.565c7.151,22.27,15.298,44.646,26.945,65.033
			c8.073,14.131,18.624,29.175,33.892,36.182c7.296,3.336,15.753,4.722,24.003,4.059c4.485-0.353,8.897-1.317,13.019-2.905
			c2.432-0.938,4.775-2.087,6.961-3.451c13.835-8.614,21.708-23.965,26.699-38.966c14.031-42.143,12.223-89.977,9.234-133.675
			c-0.292-4.231-0.595-8.482-0.934-12.727c4.406-26.564,5.851-53.609,5.224-80.537c-1.818-78.996-19.096-158.197-40.341-234.044
			c-19.264-68.813-60.83-127.148-97.598-187.36c-18.713-30.65-36.178-62.282-48.695-96.017
			c-9.97-26.906-16.949-54.989-22.898-83.024c-11.507-54.353-18.206-109.587-25.277-164.644
			c-7.067-54.955-14.369-110.029-27.045-164.017c-6.197-26.439-13.749-52.685-23.263-78.159c-2.457-6.619-5.065-13.181-7.809-19.682
			c-7.489-17.785-16.056-35.111-25.894-51.783c-28.276-47.914-66.898-88.768-113.064-119.821
			c-29.275-19.694-65.94-38.437-101.471-37.553c-4.397,0.109-8.778,0.509-13.13,1.271c-12.185,2.071-24.109,6.814-35.401,14.977
			C1469.666,1022.162,1461.779,1082.825,1468.495,1131.795z"/>
		<path style="fill:#66A896;" d="M1573.651,685.041c12.739,72.729,37.835,143.034,82.417,202.404
			c14.273,19.017,29.816,36.923,45.903,54.349c7.425,8.009,14.954,15.947,22.533,23.833c29.255,30.389,59.245,60.167,86.028,92.779
			c25.182,30.66,47.086,63.931,62.483,100.601c16.456,39.206,27.65,80.44,36.733,121.915
			c18.218,83.235,28.083,168.519,54.799,249.729c12.926,39.232,29.075,77.994,54.077,111.162
			c25.948,34.424,58.514,63.121,85.356,96.796c56.236,70.541,71.48,162.189,88.695,248.212
			c20.407,102.026,41.708,203.877,60.296,306.246c5.812,32.004,10.279,63.884,14.918,96.034
			c3.776,26.133,8.201,57.006,24.902,78.489c7.989,10.281,19.279,15.109,30.278,13.516c4.113-0.58,8.173-2.069,12.024-4.511
			c2.091-1.324,4.11-2.923,6.031-4.82c17.443-17.178,24.381-44.853,29.575-67.899c14.502-64.485,14.301-132.39,10.459-197.993
			c-3.06-52.414-10.1-104.648-21.62-155.854c-0.441-37.962-3.453-75.836-8.034-113.529
			c-11.687-95.963-32.175-190.649-45.827-286.345c-13.556-94.876-24.239-190.241-42.364-284.42
			c-17.95-93.284-45.236-184.268-80.289-272.559c-34.605-87.233-78.785-169.286-139.281-241.33
			c-30.345-36.151-62.656-70.773-90.206-109.155c-12.329-17.2-22.96-35.418-33.529-53.735
			c-18.823-32.688-37.488-65.514-57.608-97.402c-5.437-8.639-10.983-17.192-16.674-25.653c-4.124-6.164-8.317-12.265-12.605-18.325
			c-28.902-40.784-63.354-85.859-109.689-107.827c-17.74-8.406-37.44-12.483-56.903-8.351c-11.679,2.472-22.456,7.67-32.195,14.503
			c-3.647,2.553-7.143,5.336-10.494,8.314c-6.241,5.533-11.959,11.642-17.08,18.009
			C1559.641,530.762,1561.376,614.925,1573.651,685.041z"/>
		<path style="fill:#498F7C;" d="M1623.84,454.213c11.337,29.025,25.619,56.858,40.818,84.033
			c33.738,60.319,72.011,118.159,113.34,173.509c22.476,30.119,45.688,59.679,68.746,89.361c3.414,4.389,6.828,8.778,10.223,13.177
			c5.82,7.504,11.615,15.036,17.386,22.593c28.924,37.892,58.145,74.775,90.036,110.252c22.403,24.907,45.113,49.634,66.365,75.535
			c-21.368,0.573-42.862-2.733-63.826-6.809c-59.182-11.497-118.023-24.157-175.998-40.744
			c-30.487-8.725-59.655-21.258-88.96-33.326c7.425,8.009,14.954,15.947,22.533,23.833c56.485,22.586,115.824,37.567,175.321,49.831
			c27.779,5.722,55.614,12,83.61,16.405c18.995,2.977,38.184,4.663,57.257,3.18c4.35,5.506,8.616,11.072,12.792,16.712
			c13.75,18.56,26.472,37.981,37.22,58.441c10.821,20.616,16.573,42.83,20.114,65.742c3.519,22.873,5.093,46,8.241,68.932
			c3.503,25.514,8.238,50.849,13.881,75.962c11.623,51.775,26.61,102.768,42.707,153.31c16.103,50.578,33.419,100.754,49.74,151.278
			c7.619,23.604,16.222,47.243,20.045,71.839c3.725,24.011,3.638,48.489,3.201,72.729c-0.429,23.349-1.333,46.71-0.278,70.056
			c1.096,24.067,5.169,47.523,10.206,71.026c10.628,49.478,24.661,98.151,34.513,147.806c20.656,104.222,9.396,210.795,18.96,316.06
			c3.218,35.389,7.229,70.775,11.035,106.169c7.35,68.351,13.971,136.775,12.793,205.59
			c-1.746,100.853-28.298,199.922-26.037,300.905c0.195,8.298,13.129,8.553,12.948,0.209c-0.55-24.092,0.641-48.144,2.796-72.149
			c4.477-49.9,12.735-99.364,18.091-149.158c5.47-50.873,6.336-101.849,3.744-152.929c-2.323-45.795-7.263-91.396-12.311-136.979
			c-6.379-57.703-12.921-115.367-14.537-173.391c-1.447-52.514,0.102-105.127-3.231-157.588
			c-3.163-50.052-12.824-98.807-24.64-147.454c-11.805-48.627-27.268-98.056-30.837-148.16c-3.294-46.332,2.727-92.88-1.793-139.168
			c-4.798-49.132-24.612-96.653-40.092-143.207c-16.744-50.345-33.691-100.631-48.619-151.539
			c-14.552-49.601-27.668-99.792-36.158-150.816c-7.484-44.916-6.956-92.502-22.048-135.841
			c-12.157-34.962-34.417-66.905-57.458-96.246c-3.086-3.956-6.191-7.849-9.282-11.672c-0.687-0.875-1.383-1.72-2.074-2.58
			c-28.876-35.703-60.534-68.988-90.817-103.453c-31.837-36.235-60.057-75.151-89.578-113.251c-1.112-1.438-2.228-2.861-3.339-4.299
			c2.829-14.354,4.859-28.858,6.232-43.419c5.146-54.422,2.117-108.782-4.42-162.958c-5.437-8.639-10.983-17.192-16.674-25.653
			c4.908,35.717,8.66,71.583,10.019,107.624c1.379,36.889,0.351,74.286-5.776,110.742c-27.774-35.667-55.642-71.244-82.052-107.943
			c-37.54-52.182-72.506-107.165-102.663-164.006c-11.406-21.496-22.376-43.555-30.92-66.418
			C1630.687,448.453,1627.191,451.236,1623.84,454.213z"/>
		<path style="fill:#498F7C;" d="M1548.155,976.06c6.669,20.982,13.318,41.976,22.894,61.839
			c14.453,30.007,34.516,57.665,52.862,85.376c19.097,28.825,38.122,57.779,54.306,88.378c15.14,28.641,29.451,57.813,42.474,87.468
			c6.34,14.465,12.396,29.151,17.957,44.027c2.041,5.452,4.021,10.937,5.915,16.43c14.084,40.801,24.151,83.003,26.533,126.068
			c1.653,29.925-1.018,59.997-1.56,89.937c-0.401,22.16-0.339,44.356,0.682,66.496c-56.089-34.047-106.824-76.349-152.375-123.685
			c0.106,6.132,0.027,12.259-0.185,18.382c46.01,46.46,97.147,87.852,153.436,120.93c0.09,1.475,0.195,2.955,0.3,4.436
			c4.135,56.909,15.417,113.807,40.97,165.203c29,58.372,76.62,105.203,116.455,156.054
			c38.913,49.686,71.815,105.614,89.103,166.685c8.468,29.902,12.302,60.316,15.299,91.175c3.303,34.066,6.536,68.197,7.548,102.433
			c1.041,34.482-1.532,68.24-4.863,102.517c-1.195,12.289-1.626,24.616-1.469,36.947c0.198,19.202,1.833,38.387,4.184,57.429
			c8.119,65.442,25.941,129.348,32.564,195.009c0.835,8.182,13.787,8.494,12.948,0.209c-1.555-15.438-3.655-30.799-6.156-46.11
			c-10.641-65.12-27.949-129.567-30.366-195.78c-0.177-4.568-0.209-9.111-0.155-13.662c0.356-28.846,4.689-57.286,5.969-86.182
			c1.51-33.868,0.025-67.755-2.643-101.517c-4.906-62.208-9.911-124.191-32.912-182.792
			c-23.734-60.468-60.956-113.332-102.163-163.067c-41.619-50.227-84.961-98.888-107.185-161.288
			c-13.766-38.669-20.742-79.171-23.937-119.981c-0.412-5.143-0.754-10.299-1.044-15.456c-0.69-12.353-1.074-24.717-1.212-37.059
			c-0.361-28.755,0.505-57.502,1.654-86.235c1.288-31.793-0.689-63.196-6.557-94.492c-5.634-30.082-14.248-59.488-24.731-88.262
			c1.39-2.727,2.769-5.474,4.132-8.225c21.061-42.44,39.515-86.504,52.695-132.064c-2.457-6.619-5.065-13.181-7.809-19.682
			c-7.93,30.653-18.684,60.646-30.724,89.74c-7.534,18.214-15.717,36.171-24.462,53.862c-10.231-26.19-21.901-51.841-34.151-77.005
			c-14.445-29.633-29.596-58.868-46.971-86.9c-18.451-29.764-38.471-58.488-57.276-88.019
			c-8.847-13.903-17.887-27.896-25.145-42.732c-6.981-14.232-12.32-29.179-17.243-44.223c-1.514-4.606-2.983-9.25-4.456-13.879
			C1556.888,974.898,1552.507,975.298,1548.155,976.06z"/>
	</g>
</g>
<g id="painting">
	<path style="fill:#E6D3C6;" d="M3413.988,3079.406l-1406.464-0.176c-3.58,0-54.982-58.243-54.58-61.795l285.465-2035.317
		c0.402-3.553,3.63-6.432,7.209-6.432l1357.637-55.186c3.58,0,54.982,58.243,54.58,61.796l-236.638,2090.679
		C3420.795,3076.526,3417.567,3079.406,3413.988,3079.406z"/>
	<path style="fill:#FAF2ED;" d="M3365.161,3024.043l-1406.464-0.176c-3.58,0-6.155-2.881-5.753-6.434l236.638-2090.679
		c0.402-3.553,3.63-6.432,7.209-6.432l1406.464,0.176c3.58,0,6.156,2.881,5.753,6.434l-236.638,2090.679
		C3371.969,3021.164,3368.741,3024.044,3365.161,3024.043z"/>
	<polygon style="fill:#F9DCCC;" points="3364.157,1174.019 3186.99,2739.279 2206.566,2739.156 2383.734,1173.897 	"/>
	<path style="fill:#F09F48;" d="M3110.041,1438.168c-50.687,76.785-129.069,94.037-197.239,91.825
		c-29.947-0.977-61.782-3.684-91.443,6.842c-2.954,1.054-5.893,2.229-8.803,3.567c-10.712,4.892-21.078,11.757-30.888,21.367
		c-50.597,49.521-67.573,154.872-122.485,191.416c-50.469,33.597-99.35-11.124-148.202-28.702
		c-63.905-23.001-140.457,8.417-197.933,73.928l70.687-624.514l781.367,0.097c1.567,32.293,0.61,65.37-2.98,98.513
		C3155.782,1331.036,3140.545,1391.957,3110.041,1438.168z"/>
	<path style="fill:#F09F48;" d="M3235.871,2307.423l-48.881,431.856l-449.135-0.056c0.823-11.219,2.118-22.492,3.86-33.684
		c2.388-15.382,5.77-31.224,12.977-44.308c19.236-34.899,54.324-34.381,82.733-30.823c28.42,3.545,64.557,0.603,81.26-36.459
		c0.545-1.203,1.054-2.419,1.524-3.636c1.985-5.096,3.418-10.367,4.416-15.734c3.642-19.573,1.556-40.552-0.258-59.99
		c-5.552-59.111-4.307-128.009,26.59-178.113c27.199-44.076,69.377-60.386,108.017-69.479
		c57.853-13.618,119.666-16.341,163.723,25.784C3227.403,2297.271,3231.784,2302.178,3235.871,2307.423z"/>
	<path style="fill:#66A896;" d="M3137.984,1536.911c-39.154,39.464-87.453,42.189-132.124,44.536s-93.797,8.44-130.879,52.03
		c-25.913,30.46-41.631,75.108-49.303,119.067c-3.519,20.162-5.492,41.47-0.599,59.178c5.651,20.454,19.522,32.853,33.719,41.771
		c59.257,37.222,136.384,28.832,200.105-23.938s111.802-149.131,121.378-246.677c1.56-15.892,2.085-32.385-2.285-45.891
		C3173.626,1523.48,3162.247,1498.98,3137.984,1536.911L3137.984,1536.911z"/>
	<path style="fill:#66A896;" d="M2537.192,2739.198l-330.625-0.041l67.211-593.804c17.8-8.176,35.491-11.445,51.343-3.589
		c22.994,11.398,35.662,43.773,42.739,76.716c8.058,37.552,10.803,78.347,8.057,119.669c-2.463,37.145-8.617,78.994,2.465,108.395
		c1.351,3.609,2.971,7.029,4.893,10.22c0.118,0.216,0.24,0.406,0.359,0.608c14.962,24.292,41.999,25.688,66.317,27.908
		c30.457,2.775,60.996,9.375,86.116,29.465c25.129,20.104,44.298,55.629,44.887,98.749
		C2581.568,2658.586,2562.293,2703.407,2537.192,2739.198z"/>
	<g>
		<path style="fill:#CC3B51;" d="M3272.96,1981.603l-1.377,12.165c-13.076,3.161-26.133,2.97-38.718-0.302
			c-26.722-6.951-49.936-26.662-69.747-49.711c-9.018-10.504-17.43-21.4-28.185-28.822c-12.531-8.626-26.924-12.98-41.719-12.955
			c-14.7,0.039-29.976,4.403-44.343,13.093c-7.556,4.568-14.921,10.217-21.856,16.867c-6.594,6.325-12.58,13.827-18.754,20.976
			c-43.416,50.279-94.294,99.678-148.445,104.875c-27.561,2.646-53.271-7.617-75.329-25.435
			c-13.814-11.153-26.212-25.159-37.572-40.516c-3.423-4.637-6.754-9.409-9.986-14.303c-3.031-4.569-6.717-9.152-8.993-14.586
			c-2.281-5.475-3.841-12.031-5.617-17.938c-1.686-5.61-3.309-11.274-4.87-16.978c-9.06-33.24-17.427-70.67-13.484-109.37
			c1.425-13.936,4.758-27.75,10.061-40.564c5.929-14.314,14.11-25.411,22.31-37.345c38.062-55.416,69.94-127.972,76.42-200.262
			c1.834-20.492,1.639-40.957-1.046-61.017c-2.434-18.249-5.645-35.849-7.034-54.583c-1.268-17.289-1.567-34.902-0.847-52.69
			c1.331-33.022,6.5-66.842,16.196-98.971c9.284-30.764,22.795-59.622,39.913-84.126c3.677-5.258,7.509-10.286,11.483-15.057
			l12.641,0.002c-5.155,5.541-10.108,11.488-14.819,17.814c-35.631,47.806-53.524,113.281-56.662,176.136
			c-0.853,17.032-0.611,33.888,0.493,50.433c1.232,18.451,3.998,35.943,6.674,53.732c3.145,20.871,3.593,42.715,1.811,64.761
			c-1.902,23.695-6.397,47.607-12.896,70.734c-12.874,45.835-33.256,88.926-57.266,126.595
			c-8.826,13.854-19.208,26.248-26.809,41.468c-5.524,11.07-9.327,23.411-11.192,36.022c-5.307,35.793,2.033,71.115,9.988,102.016
			c3.099,12.031,6.548,23.832,10.207,35.457c3.754,11.882,10.883,20.831,17.28,29.781c11.083,15.533,23.267,29.579,36.836,40.962
			c21.42,17.994,46.417,28.257,73.487,25.665c24.812-2.39,49.625-15.471,72.627-33.135c25.731-19.759,49.565-45.02,72.335-71.646
			c12.674-14.827,25.528-27.964,40.484-36.816c14.743-8.73,30.094-13.595,45.225-14.16c14.719-0.539,29.158,2.991,42.025,10.414
			c6.903,3.975,13.42,8.923,19.379,14.939c4.438,4.488,8.319,9.612,12.422,14.546c10.783,12.978,22.416,24.739,35.122,34.176
			c19.197,14.276,40.992,22.903,64.892,19.243c0.513-0.081,1.027-0.162,1.542-0.257c0,0,0.019,0,0.059-0.014
			c0.03-0.014,0.078-0.014,0.146-0.027h0.029c0.371-0.081,1.099-0.216,1.275-0.257c1.295-0.27,2.586-0.581,3.872-0.932
			C3272.733,1981.67,3272.85,1981.643,3272.96,1981.603z"/>
		<path style="fill:#11727D;" d="M3318.831,2014.92c0,0,0,0-0.011,0.014l0.002-0.014
			C3318.831,2014.92,3318.831,2014.92,3318.831,2014.92z"/>
	</g>
	<g>
		<path style="fill:#CC3B51;" d="M2922.444,2739.246l-9.084-0.001c3.54-8.583,6.582-17.558,8.99-26.898
			c10.624-41.172,9.356-86.104-2.139-122.034c-1.713-5.367-3.659-10.531-5.823-15.451c-14.118-32.078-38.028-50.181-63.757-61.539
			c-13.111-5.773-26.675-10.06-40.259-14.171c-13.417-4.07-26.694-8.546-40.016-12.954c-19.356-6.396-39.706-10.143-59.67-13.944
			c-8.92-1.704-18.887-1.881-27.141-6.194c-7.157-3.745-12.097-11.369-14.625-21.467c-5.275-21.047-2.493-47.054,0.44-70.195
			c3.204-25.196,8.051-50.878,8.023-75.925c-0.03-23.682-5.293-44.5-16.388-60.181c-9.946-14.073-23.592-23.009-38.254-26.079
			c-14.747-3.084-30.564-2.167-45.952,0.332c-14.7,2.391-29.251,7.323-43.494,15.756c-60.789,36.029-100.472,117.114-134.507,193.09
			c-5.244,11.705-10.327,23.586-15.513,35.373c-14.914,33.859-30.697,66.906-53.572,92.356
			c-28.818,32.073-62.283,51.331-94.537,72.914c-5.496,3.676-11.073,7.487-16.643,11.488l1.556-13.747
			c15.708-11.041,31.769-21.001,47.511-31.665c16.853-11.406,33.678-23.746,49.162-39.275
			c16.139-16.192,29.837-35.614,41.343-58.268c7.247-14.273,13.808-29.128,20.288-44.023c3.859-8.88,7.684-17.801,11.61-26.6
			c9.227-20.68,18.622-41.239,28.654-61.297c18.863-37.738,40.286-74.394,66.401-103.088c25.755-28.288,55.363-47.668,85.921-53.855
			c31.124-6.309,64.688-6.777,88.618,17.786c12.273,12.586,21.122,30.376,24.633,52.044c3.852,23.872,0.901,50.108-2.534,75.331
			c-3.512,25.737-8.172,52.446-6.608,77.71c0.659,10.652,2.685,21.993,9.083,27.657c7.478,6.625,18.946,6.153,27.904,7.857
			c20.262,3.855,40.565,8.102,60.372,13.958c13.916,4.124,27.633,9.155,41.538,13.374c27.379,8.29,55.375,17.35,78.319,38.101
			c13.816,12.478,24.653,29.268,32.334,49.058c6.396,16.438,10.595,34.97,12.506,54.814
			C2940.632,2665.876,2935.59,2704.454,2922.444,2739.246z"/>
	</g>
	<polygon style="fill:#8C4538;" points="3140.916,920.441 2919.324,920.414 3117.529,653.471 3165.49,703.333 	"/>
	<polygon style="fill:#B85B49;" points="3087.312,920.435 2854.654,920.406 2884.871,653.442 3117.529,653.471 	"/>
	<polygon style="fill:#B85B49;" points="3371.638,3024.046 3360.724,3120.541 3297.49,3120.53 3201.823,3120.518 3152.505,3120.518 
		2902.413,3120.484 2888.734,3120.484 1846.231,3120.348 1857.156,3023.854 2885.947,3023.99 2945.056,3023.99 2995.099,3024.001 
		3178.422,3024.024 3233.803,3024.024 3357.993,3024.046 	"/>
	<polygon style="fill:#8C4538;" points="3371.643,3024.044 3453.681,3072.302 3448.22,3120.548 3360.721,3120.537 	"/>
	<g>
		<path style="fill:#8C4538;" d="M3322.06,3314.647l-126.314-0.897c-6.6-0.047-11.961-5.485-11.914-12.085l1.636-230.36
			c0.047-6.6,5.485-11.961,12.085-11.914l126.314,0.897c6.6,0.047,11.961,5.485,11.915,12.085l-1.636,230.36
			C3334.098,3309.333,3328.66,3314.694,3322.06,3314.647z"/>
		<path style="fill:#B85B49;" d="M3274.188,3315.983l-126.314-0.897c-6.6-0.047-11.961-5.485-11.914-12.085l1.635-230.36
			c0.047-6.6,5.485-11.961,12.085-11.915l126.314,0.897c6.6,0.047,11.961,5.485,11.914,12.085l-1.635,230.36
			C3286.226,3310.668,3280.788,3316.03,3274.188,3315.983z"/>
		<path style="fill:#8C4538;" d="M2298.378,3306.541l-126.314-0.897c-6.6-0.047-11.961-5.485-11.914-12.085l1.635-230.36
			c0.047-6.6,5.485-11.961,12.085-11.915l126.314,0.897c6.6,0.047,11.961,5.485,11.915,12.085l-1.636,230.36
			C2310.417,3301.226,2304.978,3306.588,2298.378,3306.541z"/>
		<path style="fill:#B85B49;" d="M2250.506,3307.876l-126.314-0.897c-6.6-0.047-11.961-5.485-11.915-12.085l1.636-230.36
			c0.047-6.6,5.485-11.961,12.085-11.915l126.314,0.897c6.6,0.047,11.961,5.485,11.914,12.085l-1.635,230.36
			C2262.544,3302.562,2257.106,3307.923,2250.506,3307.876z"/>
	</g>
	<g>
		<path style="fill:#70372D;" d="M3335.439,3123.548h-198.184c-1.657,0-3-1.343-3-3c0-1.657,1.343-3,3-3h198.184
			c1.657,0,3,1.343,3,3C3338.439,3122.205,3337.096,3123.548,3335.439,3123.548z"/>
	</g>
</g>
<g id="girl">
	<g>
		<path style="fill:#993B28;" d="M1464.56,1498.012c-16.817,27.552-51.544,47.296-83.829,37.329
			c-0.998,2.454-2.05,4.909-3.182,7.309c-3.453,7.283-7.39,14.835-12.704,20.944c-4.841,5.57-11.557,10.6-19.056,11.531
			c-7.107,0.877-12.974-3.344-15.873-9.643c-1.295-2.805-2.198-5.745-3.304-8.631c-0.405-1.038-0.984-2.347-1.753-3.533
			c-0.432-0.674-1.16-1.497-1.861-1.888c-1.686-0.958-3.25-0.944-4.76,0.135c0,0.041-0.594,0.553-0.674,0.634
			c-0.216,0.229-0.445,0.485-0.648,0.742l-0.013,0.014c-0.054,0.121-0.58,0.931-0.688,1.119c-0.742,1.268-1.133,2.212-1.578,3.52
			c-2.185,6.433-2.036,12.744-3.506,19.339c-3.129,14.12-11.423,26.851-22.198,36.359c-10.991,9.696-24.639,16.574-39.096,19.177
			c-16.17,2.9-33.014,0.836-48.374-4.774c-15.887-5.786-30.398-15.064-42.67-26.648c-3.452-3.25-6.689-6.783-9.939-10.317
			c-9.75-1.578-19.299-4.801-28.078-8.982c-9.561-4.545-18.476-10.708-28.793-13.513c-10.533-2.873-21.133-0.674-30.897,3.736
			c-9.724,4.396-18.597,10.371-27.862,15.603c-9.332,5.286-19.164,9.683-29.292,13.203c-20.31,7.053-41.982,10.425-63.465,9.953
			c-10.721-0.243-21.456-1.443-31.962-3.614c-11.301-2.32-22.306-5.866-33.418-8.955c-11.288-3.156-22.791-5.934-34.565-6.163
			c-11.423-0.216-22.414,2.427-33.108,6.257c-10.627,3.803-20.863,8.577-31.436,12.529c-10.573,3.951-21.483,7.013-32.582,9.076
			c-22.144,4.113-45.07,4.37-67.079-0.688c-36.736-8.429-70.33-33.27-85.488-68.32c-7.687-17.802-9.885-37.127-6.905-56.264
			c3.129-20.108,11.841-39.163,23.169-55.953c12.252-18.146,27.518-33.327,44.19-46.98c8.336-6.827,17.024-13.271,25.867-19.517
			c17.065-9.752,32.995-20.666,47.89-32.581c7.448-5.957,14.636-12.166,21.578-18.61c94.299-73.824,90.965-197.161,134.244-297.302
			c8.388-14.866,18.389-28.195,29.304-41.056c14.696-19.603,31.53-38.227,50.284-54.717c9.377-8.245,19.234-15.957,29.543-22.993
			c35.349-25.412,75.723-40.358,117.482-45.772c13.919-1.805,27.992-2.551,42.084-2.273c37.843-1.597,75.6,4.497,110.485,17.093
			c11.628,4.198,22.938,9.119,33.824,14.718c13.373,5.847,25.515,12.543,36.578,20c25.122,17.118,45.421,38.081,61.226,61.606
			c7.902,11.762,14.681,24.165,20.377,37.005c28.883,59.863,18.883,129.865,12.216,196.534
			c-6.667,56.668,16.667,110.003,35.976,162.297c4.411,13.906,9.348,27.768,14.87,41.587c2.142,10.386,3.517,21.017,3.723,31.997
			C1479.142,1460.194,1475.315,1480.386,1464.56,1498.012z"/>
		<g>
			<path style="fill:#3D111C;" d="M1626.286,2160.516c-0.693,3.578-1.661,7.09-2.809,10.431c-1.262,3.673-2.781,7.223-4.527,10.659
				c-4.527,8.903-10.554,16.999-17.407,24.203c-21.745,22.855-50.883,35.27-79.424,46.916
				c-15.736,6.416-31.492,12.851-46.432,21.062c-0.854,0.465-1.699,0.94-2.544,1.414c-13.459,7.565-26.377,16.069-39.693,23.843
				c-14.095,8.248-28.778,15.68-44.543,20.131c-7.517,2.116-15.661,3.493-23.453,2.041c-4.803-0.911-9.235-2.752-13.174-5.572
				c-1.091-0.778-2.155-1.642-3.17-2.582c-3.929-3.616-6.843-8.115-8.893-13.013c-1.139-2.734-2.022-5.6-2.658-8.514
				c-0.74-3.331-1.177-6.72-1.338-10.061c-0.237-4.793,0.142-9.491,1.063-14.066c1.557-7.754,4.651-15.129,8.865-21.963
				c15.955-25.864,43.841-40.661,70.815-51.88c15.841-6.606,32.015-12.453,47.41-20.112c7.716-3.825,15.063-8.248,22.248-12.946
				c5.448-5.002,11.029-9.88,16.724-14.616c9.994-8.305,20.321-16.582,31.255-23.719c3.161-2.069,6.369-4.034,9.643-5.885
				c13.373-7.574,28.759-12.851,44.296-10.735c2.003,0.275,3.996,0.664,5.951,1.158c6.549,1.652,12.785,4.537,18.053,8.713
				c3.502,2.762,6.568,6.094,9.017,10.023c0.949,1.5,1.756,3.056,2.468,4.641c0,0.019,0,0.019,0,0.029
				c1.224,2.8,2.097,5.733,2.667,8.723C1628.042,2145.909,1627.69,2153.369,1626.286,2160.516z"/>
			<path style="fill:#F9DCCC;" d="M1624.022,2130.091c-0.705-1.592-1.513-3.148-2.462-4.65c-2.453-3.922-5.517-7.254-9.016-10.017
				c-6.843-5.433-15.336-8.677-24.01-9.876c-15.53-2.117-30.92,3.165-44.295,10.738c-14.575,8.241-28.017,18.896-40.9,29.603
				c-5.692,4.735-11.272,9.613-16.718,14.615c-7.184,4.705-14.534,9.127-22.253,12.949c-15.393,7.663-31.565,13.501-47.403,20.112
				c-26.976,11.217-54.868,26.016-70.823,51.881c-4.211,6.831-7.308,14.208-8.858,21.962c-0.923,4.574-1.299,9.272-1.064,14.066
				c0.162,3.338,0.597,6.73,1.336,10.062c-11.325-36.542-21.399-73.5-30.199-110.757c-10.006-42.365-18.357-85.117-25.042-128.136
				c-3.353-21.597-6.294-43.263-8.803-64.974c-2.248-19.522-4.274-39.102-5.033-58.744c-1.426-36.841,1.815-75.377,18.571-108.818
				c14.705-29.342,40.193-54.593,71.703-65.016c15.388-5.089,31.803-5.887,47.62-2.479c15.817,3.408,30.568,11.088,43.321,20.945
				c29.152,22.516,47.298,54.673,62.658,87.474c8.703,18.581,16.766,37.47,26.397,55.603c9.811,18.482,22.263,35.388,32.135,53.83
				c9.957,18.59,16.316,38.785,22.449,58.887c6.378,20.906,12.746,41.827,19.11,62.736
				C1616.299,2104.751,1620.168,2117.427,1624.022,2130.091z"/>
			<path style="fill:#F7816F;" d="M1566.281,2651.714c-27.136,0-91.715-223.076-111.286-271.463
				c-7.09-17.531,2.734-59.131,18.148-105.051c19.087-56.891,46.755-120.407,61.457-153.029c3.161-2.069,6.369-4.034,9.643-5.885
				c13.373-7.574,28.759-12.851,44.296-10.735c2.003,0.275,3.996,0.664,5.951,1.158c3.911,12.054,12.946,39.864,24.459,74.896
				c33.172,100.969,57.182,246.682,67.898,263.757C1702.574,2470.43,1593.408,2651.714,1566.281,2651.714z"/>
		</g>
		<path style="fill:#FA9385;" d="M1609.494,3241.637c-3.25,15.01-8.375,29.885-18.125,41.968
			c-8.564,10.6-20.35,17.896-33.041,22.549c-28.01,10.277-59.419,8.928-88.779,9.467c-9.44,0.175-18.894,0.324-28.348,0.459
			c-9.44,0.121-18.894,0.229-28.348,0.324c-145.299,8.038-289.599-1.403-435.761-2.549c-12.893,0.176-25.785,0.256-38.638,0.162
			c-64.315-0.486-127.982-5.313-188.575-25.111c-8.186-4.666-14.929-10.519-20.472-17.208
			c-16.642-20.094-22.508-47.902-24.073-74.227c-1.227-20.796-0.486-41.78,0.458-62.562c1.011-22.185,2.778-44.329,5.3-66.392
			c10.142-89.021,32.299-176.613,66.014-259.633c30.06-74.011,72.838-143.815,93.418-221.333
			c-0.054-1.902,1.632-48.833,3.479-100.066c-2.805-35.9-8.995-71.584-17.923-106.472
			c-21.079-82.373-57.356-159.216-101.078-231.838c-23.061-38.287-45.974-76.56-60.862-118.92
			c-13.581-38.651-22.4-79.783-20.58-120.943c1.753-39.312,14.322-77.895,41.537-106.985c26.244-28.064,61.267-45.65,95.643-61.618
			c62.481-29.049,125.933-56.021,190.194-80.93l30.789-14.889c2.737-47.754,4.895-95.549,6.406-143.37
			c1.281-40.863,2.117-81.739,2.508-122.629c0.013-2.293,0.041-4.585,0.054-6.891c1.308,0.31,2.603,0.62,3.87,0.89
			c0.944,0.202,1.902,0.418,2.846,0.607c7.067,1.537,14.12,3.034,21.2,4.491c0.85,0.175,1.699,0.351,2.549,0.526
			c3.264,0.661,6.527,1.322,9.791,1.982c24.45,4.909,48.968,9.454,73.539,13.621c13.257,2.252,26.541,4.383,39.838,6.419
			c2.266,0.351,4.518,0.688,6.77,1.025c0.054,2.266,0.094,4.518,0.162,6.784c0.27,11.895,0.58,23.776,0.917,35.657
			c0.216,8.065,0.445,16.129,0.701,24.194c0.512,16.439,1.079,32.866,1.713,49.305c0.404,11.072,0.849,22.157,1.322,33.229
			c1.146,27.336,2.441,54.672,3.897,81.995c0.229,4.315,0.486,8.645,0.715,12.974c0.229,0.202,0.445,0.418,0.674,0.62
			c2.09,1.928,4.181,3.844,6.257,5.759c31.638,16.75,63.277,33.486,94.901,50.235c16.493,8.725,32.973,17.451,49.453,26.177
			c14.295,7.566,28.739,14.956,42.805,22.967c23.331,13.27,46.904,29.022,62.184,51.584c8.173,12.057,13.419,25.61,15.266,40.08
			c2.292,17.734,0.849,35.954,0,53.755c-0.931,19.528-2.266,39.055-4.005,58.529c13.014,19.528,25.462,39.447,36.196,60.31
			c13.675,26.635,24.45,55.023,29.089,84.706c4.909,31.476,2.886,63.654-3.951,94.672c-6.999,31.813-18.611,62.414-32.299,91.921
			c-3.479,7.525-7.107,14.997-10.843,22.414c-0.418,24.639-0.944,49.265-1.645,73.876c-1.794,62.562-4.531,125.11-8.226,187.577
			c-0.108,1.767-0.216,3.533-0.324,5.313c4.046,20.041,8.766,39.959,13.985,59.73c13.189,49.925,29.346,99.001,45.259,148.104
			c16.008,49.426,31.827,98.96,44.18,149.439c10.223,41.807,17.68,84.234,21.847,127.039c4.801,27.471,7.323,55.347,7.485,83.263
			C1619.002,3176.405,1616.426,3209.688,1609.494,3241.637z"/>
		<path style="fill:#F9DCCC;" d="M1238.767,2692.999c-53.149,0-106.039-2.36-155.658-4.777l-4.486-0.217
			c-47.781-2.318-97.187-4.713-145.272-12.272c-31.792-4.995-59.909-11.892-85.956-21.085l-1.349-0.477l0.554-1.318
			c0.859-2.043,1.692-4.099,2.512-6.153c8.547-21.273,15.111-40.679,20.065-59.324c0.022-3.78,1.524-45.679,3.478-99.864
			c-2.715-34.695-8.73-70.413-17.878-106.167c-19.119-74.712-52.133-150.428-100.927-231.477
			c-22.54-37.421-45.847-76.116-60.979-119.168c-15.555-44.271-22.311-83.998-20.655-121.449
			c1.933-43.321,16.421-80.613,41.9-107.847c26.391-28.222,61.925-46.064,96.059-61.919
			c50.259-23.365,102.078-45.793,154.022-66.662l7.447-2.975l0.63,0.726c13.384,15.448,31.296,29.652,56.37,44.703
			c28.708,17.234,57.508,29.145,85.599,35.403c15.112,3.371,30.068,5.081,44.452,5.081c14.703,0,28.819-1.796,41.956-5.336
			c24.72-6.651,47.2-19.24,65.011-36.406c8.088-7.788,15.001-16.412,20.549-25.631l0.658-1.094c0,0,5.803,3.073,7.134,3.782
			c6.333,3.343,12.66,6.687,18.985,10.045c14.517,7.679,49.453,26.176,49.453,26.176c3.383,1.791,6.775,3.572,10.169,5.354
			c10.775,5.657,21.917,11.508,32.673,17.634c22.052,12.542,46.739,28.529,62.634,52c8.416,12.417,13.627,26.099,15.487,40.666
			c2.002,15.486,1.173,31.429,0.371,46.847c-0.124,2.387-0.248,4.77-0.361,7.144c-0.921,19.332-2.256,38.88-3.968,58.112
			c15.559,23.367,26.675,41.902,36.01,60.046c15.401,29.995,24.96,57.836,29.223,85.114c4.678,29.99,3.343,62.011-3.966,95.171
			c-6.3,28.632-16.896,58.79-32.393,92.198c-3.278,7.089-6.885,14.549-10.723,22.177c-0.454,26.719-0.992,50.793-1.641,73.584
			c-1.79,62.461-4.559,125.586-8.229,187.619l-0.312,5.14c3.833,18.969,8.52,38.98,13.932,59.479
			c1.544,5.829,3.161,11.771,4.809,17.661c0.595,2.188,1.201,4.341,1.819,6.507l0.371,1.299l-1.298,0.369
			c-33.991,9.656-70.935,17.161-109.806,22.305c-46.633,6.167-97.725,9.202-156.196,9.277L1238.767,2692.999z"/>
		<g>
			<path style="fill:#CC3B51;" d="M1220.557,2137.279c0,0-34.69-54.053,10.905-62.125c45.595-8.071,60.124,11.3,63.352-16.143
				c3.229-27.443-46.811-85.686-26.634-118.714s44.391-0.743,60.534,52.529c16.143,53.271,53.458,97.422,91.3,76.961
				c37.842-20.461,39.009-42.037,61.833-32.864c22.824,9.174,29.281,45.67-2.998,100.355c-23.565,39.923-53.402,65.001-61.35,96.075
				C1409.551,2264.428,1220.557,2137.279,1220.557,2137.279z"/>
			<path style="fill:#CC3B51;" d="M1223.456,1985.081c-35.8-35.407-61.774-6.864-40.092,21.129
				c16.361,21.123,51,37.238,67.85,41.889c6.48,1.789,5.577-2.95,4.274-9.545
				C1253.206,2027.007,1245.956,2007.334,1223.456,1985.081z"/>
		</g>
		<g>
			<path style="fill:#F7816F;" d="M2287.41,3173.686c2.956-4.79,2.723-10.654,1.229-15.89c-0.669-2.359-1.605-4.617-2.726-6.803
				c-0.376-0.754-0.773-1.482-1.194-2.221c0.025-0.901,0.069-1.807,0.127-2.699c0.195-3.654,0.414-7.296,0.677-10.953
				c0.346-5.098,0.738-10.212,1.199-15.299c1.273-14.311,2.981-28.58,5.043-42.808c0.23-0.889,0.45-1.776,0.686-2.648
				c2.08-8.442,3.876-17.128,3.145-25.849c-0.735-8.821-4.347-16.877-9.372-24.073c-10.451-14.958-48.2-63.146-54.661-72.451
				c-2.491-3.595-4.881-7.395-8.177-10.317c-2.934-2.594-6.537-4.148-10.305-5.036c-4.03-0.949-8.185-1.145-12.295-1.415
				c-4.966-0.311-9.944-0.628-14.913-0.948l-61.265-3.879c-19.744-1.245-39.435-2.629-59.217-1.416
				c-13.082,0.816-26.085,2.427-39.024,4.497c-21.956-28.025-43.693-56.235-65.209-84.59c-22.063-29.112-43.899-58.38-65.495-87.83
				c-21.705-29.594-43.688-79.404-64.909-109.343c-15.61-22.018-116.467-196.959-182.652-242.037l-150.192,62.07
				c-19.826,16.401-33.769,37.211-31.23,63.359c2.549,28.9,11.51,54.094,24.644,76.822c6.558,11.367,14.149,22.113,22.397,32.316
				c10.513,10.587,21.087,21.114,31.731,31.557c10.621,10.431,21.31,20.768,32.043,30.97
				c97.86,96.774,211.472,178.048,328.434,252.794c14.194,8.879,28.456,17.635,42.783,26.258
				c14.325,8.644,28.717,17.165,43.191,25.569c5.696,11.869,12.189,23.368,20.04,33.936c9.087,12.263,20.049,23.17,33.101,31.193
				c11.893,7.324,25.177,12.011,38.632,15.519c21.338,5.565,43.509,8.324,64.6,14.725c-0.286,0.338-0.564,0.672-0.835,1.025
				c-2.127,2.625-4.082,5.402-5.838,8.292c-0.479,0.804-0.952,1.595-1.408,2.411c-4.054,7.227-7.599,15.724-8.364,24.051
				c-0.652,7.096,2.329,16.037,10.435,17.158c3.992,0.541,7.78-1.144,11.062-3.258c4.057-2.608,7.811-5.784,11.496-8.897
				c2.478-2.093,4.898-4.266,7.288-6.469c-3.066,6.21-5.263,12.858-6.441,19.671c-0.671,3.845-1.177,8.356,1.367,11.663
				c2.175,2.81,5.983,3.725,9.359,3.131c4.429-0.77,8.142-3.772,11.668-6.35c3.87-2.805,7.664-5.714,11.389-8.68
				c1.695-1.356,3.357-2.721,5.019-4.116c2.421-2.023,4.8-4.082,7.155-6.183c0.19,0.146,0.368,0.316,0.558,0.462
				c6.454,5.53,12.896,11.053,19.514,16.386c10.9,8.802,23.97,16.91,38.584,15.555
				C2276.746,3182.021,2283.844,3179.455,2287.41,3173.686z M2208.467,3068.355c-0.444-0.571-0.891-1.151-1.314-1.719
				c-1.469-1.938-2.904-3.896-4.304-5.897c-0.438-0.613-0.862-1.211-1.267-1.816c-0.272-0.389-0.541-0.799-0.813-1.188
				c-0.109-0.143-0.188-0.287-0.278-0.437c-0.505-0.751-1.004-1.514-1.503-2.277c-1.158-1.762-2.293-3.542-3.41-5.358
				c0.015,0.015,0.033,0.009,0.054,0.012c4.567,1.058,9.477,1.939,12.582,5.396c2.569,2.847,3.571,6.988,4.861,10.499l4.345,11.726
				l1.074,2.903l0.225,0.635C2215.155,3076.792,2211.74,3072.628,2208.467,3068.355z"/>
			<path style="fill:#BF4134;" d="M2147.438,3107.793c-2.12,2.621-4.081,5.402-5.834,8.292c12.138,2.972,23.425,8.589,33.788,15.82
				c7.053,4.925,13.649,10.487,20.031,16.244c2.97,2.665,6.098,5.39,9.052,8.246c2.421-2.024,4.797-4.083,7.156-6.186
				c0.189,0.149,0.368,0.32,0.557,0.469c-3.481-3.42-7.205-6.634-10.719-9.823c-7.084-6.392-14.444-12.532-22.383-17.857
				C2169.256,3116.396,2158.69,3111.054,2147.438,3107.793z"/>
			<path style="fill:#BF4134;" d="M2143.499,2974.272c21.004,11.487,31.073,33.964,40.915,54.575
				c0.414,0.858,0.827,1.715,1.254,2.568c2.393,4.908,4.932,9.663,7.611,14.299c0.771,1.332,1.557,2.659,2.352,3.966
				c1.093,1.803,2.211,3.58,3.358,5.346c0.495,0.76,0.991,1.521,1.502,2.276c0.364,0.54,0.729,1.079,1.093,1.618
				c0.406,0.608,0.827,1.211,1.269,1.823c1.378,1.985,2.815,3.948,4.298,5.895c0.425,0.568,0.871,1.145,1.316,1.722
				c3.133,4.034,6.468,7.978,10.026,11.84c0.237,0.283,0.504,0.556,0.757,0.833c3.238,3.491,6.604,6.92,10.019,10.297
				c3.553,3.528,7.19,7.009,10.836,10.469c16.34,15.522,33.105,30.872,45.811,49.196c-0.375-0.754-0.775-1.482-1.195-2.219
				c0.025-0.9,0.065-1.805,0.125-2.7c0.199-3.651,0.418-7.293,0.682-10.951c-14.135-17.266-31.199-32.238-47.232-48.023
				c-0.354-2.912-0.715-5.839-1.07-8.751c-0.998-8.138,0.194-22.485-6.525-28.338c-6.673-5.82-19.323-7.429-27.547-10.448
				c-0.893-0.33-1.806-0.67-2.69-1.02c-4.57-8.164-8.773-16.614-13.069-25.316c-9.37-19.035-20.805-37.1-39.896-47.536
				C2142.142,2962.752,2138.169,2971.357,2143.499,2974.272z M2227.391,3075.983c-0.71-0.75-1.425-1.514-2.12-2.269
				c-6.601-7.19-12.218-14.721-17.253-22.548c3.317,1.127,6.65,2.249,9.948,3.417c6.824,2.404,7.507,5.667,8.336,12.506
				C2226.673,3070.044,2227.029,3073.006,2227.391,3075.983z"/>
		</g>
		<path style="fill:#5065BA;" d="M1635.027,3177.309c-2.771,19.419-8.352,38.241-15.243,56.587
			c-6.302,16.762-12.699,34.701-23.52,49.166c-9.235,12.396-22.01,20.89-36.428,26.177c-14.712,5.401-30.505,7.46-46.062,8.647
			c-19.315,1.471-38.734,1.993-58.087,2.752c-76.937,2.99-153.941,4.252-230.935,3.74c-2.553-0.019-5.087-0.028-7.621-0.057
			c-3.322-0.019-6.625-0.057-9.938-0.085c-65.358-0.646-130.677-2.563-195.95-5.714c-0.313-0.029-0.627-0.029-0.921-0.029
			c-2.525,0.057-5.04,0.104-7.565,0.133c-36.684,0.437-73.368-0.769-110.005-2.544c-18.195-0.883-36.371-1.908-54.566-2.961
			c-17.758-1.016-35.716-2.022-53.038-6.331c-7.223-1.794-14.484-4.385-21.403-7.745c-0.56-0.256-1.111-0.484-1.69-0.674
			c-1.661-0.541-3.303-1.101-4.926-1.737c-2.325-0.892-4.632-1.889-6.891-2.999c-3.398-1.652-6.682-3.559-9.843-5.742
			c-12.472-8.618-21.242-20.986-27.553-34.615c-6.9-14.93-11.874-30.847-15.651-46.84c-7.688-32.546-9.757-66.221-8.258-99.555
			c1.528-33.865,6.559-67.493,13.032-100.723c6.635-34.121,14.465-68.091,22.884-101.814c3.654-14.645,7.631-29.233,12.386-43.556
			c0.826-2.515,1.69-5.031,2.572-7.536c5.818-16.496,12.823-32.555,20.065-48.482c0.152-0.342,0.294-0.665,0.446-0.997
			c8.381-18.413,16.705-36.808,24.583-55.401c5.856-13.81,11.466-27.725,16.686-41.838c2.117-5.742,4.195-11.513,6.217-17.303
			c20.957-59.919,36.447-121.708,46.337-184.417c-0.095-0.864,0.142-1.794,0.911-2.61c10.64-11.352,21.128-22.855,31.198-34.719
			c20.511-24.193,39.351-49.972,54.053-78.152c14.683-28.161,25-58.438,31.825-89.428c14.237-64.627,12.975-131.446,5.904-196.908
			c-7.593-70.436-20.492-140.368-31.739-210.291c-5.6-34.843-11.2-69.695-16.809-104.548c-2.79-17.417-5.59-34.843-8.391-52.269
			c-1.319-8.143-3.331-16.961-4.005-25.703c-0.047-0.598-0.133-1.186-0.256-1.765c-0.351-1.661-0.693-3.303-1.034-4.955
			c-1.386-6.672-3.55-14.484-0.076-20.871c2.79-5.135,8.542-7.754,13.886-9.615c4.138-1.443,8.4-2.496,12.719-3.199
			c2.8-0.455,5.714-0.75,8.4,0.389c3.132,1.329,4.736,4.309,5.258,7.546c0.607,3.654,0.949,7.356,1.376,11.038
			c0.294,2.601,0.579,5.192,0.864,7.792c0.057,0.494,0.133,0.978,0.247,1.452c0.996,4.632,2.003,9.273,3.018,13.915
			c7.508,34.52,15.025,69.05,22.532,103.57c15.025,69.078,29.888,138.176,45.084,207.216c3.521,15.964,7.232,31.91,12.111,47.495
			c2.439,7.783,5.154,15.471,8.296,22.979c2.79,6.692,5.742,13.649,10.099,19.495c10.535,14.104,28.294,10.393,43.604,9.121
			c17.521-1.452,35.052-2.895,52.582-4.347l86.875-7.223l6.701-0.551l12.396-1.025c17.521-1.452,35.052-2.895,52.573-4.356
			c8.76-0.731,17.531-1.452,26.291-2.183c7.099-0.598,16.211-0.285,21.299-6.179c4.271-4.964,4.745-12.377,4.898-18.612
			c0.19-8.286,0-16.61-0.19-24.906c-0.38-17.141-1.253-34.264-2.582-51.367c-2.648-34.71-7.09-69.278-12.699-103.636
			c-11.124-68.243-26.756-135.632-42.389-202.954c-0.579-2.496,1.595-4.812,4.138-4.157c1.12,0.294,2.193,0.636,3.256,0.996
			c0.218,0.028,0.427,0.066,0.655,0.142c5.372,1.794,10.716,3.664,16.012,5.657c4.48,1.68,9.975,3.066,13.497,6.502
			c3.132,3.094,4.024,7.65,5.116,11.731c1.224,4.603,2.401,9.226,3.502,13.867c2.212,9.264,4.167,18.584,5.885,27.943
			c1.538,6.511,2.866,13.07,4.233,19.619l9.842,47.694c6.511,31.511,13.032,63.032,19.543,94.544c0.93,4.546,1.87,9.083,2.81,13.611
			c0.085,0.446,0.161,0.873,0.199,1.319c1.186,10.877,2.354,21.745,3.711,32.574c5.163,41.525,14.437,82.556,22.846,123.511
			c8.571,41.8,17.597,83.429,27.658,124.897c9.843,40.49,20.682,80.658,32.375,120.645c6.312,21.612,12.68,43.29,20.245,64.522
			c0.55,1.575,0.835,3.246,0.807,4.917c-0.199,11.048-0.389,22.077-0.607,33.115c-0.009,0.589-0.142,1.101-0.37,1.538
			c-1.044,1.974-1.367,4.271-1.395,6.511c-0.418,31.502,0.608,63.023,4.224,94.563c8.248,72.068,26.415,142.57,46.214,212.218
			c7.042,24.744,14.313,49.45,21.488,74.175c1.984,6.843,3.958,13.696,5.913,20.549c11.02,38.459,21.564,77.032,30.391,116.061
			c7.83,34.71,14.266,69.761,18.394,105.107c0.332,2.876,0.655,5.752,0.968,8.637c0.038,0.351,0.095,0.712,0.161,1.063
			c2.629,13.421,4.641,26.956,5.771,40.623C1638.074,3138.518,1637.77,3158.032,1635.027,3177.309z"/>
		<path style="fill:#F0C8AC;" d="M1574.849,2827.103c-4.032-5.866-8.078-11.733-12.111-17.599
			c-15.32-22.279-30.64-44.558-45.96-66.85c-7.175-10.438-14.349-20.876-21.537-31.328c-1.497-2.185-3.008-4.383-4.518-6.581
			c-2.657,0.081-5.327,0.162-7.997,0.256c-50.317,1.564-100.66,3.142-150.99,4.707c-15.725,0.486-31.463,0.985-47.188,1.47
			c-2.603-57.774-5.435-115.521-8.496-173.269c8.82-0.957,17.626-1.915,26.446-2.873c14.363-1.564,28.793-2.899,42.98-5.705
			c23.682-4.693,49.426-13.89,62.629-35.576c8.456-13.877,9.332-30.263,9.346-46.095c0.027-18.233-0.243-36.453-0.715-54.672
			c-0.931-36.305-2.792-72.568-5.57-108.779c-2.252-29.251-5.098-58.462-8.55-87.605c-0.27-2.225-0.526-4.437-0.796-6.662
			c-2.225,0.202-4.45,0.405-6.676,0.593c-40.391,3.628-80.781,7.256-121.172,10.883c-6.028,0.539-12.07,1.079-18.098,1.618
			c-2.104-31.126-4.275-62.251-6.5-93.364l-6.703,0.553c2.239,31.139,4.41,62.279,6.514,93.418
			c-45.488,4.073-90.977,8.159-136.452,12.232c-20.027,1.794-40.053,3.601-60.08,5.395c-2.252,0.202-4.504,0.405-6.757,0.607
			c-0.054,2.252-0.108,4.505-0.135,6.757c-0.432,22.144-0.391,44.288,0.108,66.432c0.823,36.143,2.859,72.258,6.123,108.266
			c1.645,18.139,3.601,36.237,5.867,54.308c1.146,9.13,2.36,18.26,3.668,27.377c1.106,7.849,2.09,15.779,4.329,23.398
			c2.131,7.269,5.502,14.174,10.708,19.73c4.72,5.044,10.694,8.766,17.019,11.449c14.525,6.204,30.883,7.822,46.513,8.631
			c36.102,1.875,72.285-3.412,108.091-7.296c7.053-0.769,14.106-1.537,21.16-2.293c0.027,0.486,0.054,0.985,0.081,1.47
			c3.007,57.073,5.812,114.186,8.388,171.286c-43.088,1.349-86.176,2.697-129.25,4.032c-23.601,0.728-47.188,1.47-70.788,2.212
			c-3.061,0.094-6.109,0.188-9.171,0.283c-2.009,2.306-4.046,4.612-6.109,6.905h-0.013c-12.582,14.106-25.624,27.862-39.042,41.213
			c-20.58,20.458-42.103,39.973-64.436,58.503c-23.236,19.271-47.269,37.558-71.314,55.792
			c-24.895,18.881-49.804,37.761-74.699,56.641c-7.862,5.961-15.725,11.922-23.587,17.883c-2.819,2.144-5.651,4.289-8.483,6.433
			c-0.809,3.398-1.605,6.797-2.373,10.209c-2.266,9.899-4.383,19.838-6.393,29.791c-5.462,27.255-9.953,54.699-13.526,82.279
			c-3.56,27.525-6.15,55.185-7.768,82.898c-1.618,27.579-2.279,55.226-1.956,82.845c0.162,14.781,0.607,29.561,1.335,44.328
			c2.252,1.106,4.558,2.104,6.891,2.994c-0.634-12.151-1.079-24.302-1.322-36.452c-0.566-27.619-0.162-55.266,1.2-82.859
			c1.362-27.606,3.695-55.144,6.972-82.575c3.277-27.404,7.539-54.686,12.745-81.793c3.075-16.008,6.473-31.962,10.209-47.822
			c6.824-5.178,13.648-10.344,20.472-15.522c24.922-18.894,49.831-37.788,74.753-56.682c24.396-18.503,48.846-36.925,72.609-56.237
			c22.751-18.476,44.733-37.896,65.758-58.34c17.761-17.262,34.848-35.226,51.22-53.81h0.013
			c52.569-1.645,105.151-3.277,157.706-4.922c16.21-0.499,32.434-1.011,48.644-1.524c4.275,94.834,7.93,189.681,11.005,284.556
			c2.266,70.087,4.208,140.187,5.826,210.288c-3.763,0.58-7.512,1.173-11.274,1.78c-2.805,0.445-5.597,0.904-8.388,1.375
			c-11.234,1.888-22.441,3.965-33.567,6.419c-14.902,3.291-29.656,7.296-44.059,12.407c-1.712,0.607-2.859,2.306-2.346,4.14
			c0.459,1.672,2.414,2.967,4.14,2.36c23.304-8.267,47.484-13.58,71.8-17.815c-10.303,19.177-20.607,38.354-30.91,57.531
			c-7.727,14.39-15.482,28.792-23.21,43.182c2.535,0.027,5.071,0.041,7.62,0.054c14.241-26.513,28.496-53.027,42.737-79.541
			c4.059-7.552,8.119-15.104,12.178-22.656c5.138-0.849,10.29-1.672,15.428-2.468c2.239-0.35,4.491-0.701,6.729-1.038
			c18.975-2.913,37.963-5.691,56.817-9.306c15.023-2.872,29.952-6.284,44.612-10.654c4.154-1.241,2.387-7.754-1.78-6.5
			c-26.015,7.754-52.785,12.434-79.568,16.601c-6.743,1.038-13.486,2.063-20.243,3.102c-3.183-137.463-7.606-274.886-13.284-412.268
			c-1.119-27.256-2.293-54.511-3.533-81.752c42.602-1.335,85.205-2.67,127.807-3.992c24.868-0.782,49.723-1.564,74.591-2.333
			c5.934,8.631,11.868,17.262,17.802,25.893c15.32,22.279,30.64,44.572,45.96,66.851c9.926,14.443,19.919,28.846,29.764,43.344
			C1578.814,2840.804,1576.831,2833.954,1574.849,2827.103z M1273.8,2531.407c-1.605,0.175-3.196,0.351-4.801,0.526
			c-16.237,1.753-32.474,3.52-48.698,5.286c-17.613,1.902-35.252,3.749-52.973,4.396c-17.181,0.62-34.619,0.243-51.598-2.724
			c-12.973-2.266-26.716-6.46-35.563-16.817c-4.801-5.624-7.323-12.785-8.968-19.878c-1.794-7.754-2.724-15.698-3.817-23.573
			c-2.455-17.599-4.599-35.253-6.46-52.933c-3.722-35.563-6.258-71.26-7.593-107.012c-1.133-30.195-1.416-60.431-0.809-90.653
			c43.924-3.938,87.862-7.876,131.786-11.827c21.78-1.955,43.547-3.897,65.326-5.866c2.225-0.189,4.464-0.391,6.689-0.594
			c29.737-2.67,59.487-5.34,89.224-8.01c16.804-1.497,33.594-3.007,50.384-4.518c2.36,19.919,4.437,39.878,6.231,59.865
			c3.196,35.644,5.502,71.368,6.905,107.133c0.701,17.883,1.187,35.779,1.43,53.661c0.135,9.076,0.202,18.152,0.216,27.228
			c0.013,8.011,0.067,16.116-1.133,24.046c-1.969,13.122-7.687,24.679-17.734,33.432c-8.82,7.687-19.838,12.556-30.923,15.968
			c-11.895,3.668-24.221,5.813-36.561,7.336c-16.183,1.982-32.461,3.574-48.671,5.327
			C1275.054,2531.273,1274.434,2531.34,1273.8,2531.407z"/>
		<path style="fill:#3D111C;" d="M1454.995,2522.727c-43.36,18.533-86.19,39.226-123.194,68.458
			c-3.364,2.657-6.68,5.385-9.943,8.178c-25.303,22.474-54.726,38.609-84.117,56.491c-3.296,1.781-6.575,3.584-9.825,5.43
			c-3.25,1.846-6.471,3.734-9.65,5.685c-3.897,1.585-7.797,3.051-11.697,4.501c-27.297,10.115-54.466,20.857-81.47,30.309
			c-3.348,1.035-6.702,2.064-10.056,3.093c-6.708,2.058-13.416,4.115-20.123,6.172c-4.025,1.234-8.049,2.471-12.068,3.789
			c-10.207,4.846-20.085,10.203-29.912,15.61c-3.276,1.802-6.546,3.61-9.821,5.407c-3.477,2.195-6.978,4.242-10.493,6.237
			c-33.151,19.273-68.269,35.408-103.143,51.06c-2.452,1.217-4.912,2.43-7.379,3.634c-12.331,6.017-24.82,11.748-37.188,17.656
			c-2.372,1.174-4.784,2.291-7.24,3.346c-2.455,1.055-4.953,2.046-7.499,2.969c-3.221,1.681-6.496,3.275-9.837,4.751
			c-13.734,6.103-28.094,10.535-42.578,14.417c-26.775,7.185-53.636,14.095-80.525,20.872c0.826-2.515,1.69-5.031,2.572-7.536
			c5.818-16.496,12.823-32.555,20.065-48.482c0.152-0.342,0.294-0.665,0.446-0.997c8.381-18.413,16.705-36.808,24.583-55.401
			c24.289-1.984,48.406-9.34,71.347-16.553c10.305-3.24,20.577-6.599,30.828-10.031c3.417-1.144,6.831-2.296,10.246-3.451
			c7.641-2.316,15.311-4.882,22.994-7.568c2.561-0.896,5.124-1.805,7.688-2.722c3.418-1.224,6.838-2.463,10.259-3.706
			c3.024-1.178,6.056-2.298,9.093-3.375c21.259-7.541,42.769-12.997,63.705-21.761c3.441-1.292,6.878-2.569,10.313-3.847
			c3.435-1.264,6.868-2.527,10.3-3.784c2.505-0.883,5.01-1.767,7.515-2.651c7.514-2.653,15.027-5.312,22.539-7.976
			c68.157-24.184,136.163-48.776,204.121-73.501c33.799-12.301,67.607-24.526,101.349-36.959
			c24.042-8.846,48.027-18.072,71.242-28.921C1443.947,2522.1,1449.461,2522.499,1454.995,2522.727z"/>
		<path style="fill:#3D111C;" d="M921.006,2214.039c-0.067,7.202-1.888,14.444-4.666,21.173c-1.389,3.371-3.034,6.622-4.814,9.669
			c-7.053,12.043-17.1,21.942-28.375,29.858c-25.826,18.112-56.844,24.545-87.12,30.33c-16.695,3.183-33.405,6.392-49.669,11.49
			c-15.657,4.923-30.883,11.126-46.392,16.44c-15.442,5.3-31.301,9.696-47.633,10.95c-7.795,0.594-16.048,0.337-23.398-2.63
			c-4.531-1.834-8.51-4.518-11.814-8.051c-0.917-0.984-1.794-2.036-2.603-3.156c-3.142-4.329-5.111-9.305-6.15-14.511
			c-0.58-2.913-0.876-5.893-0.93-8.874c-0.067-3.412,0.175-6.824,0.674-10.128c0.715-4.747,2.009-9.278,3.816-13.58
			c3.048-7.296,7.539-13.918,13.014-19.784c20.742-22.212,51.004-31.22,79.662-36.898c16.831-3.358,33.837-5.893,50.438-10.371
			c8.321-2.225,16.399-5.111,24.369-8.307c6.325-3.83,12.758-7.512,19.271-11.032c14.74-7.957,30.02-15.752,45.934-20.958
			c14.605-4.787,30.735-6.931,45.542-1.793c8.267,2.886,15.954,7.741,21.591,14.417c2.886,3.398,5.232,7.269,6.864,11.598
			c0.634,1.659,1.119,3.344,1.497,5.044c0,0.014,0,0.014,0,0.027C920.764,2207.944,921.047,2210.992,921.006,2214.039z"/>
		<path style="fill:#FA9385;" d="M1391.013,1294.276c-0.759,7.204-1.68,14.36-2.762,21.469c-2.098,13.896-4.821,27.592-8.248,40.955
			c-3.835,14.797-8.684,29.689-14.655,44.125c-7.289,17.711-16.278,34.738-27.079,50.086
			c-24.193,34.34-57.603,60.185-102.156,66.079c-2.022,0.256-4.034,0.484-6.046,0.636c-0.531,0.057-1.063,0.095-1.594,0.133
			c-0.019,0-0.019,0-0.019,0c-23.311,1.746-45.35-2.458-65.994-10.811c-38.117-15.404-71.451-44.942-99.156-77.241
			c-7.944-9.254-15.423-18.755-22.419-28.208c-6.881-9.776-13.259-19.865-19.182-30.259c-2.183-3.844-4.309-7.726-6.378-11.636
			v-0.01c-0.01-0.019-0.01-0.019-0.01-0.019c-3.531-6.672-6.891-13.459-10.099-20.331c-7.612-16.392-14.323-33.296-20.198-50.522
			c-33.524-86.524-64.57-182.861-16.99-273.428c38.725-72.163,111.846-110.195,188.129-115.017
			c25.513-1.262,51.386,1.481,76.396,8.324c13.07,3.521,25.74,8.22,37.813,14.142c39.997,18.508,70.55,50.494,90.7,88.412
			c6.729,12.633,12.301,25.94,16.686,39.617c4.034,13.971,7.66,28.237,9.938,42.683c2.287,14.446,3.227,29.072,1.908,43.841
			c0.256,4.356,0.427,8.675,0.512,12.994C1394.468,1195.063,1396.205,1245.31,1391.013,1294.276z"/>
		<path style="fill:#993B28;" d="M1052.837,1094.628c-5.25,32.49-25.251,62.491-37.405,90.876
			c-3.784,9.851-6.041,20.375-5.439,32.183c-1.325,17.048,0.548,34.12,0.641,51.169c0.065,12.867-1.719,32.226-17.483,35.222
			c-8.166,1.541-15.8-2.642-21.557-8.124c-6.09-5.796-10.376-13.43-13.935-20.975c-7.776-16.405-12.161-34.25-17.173-51.618
			c-5.424-18.87-11.16-37.677-16.11-56.662c-4.346-16.672-7.395-33.61-8.768-50.756c2.24-0.066,4.479-0.145,6.719-0.211
			c10.481,1.18,20.841,0.19,31.203-1.861c30.721-10.087,60.722-20.087,94.62-20.857
			C1049.708,1093.565,1051.267,1094.104,1052.837,1094.628z"/>
		<g>
			<path style="fill:#3D111C;" d="M1435.955,2526.76L1435.955,2526.76c-16.391-10.523,9.811-80.831,24.201-103.245l197.426-291.922
				c3.384-5.271,8.95-22.583,12.805-20.108l45.585,29.267c3.855,2.475-12.519,18.602-15.904,23.874l-180.309,297.156
				C1505.368,2484.195,1452.345,2537.283,1435.955,2526.76z"/>
			<path style="fill:#8C4538;" d="M1675.717,2108.066c0,0,7.339-37.812,41.504-72.468c34.165-34.656,73.024-73.972,73.279-58.462
				c0.255,15.51-18.732,84.85-36.444,113.764s-36.697,43.902-36.697,43.902L1675.717,2108.066z"/>
			<path style="fill:#FAF2ED;" d="M1657.525,2218.202l-33.235-21.338c-5.554-3.566-7.181-11.027-3.615-16.581l48.083-74.893
				c3.566-5.554,11.027-7.181,16.581-3.615l33.235,21.338c5.554,3.566,7.181,11.027,3.615,16.581l-48.083,74.893
				C1670.541,2220.141,1663.079,2221.768,1657.525,2218.202z"/>
		</g>
		<g>
			<path style="fill:#F79082;" d="M611.282,1974.563c-21.646,75.028-11.183,154.418,2.47,229.861
				c12.46,68.807,25.679,137.532,39.955,206c2.684,12.882,5.403,25.745,8.168,38.595c1.977,9.198,3.972,18.387,6.014,27.563
				c7.008,31.684,14.4,63.292,22.281,94.758c9.078,36.284,17.107,73.902,31.538,108.533c11.609,27.852,29.805,56.156,59.586,66.698
				c17.1,6.054,35.294,4.526,52.93,2.158c19.724-2.62,39.429-5.448,59.072-8.523c39.32-6.17,78.549-13.774,116.505-25.919
				c38.399-12.273,74.975-29.337,111.322-46.62c67.511-32.112,135.008-64.271,202.514-96.413c0.122,0.111,0.26,0.213,0.437,0.286
				c15.206,6.283,30.816,11.809,46.975,15.078c13.876,2.798,28.107,3.891,42.197,2.116c14.671-1.844,28.547-7.055,41.213-14.624
				c12.76-7.638,24.262-17.176,35.635-26.714c8.627-7.221,17.141-14.58,25.563-22.054c8.468-3.476,17.64-5.419,26.453-7.709
				c11.844-3.108,24.355-7.073,33.206-15.998c4.531-4.586,8.018-10.5,8.472-17.044c0.386-5.72-1.501-11.938-5.764-15.919
				c-5.14-4.811-12.308-5.239-18.955-4.408c-7.779,0.964-15.473,3.03-23.033,5.039c-3.72,0.996-7.425,2.211-11.221,2.867
				c-3.253,0.574-7.35,0.659-9.739-2.039c-1.616-1.815-2.125-4.431-1.646-6.826c1.332-2.289,4.005-3.897,6.494-4.764
				c8.171-2.827,17.379-3.427,25.967-3.797c8.934-0.373,17.884-0.181,26.819-0.339c3.864-0.075,7.824-0.133,11.551-1.24
				c3.788-1.117,6.802-3.331,9.297-6.373c5.314-6.509,9.208-15.3,8.941-23.812c-0.231-7.125-3.643-14.426-9.814-18.269
				c-7.539-4.704-16.84-2.145-24.948-0.743c-9.67,1.666-19.327,3.336-28.992,4.99c-2.311,0.408-5.539,1.435-7.771,0.236
				c-1.462-0.791-1.883-2.49-1.648-4.047c0.597-3.946,4.833-5.648,8.16-6.8c8.201-2.832,16.58-5.42,25.18-6.704
				c4.373-0.668,8.813-0.97,13.231-0.721c2.621,0.137,5.076,0.606,7.386,1.917c1.921,1.098,3.654,2.465,5.493,3.68
				c7.67,5.047,16.33,8.64,24.888,11.885c7.383,2.805,15.336,5.179,23.321,4.597c6.356-0.467,17.003-3.506,14.66-12.02
				c-0.995-3.634-3.432-7.021-5.731-9.948c-2.461-3.136-5.264-5.969-8.153-8.715c-5.89-5.586-11.698-11.073-16.976-17.262
				c-5.209-6.095-10.268-12.384-16.419-17.568c-6.029-5.072-13.141-8.62-21.057-9.348c-8.317-0.773-16.639,1.332-24.418,4.1
				c-8.037,2.857-15.758,6.591-23.975,8.989c-2.025,0.587-4.086,1.106-6.177,1.5c-1.553,0.282-6.068,1.606-6.677-0.44
				c-0.115-0.353-0.152-0.766-0.15-1.167c0.438-2.666,1.877-5.105,3.568-7.263c2.566-3.306,5.752-6.137,8.748-9.045
				c3.317-3.234,6.655-6.445,10.027-9.631c6.215-5.886,12.421-11.833,19.092-17.183c13.149-10.549,28.655-16.85,44.17-23.047
				c17.028-6.793,34.051-13.574,51.065-20.372c13.719-5.478,29.46-12.633,33.737-28.234c0.857-3.117,1.492-7.137,0.38-10.279
				c-1.23-3.438-5.755-4.066-8.899-4.531c-7.479-1.102-15.128,0.563-22.151,3.077c-7.985,2.874-15.488,6.907-23.509,9.669
				c-7.702,2.665-15.709,4.285-23.745,5.552c-7.897,1.24-15.836,2.123-23.73,3.307c-8.044,1.207-16.217,2.587-23.668,5.979
				c-7.211,3.269-13.315,8.417-19.716,12.982c-6.902,4.917-14.284,9.149-21.7,13.225c-14.791,8.109-29.47,16.183-43.467,25.64
				c-7.848,5.312-15.504,10.915-22.929,16.779c-4.478,2.225-8.874,4.591-13.151,7.167c-12.387,7.459-23.87,16.501-33.485,27.328
				c-5.549,6.26-10.456,13.016-15.281,19.827c-5.017,7.093-10.013,14.207-15.017,21.304c-17.811,25.266-35.61,50.536-53.421,75.802
				c-24.478,6.001-49.156,11.25-73.977,15.707c-64.724,11.626-130.308,18.101-196.007,20.397
				c-33.013,1.145-66.039,1.183-99.061,0.419c-19.125-0.451-38.387-0.877-57.429,0.747c-5.67-39.888-9.639-79.939-12.82-120.077
				c-0.972-12.066-1.858-24.133-2.697-36.213c-7.147-102.426-11.022-205.177-26.9-306.75
				c-10.385-66.426-27.349-151.989-100.628-176.275c-31.038-10.291-64.075-2.075-90.097,16.634
				C639.242,1905.317,621.306,1939.813,611.282,1974.563z"/>
			<g>
				<path style="fill:#EA6254;" d="M795.169,2646.653c20.597-44.622,47.546-85.745,80.241-122.438
					c3.492-3.919,8.905,2.214,5.435,6.109c-31.654,35.524-57.961,75.658-77.902,118.86
					C800.764,2653.902,792.965,2651.428,795.169,2646.653z"/>
				<path style="fill:#EA6254;" d="M1510.915,2349.386c4.858-1.919,8.606,5.351,3.707,7.286
					c-10.221,4.038-20.443,8.077-30.665,12.115c-4.858,1.919-8.606-5.351-3.707-7.286
					C1490.472,2357.463,1500.693,2353.425,1510.915,2349.386z"/>
				<path style="fill:#EA6254;" d="M1476.804,2412.144c10.625-4.073,21.25-8.146,31.875-12.219c4.87-1.867,8.623,5.402,3.707,7.286
					c-10.625,4.073-21.25,8.146-31.875,12.219C1475.641,2421.297,1471.888,2414.029,1476.804,2412.144z"/>
				<path style="fill:#EA6254;" d="M1496.248,2461.034c4.803-2.112,8.535,5.163,3.707,7.286c-10.256,4.51-20.426,9.203-30.512,14.08
					c-4.737,2.291-8.455-4.99-3.707-7.286C1475.822,2470.237,1485.992,2465.543,1496.248,2461.034z"/>
			</g>
		</g>
		<path style="fill:#FA9385;" d="M991.819,1317.153c22.07,10.39,33.26-10.975,37.937-36.772c1.559-8.599,2.395-17.691,2.669-26.263
			c7.632-47.995-52.783-71.964-92.312-57.64c-10.852,3.239-15.003,16.793-14.733,29.182c1.499,9.519,4.237,18.951,8.047,28.005
			C944.84,1280.835,965.933,1304.594,991.819,1317.153z"/>
		<g>
			<path style="fill:#BF4134;" d="M1287.237,1226.551c-1.008-11.679-10.36-20.226-15.223-30.354
				c-2.663-5.544-4.507-11.45-6.19-17.352c-1.809-6.34-3.416-12.737-4.823-19.178c-3.169-14.51-5.285-29.223-6.356-44.036
				c-0.131-1.816-1.456-3.371-3.371-3.371c-1.723,0-3.504,1.546-3.372,3.371c0.942,13.031,2.654,26.012,5.153,38.836
				c2.427,12.455,5.338,25.061,9.722,36.989c2.1,5.712,4.701,11.165,8.052,16.25c2.884,4.375,6.232,8.646,8.242,13.524
				c1.855,4.502,2.045,9.312-0.202,13.713c-2.336,4.573-6.123,8.185-9.908,11.566c-11.221,10.026-22.658,19.819-33.988,29.722
				c-1.371,1.199-1.227,3.541,0,4.768c1.361,1.361,3.393,1.202,4.768,0c10.386-9.078,20.772-18.157,31.158-27.235
				C1278.891,1246.778,1288.246,1238.233,1287.237,1226.551z"/>
			<path style="fill:#BF4134;" d="M962.627,1227.877c-1.461-1.089-3.766-0.238-4.613,1.21c-1.006,1.72-0.255,3.521,1.21,4.613
				c18.004,13.417,36.738,27.578,47.249,47.969c1.989,3.859,7.809,0.451,5.822-3.403
				C1001.245,1256.829,981.542,1241.974,962.627,1227.877z"/>
			<path style="fill:#BF4134;" d="M1063.31,1429.706c-2.765-3.21-5.462-6.46-8.119-9.71c10.924,21.227,23.938,41.389,40.202,58.921
				c5.839,6.271,12.138,12.083,18.53,17.775c6.554,5.812,13.081,11.638,19.851,17.195c12.839,10.56,26.649,19.676,41.847,26.487
				c9.791,4.383,19.919,7.835,30.29,10.357c-0.472-11.072-0.917-22.157-1.322-33.229
				C1148.582,1512.065,1100.787,1473.414,1063.31,1429.706z"/>
		</g>
		
			<ellipse transform="matrix(0.9676 -0.2524 0.2524 0.9676 -263.0053 327.5445)" style="fill:#3D111C;" cx="1145.267" cy="1188.968" rx="29.359" ry="35.343"/>
		
			<ellipse transform="matrix(0.9762 -0.217 0.217 0.9762 -224.5616 318.9507)" style="fill:#3D111C;" cx="1339.9" cy="1181.903" rx="27.3" ry="32.865"/>
		<path style="fill:#993B28;" d="M1282.532,1114.496c3.683,10.899,13.837,17.596,24.644,20.199
			c13.334,3.227,27.323,0.716,40.703-0.898c6.759-0.807,13.548-1.537,20.306-2.436c5.282-0.715,10.914-1.918,14.765-5.906
			c7.23-7.458,4.262-19.666-2.481-26.318c-3.029-2.999-6.713-5.206-10.595-6.941c-0.32-0.182-0.654-0.365-0.974-0.517
			c-5.8-2.831-12.223-4.476-18.479-5.876c-6.5-1.461-13.091-2.466-19.712-3.014c-6.758-0.563-13.593-0.731-20.351-0.198
			c-6.058,0.457-12.162,1.659-17.474,4.719c-4.704,2.694-8.601,6.758-10.458,11.888
			C1280.66,1104.085,1280.888,1109.61,1282.532,1114.496z"/>
		<path style="fill:#993B28;" d="M1201.203,1112.489c-2.802,11.144-12.974,18.892-24.275,22.687
			c-13.942,4.697-29.188,3.823-43.686,3.763c-7.323-0.022-14.67,0.034-22.003-0.079c-5.732-0.101-11.89-0.641-16.432-4.125
			c-8.526-6.513-6.627-18.863-0.103-26.178c2.93-3.296,6.644-5.888,10.619-8.039c0.323-0.216,0.663-0.434,0.989-0.62
			c5.914-3.448,12.621-5.799,19.175-7.89c6.808-2.179,13.761-3.92,20.796-5.215c7.179-1.325,14.481-2.27,21.775-2.518
			c6.536-0.242,13.199,0.244,19.21,2.648c5.32,2.114,9.92,5.668,12.446,10.503
			C1202.116,1102.032,1202.451,1107.494,1201.203,1112.489z"/>
		<path style="fill:#BF4134;" d="M1278.593,1302.744c-35.702,12.042-76.459,4.725-105.236-19.836
			c-6.567-5.605-16.15,3.891-9.536,9.536c32.34,27.602,77.923,36.943,118.357,23.304
			C1290.359,1312.989,1286.849,1299.959,1278.593,1302.744z"/>
		<path style="fill:#F9DCCC;" d="M920.117,2204.936c-0.38-1.699-0.864-3.388-1.5-5.04c-1.633-4.328-3.977-8.2-6.862-11.599
			c-5.638-6.682-13.326-11.532-21.593-14.417c-14.807-5.144-30.932-2.999-45.54,1.794c-15.917,5.201-31.198,12.994-45.938,20.957
			c-6.511,3.521-12.946,7.204-19.267,11.029c-7.973,3.198-16.05,6.084-24.374,8.305c-16.6,4.48-33.599,7.014-50.437,10.374
			c-28.655,5.676-58.913,14.683-79.661,36.893c-5.477,5.875-9.966,12.491-13.013,19.79c-1.803,4.3-3.104,8.836-3.815,13.582
			c-0.503,3.303-0.74,6.71-0.674,10.127c-2.278-22.219-4.1-44.496-5.486-66.8c-0.987-15.898-1.737-31.825-2.278-47.742
			c-1.462-43.499-1.215-87.064,0.712-130.554c0.968-21.84,2.354-43.66,4.176-65.434c1.651-19.581,3.521-39.18,6.654-58.59
			c5.866-36.39,16.638-73.539,39.664-103.019c20.198-25.864,75.599-63.336,108.544-67.341c16.088-1.955,6.91,18.242,21.745,24.706
			c14.835,6.454,27.781,16.895,38.336,29.072c24.146,27.819,35.593,62.928,44.182,98.112c4.869,19.932,9.045,40.035,14.911,59.72
			c5.98,20.046,14.854,39.076,20.89,59.103c6.103,20.188,8.352,41.24,10.403,62.159c2.126,21.754,4.243,43.518,6.369,65.272
			C917.545,2178.569,918.836,2191.762,920.117,2204.936z"/>
		<path style="fill:#3D111C;" d="M917.522,2195.948c-8.649-43.956-17.197-87.931-25.644-131.926
			c-2.365-12.319-4.722-24.639-7.072-36.96c-0.341-1.79-2.493-2.809-4.147-2.355c-1.874,0.515-2.697,2.353-2.355,4.147
			c8.391,44.006,16.882,87.992,25.475,131.959c2.406,12.311,4.82,24.62,7.241,36.927c0.352,1.787,2.486,2.812,4.147,2.355
			C917.033,2199.583,917.875,2197.74,917.522,2195.948z"/>
		<path style="fill:#3D111C;" d="M1274.879,1755.239c-13.163,13.649-28.866,24.48-45.988,32.57
			c-17.276,8.162-35.879,13.43-54.701,16.538c-19.083,3.151-38.554,3.971-57.858,3.006c-19.115-0.956-38.264-3.623-56.548-9.424
			c-17.818-5.653-34.843-14.572-47.979-28.069c-1.669-1.715-3.263-3.497-4.798-5.332c-1.169-1.398-3.561-1.207-4.768,0
			c-1.384,1.384-1.172,3.367,0,4.768c12.673,15.158,29.805,25.641,48.167,32.517c18.587,6.961,38.417,10.297,58.147,11.793
			c19.904,1.509,39.946,1.057,59.733-1.609c19.658-2.649,38.956-7.574,57.233-15.332c17.98-7.631,34.757-18.153,48.993-31.571
			c1.754-1.653,3.463-3.352,5.136-5.086C1282.66,1756.882,1277.898,1752.108,1274.879,1755.239z"/>
		<path style="fill:#3D111C;" d="M930.859,1321.403c-1.196-1.196-3.6-1.408-4.768,0c-23.523,28.375-40.491,62.036-49.127,97.885
			c-2.247,9.325-3.824,18.76-5.043,28.27c-1.281,9.985-2.387,19.999-4.868,29.777c-4.289,16.906-11.976,32.708-21.624,47.187
			c-10.996,16.502-24.495,31.209-39.027,44.649c-3.192,2.953,1.585,7.713,4.768,4.768c25.842-23.903,48.974-52.5,59.958-86.409
			c6.053-18.685,6.536-38.365,10.366-57.51c3.572-17.85,9.195-35.323,16.791-51.868c8.555-18.632,19.485-36.195,32.573-51.983
			C932.02,1324.77,932.231,1322.775,930.859,1321.403z"/>
		<path style="fill:#3D111C;" d="M956.654,1315.691c-1.735-1.015-3.503-0.242-4.613,1.21c-18.284,23.925-33.376,50.142-45.033,77.9
			c-3.279,7.808-6.268,15.734-8.977,23.757c-1.391,4.121,5.12,5.889,6.502,1.793c9.47-28.054,22.548-54.832,38.803-79.58
			c4.594-6.995,9.445-13.817,14.527-20.466C958.97,1318.856,958.089,1316.531,956.654,1315.691z"/>
		<path style="fill:#3D111C;" d="M794.98,1479.385c-16.738,17.097-34.742,32.973-53.893,47.321
			c-18.021,13.501-37.635,26.202-59.714,31.768c-11.799,2.975-24.109,3.55-35.978,0.629c-4.213-1.037-6.011,5.464-1.792,6.502
			c22.916,5.641,46.24-0.694,66.771-11.182c10.478-5.353,20.369-11.8,29.858-18.74c9.962-7.286,19.651-14.954,29.025-22.983
			c10.579-9.061,20.748-18.593,30.492-28.546C802.786,1481.049,798.022,1476.277,794.98,1479.385z"/>
		<path style="fill:#3D111C;" d="M1408.659,1502.634c-9.283-18.228-14.226-38.583-14.425-59.034
			c-0.057-5.883,0.281-11.76,0.984-17.601c0.218-1.811-1.706-3.372-3.372-3.372c-2.003,0-3.153,1.556-3.371,3.372
			c-2.547,21.161-0.098,42.961,7.042,63.045c2.067,5.814,4.52,11.495,7.32,16.993
			C1404.807,1509.905,1410.626,1506.496,1408.659,1502.634z"/>
		<path style="fill:#3D111C;" d="M1385.857,1492.788c-3.831-9.943-6.288-20.375-7.134-31.002c-0.145-1.815-1.446-3.371-3.371-3.371
			c-1.712,0-3.517,1.546-3.371,3.371c0.895,11.234,3.321,22.274,7.375,32.794c0.654,1.698,2.267,2.872,4.147,2.355
			C1385.125,1496.489,1386.515,1494.496,1385.857,1492.788z"/>
	</g>
	<path style="fill:#993B28;" d="M1145.267,927.603c0,0-62.293,57.138-95.788,181.662c0,0-131.765,60.495-145.623,26.996
		c-13.859-33.5,75.369-179.645,75.369-179.645s65.109-74.333,73.612-75.593c8.503-1.26,68.977,0,68.977,0L1145.267,927.603z"/>
	<path style="fill:#993B28;" d="M1130.551,937.716c0,0-23.855,44.096-28.895,86.931c-5.039,42.836-12.531,49.728-12.565,57.621
		c-0.034,7.893,53.17,0.334,56.175-13.525c3.005-13.859,6.785-83.152,10.564-97.011c3.78-13.859,25.571,63.841,18.898,88.191
		c-6.672,24.35,152.698,13.859,165.17,7.559c12.472-6.299-8.272-82.484-25.324-105.83s36.386,31.239,45.356,80.632
		c8.969,49.393,49.122,40.316,49.128,31.497c0.007-8.819-37.088-115.909-37.088-115.909l-55.498-57.893l-147.544-19.52l-47.115,0.56
		L1130.551,937.716z"/>
	<path style="fill:#FEC466;" d="M1162.461,1506.949c-38.117-15.404-71.451-44.942-99.156-77.241
		c-7.944-9.254-15.423-18.755-22.419-28.208c-6.881-9.776-13.259-19.865-19.182-30.259c-2.183-3.844-4.309-7.726-6.378-11.636v-0.01
		c0.617,0.655,25.873,27.411,39.864,12.405c14.161-15.205,19.543-34.577,28.151-19.505c8.609,15.063-10.763,36.589,0,48.425
		c10.763,11.836,34.023,13.991,29.866,33.363c-4.157,19.372-13.076,21.17,2.423,24.126
		C1151.143,1465.183,1150.397,1488.147,1162.461,1506.949z"/>
	<path style="fill:#FEC466;" d="M1095.45,1389.085c0,0,19.689-38.361,41.164-25.829
		C1161.592,1377.832,1083.083,1404.951,1095.45,1389.085z"/>
	<path style="fill:#FEC466;" d="M1045.898,1359.938c0,0-10.105-41.918,14.346-46.43
		C1088.683,1308.259,1046.877,1380.031,1045.898,1359.938z"/>
	<g>
		<path style="fill:#3D111C;" d="M1544.235,2120.557c-2.025,0-3.823-1.446-4.198-3.508c-0.131-0.721-13.817-73.234-72.857-164.959
			c-60.26-93.618-60.745-135.895-60.736-137.648c0.012-2.352,1.922-4.25,4.271-4.25c0.007,0,0.014,0,0.022,0
			c2.359,0.012,4.262,1.933,4.25,4.292c0.001,0.391,0.839,42.041,59.376,132.982c60.032,93.265,73.946,167.321,74.08,168.059
			c0.42,2.32-1.119,4.541-3.44,4.962C1544.745,2120.534,1544.488,2120.557,1544.235,2120.557z"/>
	</g>
	<path style="fill:#66A896;" d="M684.788,2146.185c-45.369,22.599-71.204,35.925-58.286,51.861
		c12.671,15.623,1.5,68.803-24.545,41.885c-0.987-15.898-1.737-31.825-2.278-47.742c-1.462-43.499-1.215-87.064,0.712-130.554
		c0,0,16.42,76.102,58.4,48.036c41.971-28.057,50.086-27.687,62.169-16.572S730.167,2123.585,684.788,2146.185z"/>
	<path style="fill:#66A896;" d="M634.004,2076.144c0,0-3.734-40.633,21.824-70.359c25.558-29.726,62.687,3.693,30.401,28.147
		C653.944,2058.387,641.508,2090.672,634.004,2076.144z"/>
	<g>
		<path style="fill:#BF4134;" d="M1636.803,2417.741c-11.626,0-27.141-4.852-42.125-13.752c-13.387-7.951-26.864-9.261-32.158-7.656
			c-2.381,0.724-2.529,4.871-2.529,4.912c0,1.933-1.567,3.5-3.5,3.5s-3.5-1.567-3.5-3.5c0-3.467,1.579-9.813,7.495-11.609
			c7.803-2.371,23.283-0.269,37.767,8.335c21.347,12.679,41.633,15.334,48.188,10.531c1.236-0.907,2.768-2.59,1.797-6.723
			c-3.24-13.796-42.333-46.827-57.123-58.392c-1.523-1.19-1.792-3.39-0.601-4.913c1.191-1.522,3.39-1.793,4.913-0.6
			c5.641,4.41,55.241,43.63,59.626,62.306c1.381,5.879-0.208,10.84-4.472,13.967
			C1647.269,2416.575,1642.503,2417.741,1636.803,2417.741z"/>
	</g>
	<g>
		<path style="fill:#BF4134;" d="M1507.295,2536.196c-0.985,0-1.965-0.414-2.657-1.22c-1.259-1.467-1.091-3.677,0.375-4.935
			c10.618-9.116,21.813-12.421,38.76-17.424c5.254-1.551,11.209-3.309,17.813-5.45c10.321-3.348,16.875-8.735,18.953-15.58
			c1.931-6.363-0.036-14.119-5.263-20.745c-5.877-7.45-30.771-1.438-44.145,1.793c-7.493,1.81-11.518,2.75-13.992,2.607
			c-4.273-0.241-7.379-3.729-7.224-8.11c0.211-5.989,7.139-16.008,31.928-15.683c26.701,0.376,38.694-1.232,41.227-1.631
			c18.059-10.422,15.04-28.88,11.602-39.015c-2.449-7.22-23.454-7.011-37.587-4.559c-1.908,0.328-3.716-0.945-4.047-2.85
			c-0.331-1.904,0.945-3.717,2.85-4.047c6.669-1.159,40.201-6.154,45.413,9.206c3.358,9.897,8.585,34.355-15.337,47.671
			c-0.32,0.178-0.666,0.305-1.025,0.375c-0.474,0.094-11.976,2.284-43.194,1.85c-0.379-0.006-0.755-0.008-1.125-0.008
			c-17.644,0-23.604,5.974-23.709,8.938c-0.03,0.838,0.364,0.86,0.624,0.875c1.558,0.097,6.842-1.189,11.953-2.424
			c17.992-4.346,42.631-10.297,51.285,0.676c6.645,8.424,9.062,18.56,6.465,27.115c-1.933,6.368-7.578,15.044-23.492,20.205
			c-6.692,2.17-12.694,3.942-17.99,5.506c-16.08,4.746-26.704,7.882-36.182,16.021
			C1508.913,2535.918,1508.102,2536.196,1507.295,2536.196z"/>
	</g>
</g>
<g id="icon">
	<path style="fill:#5065BA;" d="M2543.929,507.994c-0.048,0.291-0.107,0.582-0.165,0.873l-50.747,261.21l-19.905,102.475
		c-12.966,66.761-66.858,121.041-130.765,136.928c-1.359,0.349-2.727,0.67-4.095,0.971c-11.122,2.465-22.535,3.766-34.055,3.766
		h-500.973c-8.201,6.405-16.392,12.82-24.592,19.226c-25.291,19.759-50.573,39.528-75.864,59.297
		c-12.646,9.88-25.281,19.769-37.927,29.649c-5.153,4.028-10.996,8.521-17.43,9.317c-4.814,0.592-9.113-1.427-11.229-5.289
		c-2.009-3.659-2.028-8.366-1.475-12.714c0.66-5.212,2.397-10.268,4.144-15.353c4.998-14.548,9.986-29.096,14.984-43.643
		c4.629-13.5,9.259-26.99,13.898-40.489h-66.644c-87.491,0-147.245-74.331-130.222-161.977l70.643-363.686
		c2.776-14.276,7.415-27.989,13.635-40.868c0.281-0.592,0.563-1.184,0.864-1.766c28.853-58.123,89.752-99.03,154.426-99.03h703.099
		c32.502,0,61.171,10.248,83.502,27.63c22.583,17.585,38.684,42.459,45.701,71.4c0.146,0.592,0.281,1.174,0.417,1.766
		C2547.433,466.418,2547.928,486.808,2543.929,507.994z"/>
	<g>
		<path style="fill:#F09F48;" d="M2152.519,569.224c16.689,44.022,19.823,95.328,5.525,140.767
			c-3.867,12.709-13.505,21.937-18.81,33.785c-1.343,3.944-1.262,7.949-0.436,11.828c0.597,2.81,1.587,5.557,2.709,8.169
			c-0.271-0.121-0.651-0.178-1.125-0.172c-1.841,0.022-5.16,0.981-9.659,2.733c-0.967,0.369-1.986,0.781-3.061,1.229
			c-2.448,1.022-5.167,2.223-8.117,3.594c-9.871,4.58-22.371,11.032-36.217,18.744c-5.432,3.028-11.07,6.248-16.837,9.627
			l-0.002-0.003l-3.079,1.812l0.002,0.003c-5.759,3.406-11.313,6.775-16.606,10.06c-13.485,8.377-25.237,16.203-34.093,22.647
			c-2.311,1.68-4.426,3.267-6.32,4.747c-0.921,0.715-1.789,1.403-2.601,2.069c-4.216,3.428-7.003,6.134-8.038,7.878
			c-0.289,0.489-0.443,0.907-0.45,1.242c-3.929-6.021-8.376-9.617-13.166-11.639c-0.436-0.185-0.889-0.354-1.356-0.501
			c-3.27-1.04-7.302-1.162-12.654-0.303c-17.63,2.407-35.185-1.518-51.281-8.706c-108.43-41.935-160.073-179.315-90.067-277.023
			c15.249-23.509,34.8-42.714,56.811-57.337c77.004-51.158,184.118-46.166,242.309,27.29
			C2136.588,535.251,2145.621,551.046,2152.519,569.224z"/>
		<path style="fill:#B3C0FF;" d="M2141.762,763.929c-0.269-0.228-0.734-0.336-1.378-0.328c-1.843,0.023-5.162,0.981-9.662,2.732
			c-0.966,0.372-1.986,0.783-3.059,1.229c-2.448,1.021-5.167,2.224-8.12,3.595c-9.871,4.58-22.369,11.03-36.215,18.745
			c-5.431,3.028-11.07,6.247-16.838,9.627l-0.002-0.003l-3.079,1.812l0.002,0.003c-5.758,3.405-11.312,6.775-16.603,10.06
			c-13.488,8.376-25.239,16.201-34.093,22.645c-2.311,1.681-4.425,3.269-6.322,4.748c-0.919,0.715-1.787,1.403-2.599,2.07
			c-4.216,3.427-7.003,6.134-8.038,7.877c-0.339,0.571-0.491,1.042-0.442,1.399c0.013,0.1,0.04,0.193,0.084,0.275
			c0.049,0.09,0.113,0.165,0.197,0.235c5.94,10.687,12.009,21.291,18.207,31.82l0.204,0.347c4.766,8.09,9.609,16.132,14.525,24.122
			c0.317,0.52,0.635,1.039,0.96,1.558c1.823,2.547,4.436,4.232,7.305,4.909c0.405,0.078,0.804,0.152,1.205,0.224
			c2.249,0.417,4.502,0.816,6.758,1.205c5.518,0.955,11.046,1.835,16.588,2.64c5.566,0.807,11.142,1.539,16.729,2.198
			c1.464,0.172,2.929,0.34,4.391,0.503c0.027,0,0.048,0.003,0.073,0.007c0.144,0.015,0.285,0.033,0.43,0.048
			c3.282,0.422,6.351,2.14,8.446,4.939c0.033,0.05,0.071,0.101,0.106,0.154c0.229,0.349,15.572,20.081,17.261,22.643
			c0.238,0.365,0.483,0.735,0.725,1.101c1.469,2.003,3.434,3.459,5.619,4.3c0.002,0.003,0.004,0.001,0.009,0.002
			c0.601,0.182,1.204,0.36,1.805,0.543c0.951,0.285,1.899,0.565,2.851,0.85c4.344,1.302,8.687,2.601,13.033,3.899
			c0.239,0.072,0.473,0.142,0.712,0.214c0.055,0.068,0.165,0.096,0.323,0.096l0.007,0c0.389-0.001,1.068-0.185,1.984-0.531
			c0.157-0.061,0.317-0.124,0.485-0.193c0.058-0.019,0.116-0.045,0.174-0.072c0.116-0.045,0.228-0.092,0.348-0.143
			c0.074-0.032,0.155-0.064,0.232-0.098c0.107-0.048,0.216-0.092,0.329-0.143c0.085-0.039,0.174-0.079,0.262-0.119
			c0.107-0.047,0.217-0.097,0.327-0.146c0.097-0.045,0.195-0.088,0.295-0.135c0.107-0.048,0.215-0.1,0.323-0.152
			c0.108-0.052,0.218-0.101,0.326-0.154c0.105-0.05,0.208-0.099,0.313-0.15c0.12-0.059,0.239-0.118,0.365-0.18
			c0.092-0.047,0.189-0.092,0.281-0.139c0.14-0.071,0.281-0.138,0.426-0.208l0.046-0.027c0.622-0.308,1.27-0.643,1.943-1.001
			l0.16-0.083c0.191-0.101,0.387-0.208,0.581-0.311c0.065-0.034,0.13-0.069,0.197-0.104c0.193-0.106,0.39-0.21,0.588-0.319
			c0.065-0.034,0.132-0.07,0.198-0.109c0.204-0.112,0.405-0.223,0.615-0.339c0.059-0.031,0.119-0.066,0.178-0.097
			c0.214-0.122,0.432-0.243,0.649-0.366c0.043-0.025,0.091-0.049,0.134-0.075c0.235-0.131,0.472-0.266,0.709-0.402l0.007,0.011
			c0.281-0.165,0.557-0.332,0.835-0.496c0.155-0.091,0.314-0.181,0.469-0.272l0.364-0.214c0.158-0.093,0.314-0.188,0.469-0.28
			c0.275-0.162,0.555-0.323,0.836-0.488l-0.007-0.011c0.236-0.143,0.469-0.284,0.698-0.427c0.043-0.025,0.09-0.057,0.13-0.081
			c0.216-0.131,0.425-0.262,0.638-0.391c0.056-0.037,0.116-0.072,0.172-0.109c0.2-0.126,0.397-0.249,0.594-0.373
			c0.066-0.039,0.13-0.08,0.194-0.122c0.189-0.119,0.379-0.242,0.564-0.359c0.064-0.042,0.125-0.082,0.187-0.122
			c0.187-0.122,0.373-0.239,0.554-0.357c0.053-0.035,0.103-0.068,0.153-0.101c0.64-0.415,1.253-0.822,1.824-1.216l0.046-0.027
			c0.131-0.093,0.262-0.185,0.392-0.273c0.088-0.06,0.172-0.121,0.258-0.179c0.115-0.079,0.225-0.155,0.337-0.233
			c0.095-0.068,0.191-0.135,0.283-0.201c0.101-0.071,0.2-0.145,0.299-0.214c0.098-0.069,0.193-0.137,0.29-0.209
			c0.09-0.064,0.175-0.13,0.261-0.192c0.099-0.074,0.196-0.146,0.289-0.217c0.081-0.059,0.159-0.117,0.234-0.173
			c0.099-0.074,0.194-0.149,0.288-0.219c0.067-0.051,0.134-0.106,0.198-0.155c0.106-0.082,0.204-0.159,0.3-0.238
			c0.051-0.038,0.102-0.076,0.147-0.117c0.141-0.114,0.28-0.226,0.41-0.334c0.755-0.638,1.257-1.149,1.461-1.497l0.001-0.005
			c0.083-0.141,0.117-0.254,0.087-0.337l0.193-0.747c1.169-4.544,2.333-9.085,3.5-13.632c0.255-0.996,0.511-1.984,0.767-2.979
			c0.161-0.631,0.324-1.26,0.485-1.891c0.001-0.005,0.004-0.006,0.002-0.009c0.435-2.383,0.247-4.885-0.646-7.227
			c-0.18-0.404-0.358-0.812-0.533-1.214c-1.27-2.891-10.057-26.406-10.224-26.786c-0.026-0.058-0.05-0.117-0.072-0.174
			c-1.23-3.309-1.062-6.932,0.282-10.077c0.059-0.135,0.118-0.271,0.181-0.407c0.009-0.025,0.019-0.046,0.032-0.069
			c0.619-1.387,1.235-2.78,1.846-4.174c2.335-5.323,4.605-10.673,6.807-16.053c2.191-5.358,4.314-10.741,6.369-16.154
			c0.843-2.214,1.674-4.428,2.489-6.649c0.146-0.395,0.292-0.789,0.434-1.19c0.92-2.908,0.879-6.106-0.28-9.045
			c-0.262-0.556-0.525-1.108-0.788-1.659c-4.05-8.5-8.182-16.96-12.389-25.379c-5.537-11.071-11.208-22.068-17.015-32.988
			c-0.015-0.111-0.044-0.206-0.093-0.296C2141.9,764.065,2141.841,763.991,2141.762,763.929z"/>
		<path style="fill:#F8EEE8;" d="M2016.379,629.424c-3.669-2.051-8.143-2.617-12.051-0.92c-4.035,1.749-6.699,5.632-7.779,9.806
			c-2.563,9.9,3.922,19.165,8.628,27.297c2.323,4.012,4.646,8.029,6.969,12.041c-1.992,2.704-4.248,5.216-6.709,7.495
			c-6.523,6.047-14.459,10.492-22.82,13.484c-2.81-4.264-5.763-8.425-9.028-12.364c-5.901-7.117-13.343-14.238-22.203-17.414
			c-4.007-1.437-8.455-1.71-12.366,0.146c-3.817,1.812-6.293,5.693-7.13,9.747c-1.861,9.01,3.202,17.57,10.33,22.734
			c10.992,7.958,25.424,7.284,38.399,3.195c0.902,1.427,1.796,2.861,2.682,4.294c21.142,34.163,42.153,68.411,63.221,102.618
			c0.095-0.06,0.194-0.122,0.289-0.182c1.295-0.805,2.611-1.614,3.938-2.43c-8.289-13.453-16.575-26.907-24.865-40.363
			c-11.782-19.126-23.564-38.252-35.347-57.378c-1.696-2.751-3.387-5.513-5.117-8.248c3.857-1.497,7.517-3.256,10.84-5.124
			c7.103-3.997,13.492-9.319,18.533-15.637c2.43,4.2,4.858,8.396,7.286,12.593c11.271,19.473,22.54,38.947,33.808,58.422
			c7.581,13.1,15.164,26.203,22.745,39.303c1.46-0.825,2.905-1.637,4.334-2.436c-14.559-25.155-29.116-50.316-43.675-75.471
			c-7.103-12.274-14.205-24.548-21.31-36.826c4.598-7.045,7.572-15.091,8.195-23.772
			C2026.819,645.12,2024.875,634.174,2016.379,629.424z M1955.478,701.901c-7.613-1.579-15.257-6.451-18.036-14.025
			c-1.268-3.461-1.474-7.52,0.27-10.869c1.743-3.349,5.104-4.774,8.784-4.291c3.971,0.52,7.581,2.667,10.806,4.918
			c3.588,2.502,6.822,5.513,9.787,8.721c3.962,4.286,7.413,8.992,10.641,13.849C1970.536,702.289,1962.857,703.433,1955.478,701.901
			z M2019.627,640.683c3,7.671,1.857,16.866-0.802,24.461c-0.957,2.732-2.184,5.358-3.629,7.855
			c-2.462-4.261-4.928-8.521-7.393-12.78c-4.014-6.936-10.05-16.204-4.945-24.143c1.908-2.965,5.236-4.217,8.634-3.318
			C2015.418,633.796,2018.19,637.002,2019.627,640.683z"/>
	</g>
</g>
</svg>
